<?xml version="1.0" encoding="utf-8"?>
<!-- Generator: Adobe Illustrator 17.1.0, SVG Export Plug-In . SVG Version: 6.00 Build 0)  -->
<!DOCTYPE svg PUBLIC "-//W3C//DTD SVG 1.1//EN" "http://www.w3.org/Graphics/SVG/1.1/DTD/svg11.dtd">
<svg version="1.1" id="Layer_1" xmlns="http://www.w3.org/2000/svg" xmlns:xlink="http://www.w3.org/1999/xlink" x="0px" y="0px"
	 viewBox="0 0 100 100" width="200" height="200" enable-background="new 0 0 100 100" xml:space="preserve">
<g>
	<rect x="1.9" y="0.8" fill="#FF642F" width="93.9" height="54.6"/>
</g>
<g>
	<g>
		<g>
			<rect x="1.9" y="58.4" fill="#213538" width="8.4" height="2"/>
		</g>
	</g>
	<g>
		<g>
			<rect x="14.5" y="58.4" fill="#213538" width="8.4" height="2"/>
		</g>
	</g>
	<g>
		<g>
			<rect x="27.1" y="58.4" fill="#213538" width="8.4" height="2"/>
		</g>
	</g>
	<g>
		<g>
			<rect x="52.1" y="58.4" fill="#213538" width="8.4" height="2"/>
		</g>
	</g>
	<g>
		<g>
			<rect x="85.7" y="58.4" fill="#213538" width="10" height="2"/>
		</g>
	</g>
</g>
<g>
	<g>
		<g>
			<rect x="1.9" y="70" fill="#C4411F" width="28.4" height="3.2"/>
		</g>
	</g>
	<g>
		<g>
			<rect x="30.3" y="73.2" fill="#FF642F" width="12.2" height="3.2"/>
		</g>
	</g>
	<g>
		<g>
			<rect x="42.5" y="76.4" fill="#C4411F" width="24.4" height="3.2"/>
		</g>
	</g>
	<g>
		<g>
			<rect x="66.7" y="79.4" fill="#FF642F" width="28.4" height="3.2"/>
		</g>
	</g>
</g>
<g>
	<g>
		<g>
			<rect x="1.9" y="82.4" fill="#C4411F" width="40.6" height="3.2"/>
		</g>
	</g>
	<g>
		<g>
			<rect x="30.3" y="85.6" fill="#FF642F" width="26.2" height="3.2"/>
		</g>
	</g>
	<g>
		<g>
			<rect x="19.1" y="88.8" fill="#C4411F" width="55.2" height="3.2"/>
		</g>
	</g>
	<g>
		<g>
			<rect x="52.1" y="92" fill="#FF642F" width="43" height="3.2"/>
		</g>
	</g>
</g>
<g>
	<g>
		<path fill="#FFFFFF" d="M50.1,36.8v-0.4c0.8,0,1.6-0.2,2.4-0.4l0.2,0.4C51.7,36.6,50.9,36.8,50.1,36.8z M47.5,36.6
			c-0.8-0.2-1.8-0.4-2.6-0.6l0.2-0.4c0.8,0.2,1.6,0.6,2.4,0.6V36.6z M55.1,35.4L54.9,35c0.8-0.4,1.4-0.8,2-1.4l0.2,0.4
			C56.5,34.4,55.9,34.8,55.1,35.4z M42.5,34.8c-0.8-0.4-1.4-1-2-1.6l0.4-0.4c0.6,0.6,1.2,1.2,2,1.6L42.5,34.8z M59.1,31.8l-0.4-0.2
			c0.6-0.6,1-1.4,1.2-2.2l0.4,0.2C59.9,30.4,59.5,31.2,59.1,31.8z M38.9,31.2c-0.4-0.8-0.8-1.6-1.2-2.4l0.4-0.2
			c0.2,0.8,0.6,1.6,1.2,2.2L38.9,31.2z M61.1,27.2h-0.4c0.2-0.8,0.2-1.6,0.2-2.6h0.4C61.5,25.4,61.3,26.2,61.1,27.2z M36.9,26.2
			c0-0.6-0.2-1.2-0.2-1.8c0-0.2,0-0.6,0-0.8h0.4c0,0.2,0,0.6,0,0.8c0,0.6,0,1.2,0.2,1.6L36.9,26.2z M37.7,21.2L37.3,21
			c0.2-0.8,0.6-1.6,1-2.4l0.4,0.2C38.3,19.6,38.1,20.4,37.7,21.2z M40.1,16.8l-0.4-0.2c0.6-0.6,1.2-1.2,2-1.8l0.2,0.4
			C41.3,15.6,40.7,16,40.1,16.8z M44.3,13.6l-0.2-0.4c0.8-0.4,1.6-0.6,2.4-0.8v0.4C45.9,13,44.9,13.4,44.3,13.6z"/>
	</g>
	<g>
		<circle fill="#FFFFFF" cx="49.1" cy="12.4" r="1.8"/>
		<path fill="#231F20" d="M49.1,14.2c-1,0-1.8-0.8-1.8-1.8s0.8-1.8,1.8-1.8c1,0,1.8,0.8,1.8,1.8S50.1,14.2,49.1,14.2z M49.1,10.8
			c-1,0-1.8,0.8-1.8,1.8s0.8,1.8,1.8,1.8c1,0,1.8-0.8,1.8-1.8C50.9,11.4,50.1,10.8,49.1,10.8z"/>
	</g>
	<circle fill="#FFFFFF" cx="61.3" cy="24.6" r="1.8"/>
</g>
<g>
	<g>
		<path fill="#FFFFFF" d="M47.9,31.8c-4,0-7.2-3.2-7.2-7.2s3.2-7.2,7.2-7.2s7.2,3.2,7.2,7.2C55.1,28.6,51.9,31.8,47.9,31.8z
			 M47.9,17.6c-3.8,0-7,3.2-7,7s3.2,7,7,7c3.8,0,7-3.2,7-7S51.7,17.6,47.9,17.6z"/>
	</g>
	<circle fill="#FFFFFF" cx="47.9" cy="24.6" r="1.8"/>
</g>
<g>
	<path fill="#FFFFFF" d="M47.9,41.2L47.9,41.2L47.9,41.2c-2.2,0-4.4-0.4-6.4-1.2l0.4-1c1.8,0.8,4,1.2,6,1.2V41.2z M54.3,40l-0.4-1
		c2-0.8,3.6-2,5-3.4l0.8,0.8C58.1,38,56.3,39.2,54.3,40z M36.1,36.4c-1.6-1.6-2.8-3.4-3.6-5.4l1-0.4c0.8,2,2,3.6,3.4,5L36.1,36.4z
		 M63.3,31l-1-0.4c0.8-1.8,1.2-4,1.2-6l0,0h1l0,0C64.5,26.8,64.1,29,63.3,31z M31.3,24.6L31.3,24.6c0-2.2,0.4-4.4,1.2-6.4l1,0.4
		c-0.8,1.8-1.2,3.8-1.2,6H31.3z M62.3,18.6c-0.8-2-2-3.6-3.4-5l0.8-0.8c1.6,1.6,2.8,3.4,3.6,5.4L62.3,18.6z M36.7,13.6l-0.8-0.8
		c1.6-1.6,3.4-2.8,5.4-3.6l0.4,1C39.9,11,38.3,12.2,36.7,13.6z M53.9,10.2c-1.8-0.8-3.8-1.2-6-1.2V8.4V8c2.2,0,4.4,0.4,6.4,1.2
		L53.9,10.2z"/>
</g>
</svg>
