<?xml version="1.0" encoding="utf-8"?>
<!-- Generator: Adobe Illustrator 17.1.0, SVG Export Plug-In . SVG Version: 6.00 Build 0)  -->
<!DOCTYPE svg PUBLIC "-//W3C//DTD SVG 1.1//EN" "http://www.w3.org/Graphics/SVG/1.1/DTD/svg11.dtd">
<svg version="1.1" id="Layer_1" xmlns="http://www.w3.org/2000/svg" xmlns:xlink="http://www.w3.org/1999/xlink" x="0px" y="0px"
	 viewBox="0 0 75 75" enable-background="new 0 0 75 75" width="200" height="200" xml:space="preserve">
<g>
	<rect x="16.5" y="16.6" fill="#FFFFFF" width="46.3" height="45.2"/>
	<rect x="16.5" y="12" fill="#91D3D9" width="46.3" height="2.3"/>
	<rect x="16.5" y="14.3" fill="#E6E5E5" width="46.3" height="2.3"/>
	<rect x="20.5" y="15" fill="#FFFFFF" width="38.2" height="0.9"/>
	<rect x="16.5" y="13.1" fill="#F68360" width="4" height="1.2"/>
	<rect x="20.5" y="13.1" fill="#E6E5E5" width="9.6" height="1.2"/>
	<g>
		<g>
			<rect x="18.8" y="15" fill="#CCCBCA" width="0.9" height="0.9"/>
			<rect x="17.3" y="15" fill="#CCCBCA" width="0.9" height="0.9"/>
			<rect x="61.1" y="15" fill="#CCCBCA" width="0.9" height="0.9"/>
			<rect x="59.6" y="15" fill="#CCCBCA" width="0.9" height="0.9"/>
		</g>
	</g>
	<rect x="28.6" y="18.7" fill="#CCCBCA" width="22.2" height="2.9"/>
	<rect x="28.6" y="2.2" fill="#FF9978" width="22.2" height="2.9"/>
	<rect x="16.5" y="27.3" fill="#C4EDF1" width="46.3" height="14"/>
	<g>
		<g>
			<rect x="21.8" y="23.6" fill="#91D3D9" width="7.3" height="1.1"/>
			<rect x="31.3" y="23.6" fill="#91D3D9" width="7.3" height="1.1"/>
			<rect x="40.7" y="23.6" fill="#91D3D9" width="7.3" height="1.1"/>
			<rect x="50.2" y="23.6" fill="#91D3D9" width="7.3" height="1.1"/>
		</g>
	</g>
	<g>
		<rect x="22.5" y="29.7" fill="#91D3D9" width="9.1" height="9.1"/>
		<g>
			<rect x="35.7" y="29.7" fill="#91D3D9" width="21.1" height="1.5"/>
			<rect x="35.7" y="32.4" fill="#FFFFFF" width="21.1" height="0.4"/>
			<rect x="35.7" y="33.7" fill="#FFFFFF" width="21.1" height="0.4"/>
			<rect x="40.6" y="35" fill="#FFFFFF" width="11.3" height="0.4"/>
		</g>
	</g>
	<g>
		<rect x="2" y="43.8" fill="#FF9978" width="9.1" height="9.1"/>
		<g>
			<rect x="3.5" y="45.4" fill="#ED6D47" width="5.9" height="1"/>
			<rect x="3.5" y="47.1" fill="#FFFFFF" width="5.9" height="0.3"/>
			<rect x="3.5" y="48.1" fill="#FFFFFF" width="5.9" height="0.3"/>
			<rect x="3.5" y="49.1" fill="#FFFFFF" width="3" height="0.3"/>
		</g>
	</g>
	<g>
		<rect x="22.5" y="54.2" fill="#FFC86D" width="9.1" height="0.5"/>
		<rect x="22.5" y="55.6" fill="#CCCBCA" width="9.1" height="0.5"/>
		<rect x="22.5" y="56.9" fill="#CCCBCA" width="4.7" height="0.5"/>
	</g>
	<g>
		<rect x="35.1" y="54.2" fill="#FFC86D" width="9.1" height="0.5"/>
		<rect x="35.1" y="55.6" fill="#CCCBCA" width="9.1" height="0.5"/>
		<rect x="35.1" y="56.9" fill="#CCCBCA" width="4.7" height="0.5"/>
	</g>
	<g>
		<rect x="47.7" y="54.2" fill="#FFC86D" width="9.1" height="0.5"/>
		<rect x="47.7" y="55.6" fill="#CCCBCA" width="9.1" height="0.5"/>
		<rect x="47.7" y="56.9" fill="#CCCBCA" width="4.7" height="0.5"/>
	</g>
	<rect x="22.5" y="43.8" fill="#CCCBCA" width="9.1" height="9.1"/>
	<g>
		<rect x="47.7" y="43.8" fill="#FFC86D" width="9.1" height="9.1"/>
		<g>
			<g>

					<rect x="52.2" y="41.9" transform="matrix(0.7084 0.7058 -0.7058 0.7084 49.3449 -22.7928)" fill="#FFB959" width="0.1" height="12.9"/>

					<rect x="45.8" y="48.3" transform="matrix(0.7071 0.7071 -0.7071 0.7071 49.4804 -22.7982)" fill="#FFB959" width="12.9" height="0.1"/>
				<path fill="#FFB959" d="M56.9,52.9h-9.2v-9.2h9.2V52.9z M47.8,52.8h9v-9h-9V52.8z"/>
			</g>
		</g>
	</g>
	<g>
		<rect x="35.1" y="43.8" fill="#ABE0E5" width="9.1" height="9.1"/>
		<g>
			<g>

					<rect x="39.6" y="41.9" transform="matrix(0.7084 0.7058 -0.7058 0.7084 45.677 -13.9045)" fill="#91D3D9" width="0.1" height="12.9"/>

					<rect x="33.2" y="48.3" transform="matrix(0.7071 0.7071 -0.7071 0.7071 45.7901 -13.8935)" fill="#91D3D9" width="12.9" height="0.1"/>
				<path fill="#91D3D9" d="M44.3,52.9h-9.2v-9.2h9.2V52.9z M35.2,52.8h9v-9h-9V52.8z"/>
			</g>
		</g>
	</g>
	<g>
		<g>
			<rect x="24" y="31.2" fill="#C4EDF1" width="0.6" height="0.6"/>
			<rect x="25.1" y="31.2" fill="#FFFFFF" width="5.1" height="0.6"/>
		</g>
		<g>
			<rect x="24" y="32.7" fill="#C4EDF1" width="0.6" height="0.6"/>
			<rect x="25.1" y="32.7" fill="#FFFFFF" width="5.1" height="0.6"/>
		</g>
	</g>
	<g>
		<rect x="28.5" y="18.1" fill="#474F59" width="0.2" height="0.5"/>
		<path fill="#474F59" d="M28.6,17h-0.2v-1.1h0.2V17z M28.6,14.7h-0.2v-1.1h0.2V14.7z M28.6,12.5h-0.2v-1.1h0.2V12.5z M28.6,10.2
			h-0.2V9.1h0.2V10.2z M28.6,8h-0.2V6.8h0.2V8z"/>
		<rect x="28.5" y="5.1" fill="#474F59" width="0.2" height="0.5"/>
	</g>
	<g>
		<rect x="50.7" y="5.1" fill="#474F59" width="0.2" height="0.5"/>
		<path fill="#474F59" d="M50.8,17h-0.2v-1.1h0.2V17z M50.8,14.7h-0.2v-1.1h0.2V14.7z M50.8,12.5h-0.2v-1.1h0.2V12.5z M50.8,10.2
			h-0.2V9.1h0.2V10.2z M50.8,8h-0.2V6.8h0.2V8z"/>
		<rect x="50.7" y="18.1" fill="#474F59" width="0.2" height="0.5"/>
	</g>
	<path fill="#474F59" d="M22.5,43.9h-0.7v-0.2h0.7V43.9z M20.8,43.9h-1.1v-0.2h1.1V43.9z M18.6,43.9h-1.1v-0.2h1.1V43.9z M16.5,43.9
		h-1.1v-0.2h1.1V43.9z M14.3,43.9h-1.1v-0.2h1.1V43.9z M12.1,43.9h-1.1v-0.2h1.1V43.9z"/>
	<path fill="#474F59" d="M22.5,53h-0.7v-0.2h0.7V53z M20.8,53h-1.1v-0.2h1.1V53z M18.6,53h-1.1v-0.2h1.1V53z M16.5,53h-1.1v-0.2h1.1
		V53z M14.3,53h-1.1v-0.2h1.1V53z M12.1,53h-1.1v-0.2h1.1V53z"/>
</g>
<g>
	<g>
		<rect x="28.6" y="42.5" fill="#FFFFFF" width="43.1" height="27.3"/>
		<rect x="28.6" y="38.2" fill="#91D3D9" width="43.1" height="2.2"/>
		<rect x="28.6" y="40.4" fill="#E6E5E5" width="43.1" height="2.2"/>
		<rect x="32.4" y="41" fill="#FFFFFF" width="35.6" height="0.9"/>
		<rect x="28.6" y="39.3" fill="#F68360" width="3.7" height="1.1"/>
		<rect x="32.4" y="39.3" fill="#E6E5E5" width="8.9" height="1.1"/>
		<g>
			<g>
				<rect x="30.8" y="41" fill="#CCCBCA" width="0.9" height="0.9"/>
				<rect x="29.4" y="41" fill="#CCCBCA" width="0.9" height="0.9"/>
				<rect x="70.1" y="41" fill="#CCCBCA" width="0.9" height="0.9"/>
				<rect x="68.8" y="41" fill="#CCCBCA" width="0.9" height="0.9"/>
			</g>
		</g>
	</g>
	<g>
		<g>
			<g>
				<rect x="33.2" y="44.8" fill="#FF9978" width="16.1" height="10.2"/>
			</g>
			<g>
				<g>
					<g>
						<path fill="#474F59" d="M41.2,47.1c-1.6,0-2.9,1.3-2.9,2.9s1.3,2.9,2.9,2.9c1.6,0,2.9-1.3,2.9-2.9S42.8,47.1,41.2,47.1z
							 M41.2,50.6c-0.4,0-0.6-0.3-0.6-0.6s0.3-0.6,0.6-0.6c0.4,0,0.6,0.3,0.6,0.6S41.6,50.6,41.2,50.6z"/>
						<g>
							<rect x="40.9" y="46.5" fill="#474F59" width="0.8" height="0.6"/>

								<rect x="39.3" y="46.9" transform="matrix(0.866 -0.5001 0.5001 0.866 -18.3083 26.1838)" fill="#474F59" width="0.8" height="0.6"/>

								<rect x="38.2" y="48.1" transform="matrix(0.5006 -0.8657 0.8657 0.5006 -22.6273 57.546)" fill="#474F59" width="0.8" height="0.6"/>
							<rect x="37.8" y="49.6" fill="#474F59" width="0.6" height="0.8"/>

								<rect x="38.2" y="51.2" transform="matrix(-0.5008 -0.8656 0.8656 -0.5008 13.3101 110.6432)" fill="#474F59" width="0.8" height="0.6"/>

								<rect x="39.3" y="52.3" transform="matrix(-0.8666 -0.499 0.499 -0.8666 47.837 118.0245)" fill="#474F59" width="0.8" height="0.6"/>
							<rect x="40.9" y="52.7" fill="#474F59" width="0.8" height="0.6"/>

								<rect x="42.4" y="52.3" transform="matrix(-0.8657 0.5006 -0.5006 -0.8657 106.1847 76.7417)" fill="#474F59" width="0.8" height="0.6"/>

								<rect x="43.6" y="51.2" transform="matrix(-0.5004 0.8658 -0.8658 -0.5004 110.4847 39.2116)" fill="#474F59" width="0.8" height="0.6"/>
							<rect x="44" y="49.6" fill="#474F59" width="0.6" height="0.8"/>

								<rect x="43.6" y="48.1" transform="matrix(0.5006 0.8657 -0.8657 0.5006 63.8235 -13.8652)" fill="#474F59" width="0.8" height="0.6"/>

								<rect x="42.4" y="46.9" transform="matrix(0.865 0.5017 -0.5017 0.865 29.4802 -15.093)" fill="#474F59" width="0.8" height="0.6"/>
						</g>
					</g>
				</g>
				<path fill="#FFFFFF" d="M41.2,48.5c-0.8,0-1.4,0.6-1.4,1.4c0,0.8,0.6,1.4,1.4,1.4c0.8,0,1.4-0.6,1.4-1.4
					C42.7,49.2,42,48.5,41.2,48.5z M41.2,50.6c-0.4,0-0.6-0.3-0.6-0.6c0-0.3,0.3-0.6,0.6-0.6c0.3,0,0.6,0.3,0.6,0.6
					C41.9,50.3,41.6,50.6,41.2,50.6z"/>
			</g>
			<rect x="33.2" y="56.9" fill="#FFD680" width="16.1" height="3.6"/>
			<rect x="51.1" y="56.9" fill="#FFD680" width="16.1" height="3.6"/>
			<g>
				<g>
					<rect x="51.6" y="44.8" fill="#CCCBCA" width="15.6" height="0.8"/>
					<rect x="51.6" y="46.8" fill="#CCCBCA" width="15.6" height="0.8"/>
					<rect x="51.6" y="48.7" fill="#CCCBCA" width="5.1" height="0.8"/>
				</g>
			</g>
			<g>
				<rect x="33.2" y="62.3" fill="#474F59" width="34" height="0.8"/>
				<rect x="33.2" y="64.2" fill="#CCCBCA" width="34" height="0.8"/>
				<rect x="33.2" y="66.2" fill="#CCCBCA" width="17" height="0.8"/>
			</g>
		</g>
	</g>
</g>
</svg>
