<?xml version="1.0" encoding="utf-8"?>
<!-- Generator: Adobe Illustrator 18.1.1, SVG Export Plug-In . SVG Version: 6.00 Build 0)  -->
<svg version="1.1" id="art-direction" xmlns="http://www.w3.org/2000/svg" xmlns:xlink="http://www.w3.org/1999/xlink" x="0px"
	 y="0px" viewBox="0 0 75 75" style="enable-background:new 0 0 75 75;" xml:space="preserve">
	<style type="text/css">
	.st0{fill:#FFFFFF;stroke:#0698CF;stroke-width:2;stroke-miterlimit:10;}
	.st1{fill:none;stroke:#0698CF;stroke-width:2;stroke-linecap:round;stroke-linejoin:round;stroke-miterlimit:10;}
	.st2{fill:#FFFFFF;}
	.st3{fill:#0698CF;}
</style>
<circle id="outer-circle" class="st0" cx="37.5" cy="38.1" r="35.2"/>
<circle id="inner-circle" class="st0" cx="37.5" cy="38.6" r="28.6"/>
<g id="dial-4">
	<g>
		<polygon class="st1" points="61.4,38.6 37.3,34.4 13.2,38.6 37.3,42.8 		"/>
		<polygon class="st2" points="61.4,38.6 37.3,34.4 13.2,38.6 37.3,42.8 		"/>
	</g>
	<line class="st1" x1="37.5" y1="34" x2="37.5" y2="42.5"/>
</g>
<g id="dial-3">
	<g>
		<polygon class="st1" points="54.4,55.7 40.3,35.6 20.3,21.6 34.3,41.6 		"/>
		<polygon class="st2" points="54.4,55.7 40.3,35.6 20.3,21.6 34.3,41.6 		"/>
	</g>
	<line class="st1" x1="40.5" y1="35.1" x2="34.5" y2="41.1"/>
</g>
<g id="dial-2">
	<g>
		<polygon class="st1" points="20.3,55.7 40.3,41.6 54.4,21.6 34.3,35.6 		"/>
		<polygon class="st2" points="20.3,55.7 40.3,41.6 54.4,21.6 34.3,35.6 		"/>
	</g>
	<line class="st1" x1="40.5" y1="41.1" x2="34.5" y2="35.1"/>
</g>
<g id="dial-1">
	<g>
		<polygon class="st1" points="37.3,14.5 33.1,38.6 37.3,62.7 41.5,38.6 		"/>
		<polygon class="st2" points="37.3,14.5 33.1,38.6 37.3,62.7 41.5,38.6 		"/>
	</g>
</g>
<circle id="dial" class="st3" cx="37.4" cy="38.4" r="2.5"/>
</svg>
