<?xml version="1.0" encoding="utf-8"?>
<?xml-stylesheet href="../css/app.css" type="text/css"?>
<!-- Generator: Adobe Illustrator 18.1.1, SVG Export Plug-In . SVG Version: 6.00 Build 0)  -->
<svg version="1.1" id="behance" xmlns="http://www.w3.org/2000/svg" xmlns:xlink="http://www.w3.org/1999/xlink" x="0px" y="0px"
	 viewBox="0 0 150 150" style="enable-background:new 0 0 150 150;" xml:space="preserve">
<g id="behance-icon">
	<rect class="social__link--behance" width="150" height="150"/>
	<path class="social__link--fill" d="M75,105.6c-2,3.6-4,6-7,8s-6.4,3.6-10,4.4c-4,1-7.6,1.6-11.6,1.6H2v-90h42.4c4.4,0,8,0.4,11.6,1s6.4,2,9,3.6
		s4.4,4,6,7s2,6.4,2,10.4c0,4.4-1,8.4-3,11.6s-5,5.6-9,7.6c5.6,1.6,9.6,4.4,12.4,8.4c2.4,4,4,9,4,14.4C77.6,98,76.4,102,75,105.6z"
		/>
	<path class="social__link--fill" d="M147.6,91h-47.2c0.4,5,2,10,5,12.4c2.4,2.4,6.4,4,11.6,4c3.6,0,6.4-1,9.6-2.4c2.4-2,4-3.6,5-6h15.6
		c-2.4,8-6.4,13.6-11.6,17s-11.6,5-19,5c-5,0-9.6-1-14-2.4c-4-1.6-7.6-4-10.4-7s-5-6.4-6.4-11c-1.6-4-2.4-9-2.4-14s1-9.6,2.4-13.6
		s4-8,7-11s6.4-5.6,10.4-7c4-2,8.4-2.4,13.6-2.4c5.6,0,10.4,1,14.4,3c4,2,7.6,5,10,8.4s4.4,7.6,5.6,12.4C147.6,81,148,86,147.6,91z"
		/>
	<path class="social__link--behance" d="M50.4,63c2.4-1.6,3.6-4.4,3.6-8c0-2-0.4-4-1-5c-1-1.6-2-2.4-3-3c-1.6-1-3-1.6-4.4-2s-3.6-0.4-5-0.4H22v21h20
		C45.6,65.6,48.4,64.4,50.4,63z"/>
	<path class="social__link--behance" d="M116,66c-3,0-5,0.4-7,1.6s-3.6,2-4.4,3.6s-2,3-2.4,4.4s-0.4,3-1,4.4H130c-0.4-5-2-8.4-4-10.4
		C124,67,120.4,66,116,66z"/>
	<path class="social__link--behance" d="M53,81.6c-2.4-2-6-3-10.4-3H22V103h21v0.4c2,0,4,0,5.6-0.4c2-0.4,3.6-1,4.4-2c1.6-1,2.4-2,3-3.6
		c1-1.6,1-3.6,1-6C57,87,55.6,83.6,53,81.6z"/>
	<rect x="97.6" y="35.6" class="social__link--fill" width="36.4" height="9"/>
</g>
</svg>
