<svg xmlns="http://www.w3.org/2000/svg" xmlns:xlink="http://www.w3.org/1999/xlink" version="1.1" id="Layer_1" x="0" y="0" viewBox="0 0 75 75" xml:space="preserve" enable-background="new 0 0 75 75">
  <style type="text/css">
    
	.st0{fill:#0698CF;}
	.st1{fill:#FFFFFF;}

  </style>
  <rect class="st0" width="75" height="75"/>
  <path class="st1" d="M22.2 14.8c2.2 0 4 0.2 5.8 0.5s3.2 1 4.5 1.8 2.2 2 3 3.5 1 3.2 1 5.2c0 2.2-0.5 4.2-1.5 5.8 -1 1.5-2.5 2.8-4.5 3.8 2.8 0.8 4.8 2.2 6.2 4.2 1.2 2 2 4.5 2 7.2 0 2.2-0.5 4.3-1.2 6 -1 1.8-2 3-3.5 4 -1.5 1-3.3 1.8-5 2.2 -2 0.5-3.8 0.7-5.8 0.7H1v-45H22.2zM21 32.8c1.7 0 3.2-0.5 4.2-1.2 1.2-0.8 1.8-2.2 1.8-4 0-1-0.3-2-0.5-2.5 -0.5-0.8-1-1.2-1.5-1.5 -0.7-0.5-1.5-0.8-2.2-1s-1.7-0.2-2.5-0.2H11v10.5C11 32.8 21 32.8 21 32.8zM21.5 51.8c1 0 2 0 2.8-0.2 1-0.2 1.8-0.5 2.2-1 0.8-0.5 1.2-1 1.5-1.8 0.5-0.8 0.5-1.8 0.5-3 0-2.2-0.8-4-2-5 -1.2-1-3-1.5-5.2-1.5H11v12.2h10.5V51.8z"/>
  <path class="st1" d="M52.8 51.8c1.2 1.2 3.2 2 5.8 2 1.8 0 3.2-0.5 4.8-1.2 1.2-1 2-1.8 2.5-3h7.8c-1.2 4-3.2 6.8-5.8 8.5 -2.5 1.8-5.7 2.5-9.5 2.5 -2.5 0-4.8-0.5-7-1.2 -2-0.7-3.8-2-5.2-3.5 -1.5-1.5-2.5-3.2-3.2-5.5 -0.8-2-1.2-4.5-1.2-7s0.5-4.8 1.2-6.8c0.7-2 2-4 3.5-5.5 1.5-1.5 3.2-2.8 5.3-3.5 2-1 4.2-1.2 6.8-1.2 2.8 0 5.2 0.5 7.2 1.5s3.8 2.5 5 4.2 2.2 3.8 2.8 6.2c0.5 2.2 0.8 4.8 0.5 7.2H50.3C50.5 48 51.2 50.5 52.8 51.8zM63 34.8c-1-1.2-2.8-1.8-5-1.8 -1.5 0-2.5 0.2-3.5 0.8 -1 0.5-1.8 1-2.2 1.8 -0.5 0.8-1 1.5-1.2 2.2s-0.2 1.5-0.5 2.2H65C64.8 37.5 64 35.8 63 34.8z"/>
  <rect x="48.8" y="17.8" class="st1" width="18.2" height="4.5"/>
</svg>
