<?xml version="1.0" encoding="utf-8"?>
<!-- Generator: Adobe Illustrator 18.1.1, SVG Export Plug-In . SVG Version: 6.00 Build 0)  -->
<svg version="1.1" id="behance" xmlns="http://www.w3.org/2000/svg" xmlns:xlink="http://www.w3.org/1999/xlink" x="0px" y="0px"
	 viewBox="0 0 75 75" style="enable-background:new 0 0 75 75;" xml:space="preserve">
<style type="text/css">
	.st0{fill:#0698CF;}
</style>
<g id="behance-icon">
	<path class="st0" d="M25.2,31.5c1.2-0.8,1.8-2.2,1.8-4c0-1-0.2-2-0.5-2.5c-0.5-0.8-1-1.2-1.5-1.5c-0.8-0.5-1.5-0.8-2.2-1
		s-1.8-0.2-2.5-0.2H11v10.5h10C22.8,32.8,24.2,32.2,25.2,31.5z"/>
	<path class="st0" d="M58,33c-1.5,0-2.5,0.2-3.5,0.8s-1.8,1-2.2,1.8s-1,1.5-1.2,2.2s-0.2,1.5-0.5,2.2H65c-0.2-2.5-1-4.2-2-5.2
		C62,33.5,60.2,33,58,33z"/>
	<path class="st0" d="M26.5,40.8c-1.2-1-3-1.5-5.2-1.5H11v12.2h10.5v0.2c1,0,2,0,2.8-0.2c1-0.2,1.8-0.5,2.2-1c0.8-0.5,1.2-1,1.5-1.8
		c0.5-0.8,0.5-1.8,0.5-3C28.5,43.5,27.8,41.8,26.5,40.8z"/>
	<path class="st0" d="M0,0v75h75V0H0z M48.8,17.8H67v4.5H48.8V17.8z M37.5,52.8c-1,1.8-2,3-3.5,4s-3.2,1.8-5,2.2
		c-2,0.5-3.8,0.8-5.8,0.8H1v-45h21.2c2.2,0,4,0.2,5.8,0.5s3.2,1,4.5,1.8s2.2,2,3,3.5s1,3.2,1,5.2c0,2.2-0.5,4.2-1.5,5.8
		s-2.5,2.8-4.5,3.8c2.8,0.8,4.8,2.2,6.2,4.2c1.2,2,2,4.5,2,7.2C38.8,49,38.2,51,37.5,52.8z M73.8,45.5H50.2c0.2,2.5,1,5,2.5,6.2
		c1.2,1.2,3.2,2,5.8,2c1.8,0,3.2-0.5,4.8-1.2c1.2-1,2-1.8,2.5-3h7.8c-1.2,4-3.2,6.8-5.8,8.5s-5.8,2.5-9.5,2.5c-2.5,0-4.8-0.5-7-1.2
		c-2-0.8-3.8-2-5.2-3.5s-2.5-3.2-3.2-5.5c-0.8-2-1.2-4.5-1.2-7s0.5-4.8,1.2-6.8s2-4,3.5-5.5s3.2-2.8,5.2-3.5c2-1,4.2-1.2,6.8-1.2
		c2.8,0,5.2,0.5,7.2,1.5s3.8,2.5,5,4.2s2.2,3.8,2.8,6.2C73.8,40.5,74,43,73.8,45.5z"/>
</g>
</svg>
