<?xml version="1.0" encoding="utf-8"?>
<!-- Generator: Adobe Illustrator 18.1.1, SVG Export Plug-In . SVG Version: 6.00 Build 0)  -->
<svg version="1.1" id="branding" xmlns="http://www.w3.org/2000/svg" xmlns:xlink="http://www.w3.org/1999/xlink" x="0px" y="0px"
	 viewBox="0 0 75 75" style="enable-background:new 0 0 75 75;" xml:space="preserve">
<style type="text/css">
	.st0{fill:none;stroke:#0698CF;stroke-width:2;stroke-miterlimit:10;}
	.st1{fill:#FFFFFF;}
	.st2{fill:none;stroke:#0698CF;stroke-width:1.7982;stroke-miterlimit:10;}
	.st3{fill:none;stroke:#0698CF;stroke-linecap:round;stroke-linejoin:round;stroke-miterlimit:10;}
	.st4{fill:#FFFFFF;stroke:#0698CF;stroke-miterlimit:10;}
	.st5{fill:none;stroke:#0698CF;stroke-miterlimit:10;}
	.st6{fill:none;stroke:#0698CF;stroke-width:2;stroke-linecap:round;stroke-linejoin:round;stroke-miterlimit:10;}
</style>
<g id="paper">
	<rect x="6.2" y="9.2" class="st0" width="40.8" height="60.2"/>
	<rect x="6.2" y="9.2" class="st1" width="40.8" height="60.2"/>
</g>
<g id="envelope-2">
	<rect x="45.8" y="39.4" class="st2" width="23.2" height="9.4"/>
	<rect x="45.8" y="39.4" class="st1" width="23.2" height="9.4"/>
</g>
<g id="envelope-1">
	<g>
		<rect x="48.5" y="35.5" class="st2" width="23.2" height="9.4"/>
		<rect x="48.5" y="35.5" class="st1" width="23.2" height="9.4"/>
	</g>
	<line class="st3" x1="50" y1="38.5" x2="58" y2="38.5"/>
	<line class="st3" x1="50" y1="40.5" x2="62" y2="40.5"/>
	<path class="st4" d="M67.7,39.5c-0.2,0-0.4-0.4-0.5-0.6l-0.3-1.2c-0.1-0.2,0-0.5,0.2-0.7l0.9-0.7c0.2-0.1,0.5-0.1,0.6,0l0.9,0.6
		c0.2,0.1,0.3,0.4,0.2,0.6l-0.3,1.3c-0.1,0.2-0.3,0.6-0.5,0.6H67.7z"/>
</g>
<path id="big-logo" class="st5" d="M58.1,30.5c-1.2,0-2.6-1.5-3-2.7l-2-6.4c-0.4-1.2,0.1-2.9,1.1-3.6l5.1-3.8c1-0.7,2.6-0.8,3.6,0
	l5.1,3.8c1,0.7,1.5,2.3,1.1,3.5l-1.9,6.6c-0.4,1.2-1.7,2.7-3,2.7H58.1z"/>
<g id="copy-lines">
	<line class="st3" x1="8" y1="27.5" x2="43" y2="27.5"/>
	<line class="st3" x1="8" y1="31.5" x2="43" y2="31.5"/>
	<line class="st3" x1="8" y1="35.5" x2="43" y2="35.5"/>
	<line class="st3" x1="8" y1="39.5" x2="43" y2="39.5"/>
	<line class="st3" x1="8" y1="43.5" x2="43" y2="43.5"/>
	<line class="st3" x1="8" y1="47.5" x2="43" y2="47.5"/>
	<line class="st3" x1="8" y1="51.5" x2="43" y2="51.5"/>
	<line class="st3" x1="8" y1="55.5" x2="43" y2="55.5"/>
</g>
<line id="bottom-line" class="st6" x1="19" y1="18" x2="35" y2="18"/>
<line id="top-line" class="st6" x1="19" y1="14" x2="42" y2="14"/>
<path id="small-logo" class="st5" d="M10.6,20.5c-0.6,0-1.3-0.9-1.5-1.5l-1-3.4C7.9,15,8.2,14,8.7,13.6l2.6-2c0.5-0.4,1.4-0.4,1.9,0
	l2.6,2c0.5,0.4,0.8,1.2,0.6,1.8l-1,3.6c-0.2,0.6-0.9,1.5-1.5,1.5H10.6z"/>
</svg>
