<?xml version="1.0" encoding="utf-8"?>
<!-- Generator: Adobe Illustrator 17.1.0, SVG Export Plug-In . SVG Version: 6.00 Build 0)  -->
<!DOCTYPE svg PUBLIC "-//W3C//DTD SVG 1.1//EN" "http://www.w3.org/Graphics/SVG/1.1/DTD/svg11.dtd">
<svg version="1.1" id="Layer_1" xmlns="http://www.w3.org/2000/svg" xmlns:xlink="http://www.w3.org/1999/xlink" x="0px" y="0px"
	 viewBox="0 0 75 75" enable-background="new 0 0 75 75" width="200" height="200" xml:space="preserve">
<g>
	<rect x="2.3" y="3" fill="#FFFFFF" width="44.9" height="59.9"/>
</g>
<g>
	<g>
		<polygon fill="#08191E" points="50.2,44.4 2.3,44.4 26.3,56.3 		"/>
	</g>
	<g>
		<polygon fill="#FFCE35" points="26.3,56.3 2.3,44.4 2.3,68.3 50.2,68.3 50.2,44.4 		"/>
	</g>
</g>
<g>
	<rect x="29.3" y="14.4" fill="#FFCE35" width="44.8" height="8.2"/>
</g>
<g>
	<rect x="35.3" y="18.5" fill="#08191E" width="23.9" height="0.7"/>
</g>
<g>
	<rect x="35.3" y="15.9" fill="#FFFFFF" width="17.9" height="1.5"/>
</g>
<g>
	<rect x="35.3" y="23.8" fill="#FFFFFF" width="12" height="0.7"/>
</g>
<g>
	<rect x="2.3" y="29.4" fill="#FFFFFF" width="23.9" height="12"/>
</g>
<g>
	<circle fill="#08191E" cx="36.8" cy="11.4" r="1.5"/>
</g>
<g>
	<g>
		<rect x="2.3" y="34.4" fill="#FFCE35" width="23.9" height="4.1"/>
	</g>
	<g>
		<rect x="5.3" y="36.6" fill="#08191E" width="12" height="0.2"/>
	</g>
	<g>
		<rect x="5.3" y="35.2" fill="#FFFFFF" width="9" height="0.7"/>
	</g>
	<g>
		<circle fill="#08191E" cx="6.1" cy="32.9" r="0.7"/>
	</g>
	<g>
		<rect x="5.3" y="37.3" fill="#08191E" width="3" height="0.2"/>
	</g>
</g>
<g>
	<rect x="3" y="10" fill="#FFFFFF" width="13" height="9"/>
	<rect x="3" y="10" fill="#FFCE35" width="13" height="3"/>
	<line fill="none" stroke="#FFCE35" stroke-miterlimit="10" x1="3" y1="18.5" x2="16" y2="18.5"/>
	<g>
		<circle fill="#08191E" cx="4" cy="13.6" r="0.7"/>
	</g>
	<g>
		<rect x="5.3" y="13.1" fill="#08191E" width="7.1" height="0.7"/>
	</g>
	<g>
		<rect x="5.3" y="14.4" fill="#08191E" width="3.6" height="0.7"/>
	</g>
</g>
</svg>
