<?xml version="1.0" encoding="utf-8"?>
<!-- Generator: Adobe Illustrator 17.1.0, SVG Export Plug-In . SVG Version: 6.00 Build 0)  -->
<!DOCTYPE svg PUBLIC "-//W3C//DTD SVG 1.1//EN" "http://www.w3.org/Graphics/SVG/1.1/DTD/svg11.dtd">
<svg version="1.1" id="Layer_1" xmlns="http://www.w3.org/2000/svg" xmlns:xlink="http://www.w3.org/1999/xlink" x="0px" y="0px"
	 viewBox="0 0 75 75" enable-background="new 0 0 75 75" width="200" height="200" xml:space="preserve">
<g>
	<rect x="0.9" y="17" fill="#FFFFFF" width="73.6" height="48.9"/>
	<g>
		<rect x="4.7" y="25.4" fill="#CCCBCA" width="66" height="4.4"/>
		<rect x="6.4" y="27.1" fill="#FFFFFF" width="9.9" height="1.1"/>
		<rect x="17.9" y="25.4" fill="#474F59" width="13.2" height="4.4"/>
		<rect x="32.8" y="27.1" fill="#FFFFFF" width="9.9" height="1.1"/>
		<rect x="46" y="27.1" fill="#FFFFFF" width="9.9" height="1.1"/>
		<rect x="59.2" y="27.1" fill="#FFFFFF" width="9.9" height="1.1"/>
	</g>
	<g>
		<g>
			<g>

					<rect x="24.3" y="36.6" transform="matrix(0.5819 0.8133 -0.8133 0.5819 44.5543 -2.2326)" fill="#D9D8D7" width="0.4" height="11.3"/>

					<rect x="18.8" y="53.4" transform="matrix(0.8116 0.5842 -0.5842 0.8116 35.8827 -4.1969)" fill="#D9D8D7" width="11.3" height="0.4"/>
				<rect x="43" y="38.9" fill="#D9D8D7" width="8.8" height="0.4"/>
				<rect x="43" y="56.5" fill="#D9D8D7" width="8.8" height="0.4"/>
			</g>
		</g>
		<rect x="9.4" y="42.6" fill="#474F59" width="10.6" height="10.6"/>
		<rect x="28.9" y="35.5" fill="#F68360" width="14.2" height="7.1"/>
		<rect x="28.9" y="53.2" fill="#F68360" width="14.2" height="7.1"/>
		<rect x="51.9" y="35.5" fill="#F68360" width="14.2" height="7.1"/>
		<rect x="51.9" y="53.2" fill="#F68360" width="14.2" height="7.1"/>
		<g>
			<rect x="31.5" y="37.6" fill="#474F59" width="8.8" height="0.5"/>
			<rect x="31.5" y="38.8" fill="#FFFFFF" width="8.8" height="0.5"/>
			<rect x="31.5" y="40" fill="#FFFFFF" width="4.4" height="0.5"/>
		</g>
		<g>
			<rect x="31.5" y="55.3" fill="#474F59" width="8.8" height="0.5"/>
			<rect x="31.5" y="56.5" fill="#FFFFFF" width="8.8" height="0.5"/>
			<rect x="31.5" y="57.7" fill="#FFFFFF" width="4.4" height="0.5"/>
		</g>
		<g>
			<rect x="54.5" y="55.3" fill="#474F59" width="8.8" height="0.5"/>
			<rect x="54.5" y="56.5" fill="#FFFFFF" width="8.8" height="0.5"/>
			<rect x="54.5" y="57.7" fill="#FFFFFF" width="4.4" height="0.5"/>
		</g>
		<g>
			<rect x="54.5" y="37.6" fill="#474F59" width="8.8" height="0.5"/>
			<rect x="54.5" y="38.8" fill="#FFFFFF" width="8.8" height="0.5"/>
			<rect x="54.5" y="40" fill="#FFFFFF" width="4.4" height="0.5"/>
		</g>
		<g>
			<rect x="11" y="46.5" fill="#F68360" width="7.4" height="0.5"/>
			<rect x="11" y="47.6" fill="#FFFFFF" width="7.4" height="0.5"/>
			<rect x="11" y="48.8" fill="#FFFFFF" width="3.7" height="0.5"/>
		</g>
	</g>
	<rect x="0.9" y="17" fill="#A3D8D9" width="73.6" height="4.6"/>
</g>
</svg>
