<?xml version="1.0" encoding="utf-8"?>
<!-- Generator: Adobe Illustrator 18.1.1, SVG Export Plug-In . SVG Version: 6.00 Build 0)  -->
<svg version="1.1" id="cms" xmlns="http://www.w3.org/2000/svg" xmlns:xlink="http://www.w3.org/1999/xlink" x="0px" y="0px"
	 viewBox="0 0 75 75" style="enable-background:new 0 0 75 75;" xml:space="preserve">
<style type="text/css">
	.st0{fill:#FFFFFF;stroke:#0698CF;stroke-width:1.2006;stroke-miterlimit:10;}
	.st1{fill:#0698CF;}
	.st2{fill:none;stroke:#0698CF;stroke-linecap:round;stroke-linejoin:round;stroke-miterlimit:10;}
	.st3{fill:none;stroke:#0698CF;stroke-miterlimit:10;}
	.st4{fill:none;stroke:#0698CF;stroke-width:2;stroke-linecap:round;stroke-linejoin:round;stroke-miterlimit:10;}
	.st5{fill:none;stroke:#0698CF;stroke-width:0.5482;stroke-miterlimit:10;}
	.st6{fill:none;stroke:#0698CF;stroke-width:0.5482;stroke-miterlimit:10;stroke-dasharray:2.5919,2.5919;}
	.st7{fill:none;stroke:#0698CF;stroke-width:0.5482;stroke-miterlimit:10;stroke-dasharray:2.027,2.027;}
	.st8{fill:none;stroke:#0698CF;stroke-width:0.5;stroke-miterlimit:10;}
	.st9{fill:none;stroke:#0698CF;stroke-width:0.5;stroke-miterlimit:10;stroke-dasharray:1.8789,1.8789;}
	.st10{fill:none;stroke:#0698CF;stroke-width:0.5;stroke-miterlimit:10;stroke-dasharray:1.8533,1.8533;}
</style>
<g id="screen">
	<rect x="6.9" y="3.1" class="st0" width="58.8" height="69.7"/>
	<rect x="6.8" y="3.1" class="st1" width="58.8" height="5.4"/>
	<rect x="6.8" y="67.4" class="st1" width="58.8" height="5.4"/>
</g>
<polyline id="right-arrow" class="st2" points="60.4,48.4 63.3,51.3 60.4,54.2 "/>
<polyline id="left-arrow" class="st2" points="11.9,54.2 9,51.3 11.9,48.4 "/>
<g id="content-3">
	<rect x="46.1" y="45.2" class="st3" width="11.4" height="12"/>
	<path class="st1" d="M48.6,47.6v7.3h6.5v-7.3H48.6z M54.2,52.2h-4.9v-3.9h4.9V52.2z"/>
</g>
<g id="content-2">
	<rect x="30.6" y="45.2" class="st3" width="11.4" height="12"/>
	<path class="st1" d="M33,47.6v7.3h6.5v-7.3H33z M38.7,52.2h-4.9v-3.9h4.9V52.2z"/>
</g>
<g id="content-1">
	<rect x="14.4" y="45.2" class="st3" width="11.4" height="12"/>
	<path class="st1" d="M16.9,47.6v7.3h6.5v-7.3H16.9z M22.5,52.2h-4.9v-3.9h4.9V52.2z"/>
</g>
<line id="copy-line-2" class="st4" x1="10.4" y1="38.9" x2="61.1" y2="38.9"/>
<line id="copy-line-1" class="st4" x1="10.4" y1="33.5" x2="42.8" y2="33.5"/>
<g id="area-2">
	<g>
		<polyline class="st5" points="34.4,28.1 33.3,28.1 33.3,27 		"/>
		<line class="st6" x1="33.3" y1="24.4" x2="33.3" y2="15.3"/>
		<polyline class="st5" points="33.3,14 33.3,12.9 34.4,12.9 		"/>
		<line class="st7" x1="36.4" y1="12.9" x2="59.7" y2="12.9"/>
		<polyline class="st5" points="60.8,12.9 61.9,12.9 61.9,14 		"/>
		<line class="st6" x1="61.9" y1="16.6" x2="61.9" y2="25.7"/>
		<polyline class="st5" points="61.9,27 61.9,28.1 60.8,28.1 		"/>
		<line class="st7" x1="58.7" y1="28.1" x2="35.4" y2="28.1"/>
	</g>
</g>
<g id="area-1">
	<g>
		<polyline class="st8" points="11.4,28.1 10.4,28.1 10.4,27.1 		"/>
		<line class="st9" x1="10.4" y1="25.2" x2="10.4" y2="14.9"/>
		<polyline class="st8" points="10.4,13.9 10.4,12.9 11.4,12.9 		"/>
		<line class="st10" x1="13.3" y1="12.9" x2="27.2" y2="12.9"/>
		<polyline class="st8" points="28.1,12.9 29.1,12.9 29.1,13.9 		"/>
		<line class="st9" x1="29.1" y1="15.8" x2="29.1" y2="26.1"/>
		<polyline class="st8" points="29.1,27.1 29.1,28.1 28.1,28.1 		"/>
		<line class="st10" x1="26.3" y1="28.1" x2="12.4" y2="28.1"/>
	</g>
</g>
</svg>
