<?xml version="1.0" encoding="utf-8"?>
<!-- Generator: Adobe Illustrator 18.1.1, SVG Export Plug-In . SVG Version: 6.00 Build 0)  -->
<!DOCTYPE svg PUBLIC "-//W3C//DTD SVG 1.1//EN" "http://www.w3.org/Graphics/SVG/1.1/DTD/svg11.dtd">
<svg version="1.1" id="cms" xmlns="http://www.w3.org/2000/svg" xmlns:xlink="http://www.w3.org/1999/xlink" x="0px" y="0px"
	 viewBox="0 0 75 75" style="enable-background:new 0 0 75 75;" xml:space="preserve">
<style type="text/css">
	.st0{fill:#FFFFFF;stroke:#0698CF;stroke-width:1.2006;stroke-miterlimit:10;}
	.st1{fill:#0698CF;}
	.st2{fill:none;stroke:#0698CF;stroke-width:0.5;stroke-miterlimit:10;}
	.st3{fill:none;stroke:#0698CF;stroke-width:0.5;stroke-miterlimit:10;stroke-dasharray:1.7954,1.7954;}
	.st4{fill:none;stroke:#0698CF;stroke-width:0.5;stroke-miterlimit:10;stroke-dasharray:1.7733,1.7733;}
	.st5{fill:none;stroke:#0698CF;stroke-width:0.5482;stroke-miterlimit:10;}
	.st6{fill:none;stroke:#0698CF;stroke-width:0.5482;stroke-miterlimit:10;stroke-dasharray:2.475,2.475;}
	.st7{fill:none;stroke:#0698CF;stroke-width:0.5482;stroke-miterlimit:10;stroke-dasharray:2.2954,2.2954;}
	.st8{fill:none;stroke:#0698CF;stroke-width:0.75;stroke-miterlimit:10;}
	.st9{fill:none;stroke:#0698CF;stroke-width:0.2122;stroke-miterlimit:10;}
	.st10{fill:none;stroke:#0698CF;stroke-width:0.2122;stroke-miterlimit:10;stroke-dasharray:0.762,0.762;}
	.st11{fill:none;stroke:#0698CF;stroke-width:0.2122;stroke-miterlimit:10;stroke-dasharray:0.7526,0.7526;}
	.st12{fill:#FFFFFF;}
</style>
<rect x="8.3" y="3.1" class="st0" width="56.5" height="67"/>
<rect x="8.2" y="3.1" class="st1" width="56.5" height="5.2"/>
<rect x="8.2" y="64.9" class="st1" width="56.5" height="5.2"/>
<g>
	<g>
		<polyline class="st2" points="12.5,27.1 11.5,27.1 11.5,26.1 		"/>
		<line class="st3" x1="11.5" y1="24.3" x2="11.5" y2="14.5"/>
		<polyline class="st2" points="11.5,13.6 11.5,12.6 12.5,12.6 		"/>
		<line class="st4" x1="14.2" y1="12.6" x2="27.5" y2="12.6"/>
		<polyline class="st2" points="28.4,12.6 29.4,12.6 29.4,13.6 		"/>
		<line class="st3" x1="29.4" y1="15.3" x2="29.4" y2="25.2"/>
		<polyline class="st2" points="29.4,26.1 29.4,27.1 28.4,27.1 		"/>
		<line class="st4" x1="26.6" y1="27.1" x2="13.3" y2="27.1"/>
	</g>
</g>
<g>
	<g>
		<polyline class="st5" points="34.5,27.1 33.4,27.1 33.4,26 		"/>
		<line class="st6" x1="33.4" y1="23.5" x2="33.4" y2="14.9"/>
		<polyline class="st5" points="33.4,13.6 33.4,12.6 34.5,12.6 		"/>
		<line class="st7" x1="36.8" y1="12.6" x2="58.6" y2="12.6"/>
		<polyline class="st5" points="59.8,12.6 60.9,12.6 60.9,13.6 		"/>
		<line class="st6" x1="60.9" y1="16.1" x2="60.9" y2="24.8"/>
		<polyline class="st5" points="60.9,26 60.9,27.1 59.8,27.1 		"/>
		<line class="st7" x1="57.5" y1="27.1" x2="35.7" y2="27.1"/>
	</g>
</g>
<polyline class="st8" points="14,52.2 11.2,49.4 14,46.6 "/>
<polyline class="st8" points="58.1,46.6 60.9,49.4 58.1,52.2 "/>
<g>
	<g>
		<g>
			<polyline class="st9" points="17,52.5 16.5,52.5 16.5,52.1 			"/>
			<line class="st10" x1="16.5" y1="51.3" x2="16.5" y2="47.1"/>
			<polyline class="st9" points="16.5,46.8 16.5,46.3 17,46.3 			"/>
			<line class="st11" x1="17.7" y1="46.3" x2="23.3" y2="46.3"/>
			<polyline class="st9" points="23.7,46.3 24.1,46.3 24.1,46.8 			"/>
			<line class="st10" x1="24.1" y1="47.5" x2="24.1" y2="51.7"/>
			<polyline class="st9" points="24.1,52.1 24.1,52.5 23.7,52.5 			"/>
			<line class="st11" x1="23" y1="52.5" x2="17.3" y2="52.5"/>
		</g>
	</g>
	<rect x="18.2" y="46.9" class="st1" width="4.3" height="4.9"/>
	<rect x="18.7" y="47.4" class="st12" width="3.3" height="2.6"/>
</g>
<g>
	<g>
		<g>
			<polyline class="st9" points="27.6,52.5 27.2,52.5 27.2,52.1 			"/>
			<line class="st10" x1="27.2" y1="51.3" x2="27.2" y2="47.1"/>
			<polyline class="st9" points="27.2,46.8 27.2,46.3 27.6,46.3 			"/>
			<line class="st11" x1="28.3" y1="46.3" x2="34" y2="46.3"/>
			<polyline class="st9" points="34.4,46.3 34.8,46.3 34.8,46.8 			"/>
			<line class="st10" x1="34.8" y1="47.5" x2="34.8" y2="51.7"/>
			<polyline class="st9" points="34.8,52.1 34.8,52.5 34.4,52.5 			"/>
			<line class="st11" x1="33.6" y1="52.5" x2="28" y2="52.5"/>
		</g>
	</g>
	<rect x="28.8" y="46.9" class="st1" width="4.3" height="4.9"/>
	<rect x="29.3" y="47.4" class="st12" width="3.3" height="2.6"/>
</g>
<g>
	<g>
		<g>
			<polyline class="st9" points="38.2,52.5 37.8,52.5 37.8,52.1 			"/>
			<line class="st10" x1="37.8" y1="51.3" x2="37.8" y2="47.1"/>
			<polyline class="st9" points="37.8,46.8 37.8,46.3 38.2,46.3 			"/>
			<line class="st11" x1="39" y1="46.3" x2="44.6" y2="46.3"/>
			<polyline class="st9" points="45,46.3 45.4,46.3 45.4,46.8 			"/>
			<line class="st10" x1="45.4" y1="47.5" x2="45.4" y2="51.7"/>
			<polyline class="st9" points="45.4,52.1 45.4,52.5 45,52.5 			"/>
			<line class="st11" x1="44.3" y1="52.5" x2="38.6" y2="52.5"/>
		</g>
	</g>
	<rect x="39.4" y="46.9" class="st1" width="4.3" height="4.9"/>
	<rect x="40" y="47.4" class="st12" width="3.3" height="2.6"/>
</g>
<g>
	<g>
		<g>
			<polyline class="st9" points="48.9,52.5 48.4,52.5 48.4,52.1 			"/>
			<line class="st10" x1="48.4" y1="51.3" x2="48.4" y2="47.1"/>
			<polyline class="st9" points="48.4,46.8 48.4,46.3 48.9,46.3 			"/>
			<line class="st11" x1="49.6" y1="46.3" x2="55.3" y2="46.3"/>
			<polyline class="st9" points="55.6,46.3 56.1,46.3 56.1,46.8 			"/>
			<line class="st10" x1="56.1" y1="47.5" x2="56.1" y2="51.7"/>
			<polyline class="st9" points="56.1,52.1 56.1,52.5 55.6,52.5 			"/>
			<line class="st11" x1="54.9" y1="52.5" x2="49.2" y2="52.5"/>
		</g>
	</g>
	<rect x="50.1" y="46.9" class="st1" width="4.3" height="4.9"/>
	<rect x="50.6" y="47.4" class="st12" width="3.3" height="2.6"/>
</g>
<rect x="11.5" y="30.6" class="st1" width="28.5" height="3"/>
<rect x="11.5" y="35.1" class="st1" width="42" height="3"/>
</svg>
