<?xml version="1.0" encoding="utf-8"?>
<!-- Generator: Adobe Illustrator 17.1.0, SVG Export Plug-In . SVG Version: 6.00 Build 0)  -->
<!DOCTYPE svg PUBLIC "-//W3C//DTD SVG 1.1//EN" "http://www.w3.org/Graphics/SVG/1.1/DTD/svg11.dtd">
<svg version="1.1" id="Layer_1" xmlns="http://www.w3.org/2000/svg" xmlns:xlink="http://www.w3.org/1999/xlink" x="0px" y="0px"
	 viewBox="199.7 222.6 100 52.2" enable-background="new 199.7 222.6 100 52.2" xml:space="preserve">
<g>
	<g>
		<rect x="199.7" y="222.6" fill="#D3D2D3" width="100" height="52.2"/>
		<g>
			<rect x="212.8" y="226.9" fill="#FFFFFF" width="65.2" height="44.5"/>
			<rect x="225.4" y="238.1" fill="#FF642F" width="23.2" height="23.2"/>
			<circle fill="#08191E" cx="248.7" cy="255.5" r="10.1"/>
			<polygon fill="#FFCE35" points="266.1,256.3 254.5,256.3 260.3,244.7 			"/>
			<rect x="212.8" y="226.9" fill="#08191E" width="65.2" height="4.3"/>
		</g>
		<g>
			<rect x="201.8" y="229" fill="#FFFFFF" width="8.6" height="17.4"/>
			<rect x="201.8" y="246.5" fill="#FFFFFF" width="8.6" height="17.4"/>
			<rect x="201.8" y="226.9" fill="#08191E" width="8.6" height="2.2"/>
			<g>
				<rect x="206.1" y="229" fill="#D3D2D3" width="0.3" height="34.8"/>
			</g>
			<g>
				<g>
					<g>
						<rect x="201.8" y="259.4" fill="#D3D2D3" width="8.6" height="0.3"/>
					</g>
				</g>
				<g>
					<g>
						<rect x="201.8" y="255.1" fill="#D3D2D3" width="8.6" height="0.3"/>
					</g>
				</g>
				<g>
					<g>
						<rect x="201.8" y="250.6" fill="#D3D2D3" width="8.6" height="0.3"/>
					</g>
				</g>
				<g>
					<g>
						<rect x="201.8" y="246.3" fill="#D3D2D3" width="8.6" height="0.3"/>
					</g>
				</g>
				<g>
					<g>
						<rect x="201.8" y="242" fill="#D3D2D3" width="8.6" height="0.3"/>
					</g>
				</g>
				<g>
					<g>
						<rect x="201.8" y="237.7" fill="#D3D2D3" width="8.6" height="0.3"/>
					</g>
				</g>
				<g>
					<g>
						<rect x="201.8" y="233.2" fill="#D3D2D3" width="8.6" height="0.3"/>
					</g>
				</g>
				<g>
					<path fill="#D3D2D3" d="M209.7,241.2h-2.4v-2.4h2.4V241.2z M207.5,240.9h1.9V239h-1.9V240.9z"/>
				</g>
				<g>
					<path fill="#D3D2D3" d="M205.3,254.1h-2.4v-2.4h2.4V254.1z M203.2,253.9h1.9V252h-1.9V253.9z"/>
				</g>
				<g>
					<path fill="#D3D2D3" d="M209.7,232.4h-2.4V230h2.4V232.4z M207.5,232.2h1.9v-1.9h-1.9V232.2z"/>
				</g>
				<g>
					<rect x="208.3" y="230.1" fill="#D3D2D3" width="0.3" height="2.2"/>
				</g>
				<g>
					<rect x="203" y="234.4" fill="#D3D2D3" width="2.2" height="2.2"/>
					<path fill="#D3D2D3" d="M205.3,236.9h-2.4v-2.4h2.4V236.9z M203.2,236.6h1.9v-1.9h-1.9V236.6z"/>
				</g>
				<g>
					
						<rect x="208.3" y="234.5" transform="matrix(-0.7071 -0.7071 0.7071 -0.7071 189.3267 549.5502)" fill="#D3D2D3" width="0.3" height="2.2"/>
				</g>
				<g>
					<path fill="#D3D2D3" d="M205.3,249.3h-2.4v-1.3h2.4V249.3z M203.2,249h1.9v-0.8h-1.9V249z"/>
				</g>
				<g>
					<rect x="204" y="238.9" fill="#D3D2D3" width="0.3" height="2.2"/>
				</g>
				<g>
					<rect x="203" y="243.8" fill="#D3D2D3" width="1.1" height="1.1"/>
					<path fill="#D3D2D3" d="M204.3,245h-1.3v-1.3h1.3V245z M203.2,244.7h0.8v-0.8h-0.8V244.7z"/>
				</g>
				<g>
					<rect x="204.1" y="243.8" fill="#D3D2D3" width="1.1" height="1.1"/>
					<path fill="#D3D2D3" d="M205.3,245H204v-1.3h1.3V245z M204.3,244.7h0.8v-0.8h-0.8V244.7z"/>
				</g>
				<g>
					<rect x="204.1" y="240" fill="#D3D2D3" width="1.1" height="1.1"/>
					<path fill="#D3D2D3" d="M205.3,241.2H204v-1.3h1.3V241.2z M204.3,240.9h0.8v-0.8h-0.8V240.9z"/>
				</g>
				<g>
					<path fill="#D3D2D3" d="M204.3,240.1h-1.3v-1.3h1.3V240.1z M203.2,239.8h0.8V239h-0.8V239.8z"/>
				</g>
				<g>
					<path fill="#D3D2D3" d="M208.4,245.5c-0.7,0-1.2-0.5-1.2-1.2c0-0.7,0.5-1.2,1.2-1.2c0.7,0,1.2,0.5,1.2,1.2
						C209.7,245,209.1,245.5,208.4,245.5z M208.4,243.4c-0.5,0-0.9,0.4-0.9,0.9s0.4,0.9,0.9,0.9s0.9-0.4,0.9-0.9
						S209,243.4,208.4,243.4z"/>
				</g>
				<g>
					<path fill="#D3D2D3" d="M208.4,245.5c-0.7,0-1.2-0.5-1.2-1.2c0-0.7,0.5-1.2,1.2-1.2c0.7,0,1.2,0.5,1.2,1.2
						C209.7,245,209.1,245.5,208.4,245.5z M208.4,243.4c-0.5,0-0.9,0.4-0.9,0.9s0.4,0.9,0.9,0.9s0.9-0.4,0.9-0.9
						S209,243.4,208.4,243.4z"/>
				</g>
				<g>
					<path fill="#D3D2D3" d="M204.1,232.4c-0.7,0-1.2-0.5-1.2-1.2s0.5-1.2,1.2-1.2c0.7,0,1.2,0.5,1.2,1.2S204.8,232.4,204.1,232.4z
						 M204.1,230.3c-0.5,0-0.9,0.4-0.9,0.9s0.4,0.9,0.9,0.9s0.9-0.4,0.9-0.9S204.5,230.3,204.1,230.3z"/>
				</g>
				<g>
					<path fill="#D3D2D3" d="M209.7,258.6h-2.4v-2.4h2.4V258.6z M207.5,258.3h1.9v-1.9h-1.9V258.3z"/>
				</g>
				<g>
					<rect x="203" y="260.6" fill="#D3D2D3" width="2.2" height="2.2"/>
					<path fill="#D3D2D3" d="M205.3,262.9h-2.4v-2.4h2.4V262.9z M203.2,262.7h1.9v-1.9h-1.9V262.7z"/>
				</g>
				<rect x="203.6" y="261.2" fill="#FFFFFF" width="1.1" height="1.1"/>
				<g>
					<rect x="207.9" y="261.2" fill="#D3D2D3" width="1.1" height="1.1"/>
					<path fill="#D3D2D3" d="M209.1,262.4h-1.3V261h1.3V262.4z M208,262.1h0.8v-0.8H208V262.1z"/>
				</g>
				<g>
					<path fill="#D3D2D3" d="M204.1,258.6c-0.7,0-1.2-0.5-1.2-1.2s0.5-1.2,1.2-1.2c0.7,0,1.2,0.5,1.2,1.2S204.8,258.6,204.1,258.6z
						 M204.1,256.4c-0.5,0-0.9,0.4-0.9,0.9s0.4,0.9,0.9,0.9s0.9-0.4,0.9-0.9C205.1,256.8,204.5,256.4,204.1,256.4z"/>
				</g>
				<path fill="#D3D2D3" d="M208.4,245.4c-0.5,0-1.1-0.5-1.1-1.1s0.5-1.1,1.1-1.1V245.4z"/>
				<g>
					
						<rect x="202.5" y="252.8" transform="matrix(-0.7071 -0.7071 0.7071 -0.7071 169.556 576.1213)" fill="#D3D2D3" width="3.1" height="0.3"/>
				</g>
			</g>
			<g>
				<path fill="#D3D2D3" d="M208,249.6c-0.5,0-0.8-0.4-0.8-0.8c0-0.4,0.4-0.8,0.8-0.8c0.5,0,0.8,0.4,0.8,0.8
					C208.8,249.2,208.6,249.6,208,249.6z M208,248.1c-0.3,0-0.5,0.3-0.5,0.5c0,0.3,0.3,0.5,0.5,0.5c0.3,0,0.5-0.3,0.5-0.5
					S208.4,248.1,208,248.1z"/>
			</g>
			<g>
				<circle fill="#D3D2D3" cx="208.7" cy="248.6" r="0.7"/>
				<path fill="#D3D2D3" d="M208.7,249.6c-0.5,0-0.8-0.4-0.8-0.8c0-0.4,0.4-0.8,0.8-0.8c0.5,0,0.8,0.4,0.8,0.8
					C209.5,249.2,209.2,249.6,208.7,249.6z M208.7,248.1c-0.3,0-0.5,0.3-0.5,0.5c0,0.3,0.3,0.5,0.5,0.5c0.3,0,0.5-0.3,0.5-0.5
					C209.4,248.3,209.1,248.1,208.7,248.1z"/>
			</g>
			<g>
				<g>
					<polygon fill="#D3D2D3" points="209.5,253.3 208.4,253.9 207.4,253.3 208.4,252.8 					"/>
					<path fill="#D3D2D3" d="M208.4,254.1l-1.3-0.7l1.3-0.7l1.3,0.7L208.4,254.1z M207.6,253.3l0.8,0.4l0.8-0.4l-0.8-0.4
						L207.6,253.3z"/>
				</g>
				<polygon fill="#FFFFFF" points="209.5,252.8 208.4,253.3 207.4,252.8 208.4,252.3 				"/>
				<g>
					<polygon fill="#D3D2D3" points="209.5,252.5 208.4,253.1 207.4,252.5 208.4,252 					"/>
					<path fill="#D3D2D3" d="M208.4,253.3l-1.3-0.7l1.3-0.7l1.3,0.7L208.4,253.3z M207.6,252.5l0.8,0.4l0.8-0.4l-0.8-0.4
						L207.6,252.5z"/>
				</g>
			</g>
			<rect x="208.4" y="256.3" fill="#D3D2D3" width="1.1" height="2.2"/>
		</g>
		<g>
			<rect x="280.2" y="248.6" fill="#FFFFFF" width="17.4" height="14.2"/>
			<rect x="280.2" y="248.6" fill="#08191E" width="17.4" height="2.2"/>
			<rect x="281.3" y="252.4" fill="#D3D2D3" width="15.2" height="2.2"/>
			<rect x="294.3" y="252.4" fill="#D3D2D3" width="2.2" height="2.2"/>
			<rect x="281.3" y="255.8" fill="#D3D2D3" width="15.2" height="2.2"/>
			<rect x="294.3" y="259" fill="#D3D2D3" width="2.2" height="2.2"/>
			<rect x="292.1" y="259" fill="#D3D2D3" width="2.2" height="2.2"/>
			<rect x="283.5" y="259" fill="#D3D2D3" width="2.2" height="2.2"/>
			<rect x="281.3" y="259" fill="#D3D2D3" width="2.2" height="2.2"/>
			<rect x="288.9" y="259" fill="#D3D2D3" width="2.2" height="2.2"/>
			<rect x="286.7" y="259" fill="#D3D2D3" width="2.2" height="2.2"/>
		</g>
		<g>
			<rect x="280.2" y="229" fill="#FFFFFF" width="17.4" height="17.4"/>
			<rect x="280.2" y="229" fill="#08191E" width="17.4" height="2.2"/>
			<rect x="281.3" y="232.8" fill="#D3D2D3" width="15.2" height="2.2"/>
			<g>
				<g>
					<rect x="294.3" y="236.2" fill="#D3D2D3" width="2.2" height="2.2"/>
				</g>
				<g>
					<rect x="291" y="236.2" fill="#D3D2D3" width="2.2" height="2.2"/>
				</g>
				<g>
					<rect x="287.8" y="236.2" fill="#D3D2D3" width="2.2" height="2.2"/>
				</g>
				<g>
					<rect x="284.6" y="236.2" fill="#D3D2D3" width="2.2" height="2.2"/>
				</g>
				<g>
					<rect x="281.3" y="236.2" fill="#D3D2D3" width="2.2" height="2.2"/>
				</g>
			</g>
		</g>
	</g>
	<rect x="281.3" y="239.4" fill="#D3D2D3" width="15.2" height="5.4"/>
</g>
</svg>
