<?xml version="1.0" encoding="utf-8"?>
<?xml-stylesheet href="../css/app.css" type="text/css"?>
<!-- Generator: Adobe Illustrator 18.1.1, SVG Export Plug-In . SVG Version: 6.00 Build 0)  -->
<svg version="1.1" id="github" xmlns="http://www.w3.org/2000/svg" xmlns:xlink="http://www.w3.org/1999/xlink" x="0px" y="0px"
	 viewBox="0 0 150 150" style="enable-background:new 0 0 150 150;" xml:space="preserve">
<style type="text/css">
	.st0{fill:#0698CF;}
	.st1{fill:#FFF568;}
</style>
<rect class="social__link--github" width="150" height="150"/>
<path class="social__link--fill" d="M98,146c-3.6,0.4-5-1.6-5-3.6c0-2.4,0-10.4,0-20c0-7-2.4-11.6-5-13.6c16-2,33-8,33-36c0-8-3-14.4-7.6-19.6
	c1-2,3.6-9.6-0.4-19.6c0,0-6-2-20,7.6c-5.6-1.6-12-2.4-18-2.4s-12.4,1-18.4,2.4c-14-9.6-20-7.6-20-7.6c-3.6,10.4-1,17.6-0.4,19.6
	c-4.4,5-7.6,11.6-7.6,19.6c0,28,17,34,33,36c-2,1.6-4,5-4.4,9.6c-4,2-14.4,5-21-6c0,0-3.6-7-11-7.6c0,0-7.6,0-0.4,4.4
	c0,0,4.4,2,8,10.4c0,0,4.4,14.4,24.4,10c0,6,0,11,0,12.4c0,2-1.6,4-5,3.6C23,136.4,2,109,2,77C2,36.4,35,4,75,4s73,32.4,72.6,73
	C147.6,109,127,136.4,98,146z"/>
</svg>
