<?xml version="1.0" encoding="utf-8"?>
<!-- Generator: Adobe Illustrator 18.1.1, SVG Export Plug-In . SVG Version: 6.00 Build 0)  -->
<svg version="1.1" id="github" xmlns="http://www.w3.org/2000/svg" xmlns:xlink="http://www.w3.org/1999/xlink" x="0px" y="0px"
	 viewBox="0 0 75 75" style="enable-background:new 0 0 75 75;" xml:space="preserve">
<style type="text/css">
	.st0{fill:#0698CF;}
</style>
<path id="github-icon" class="st0" d="M0,0v75h75V0H0z M49,73c-1.8,0.2-2.5-0.8-2.5-1.8c0-1.2,0-5.2,0-10c0-3.5-1.2-5.8-2.5-6.8
	c8-1,16.5-4,16.5-18c0-4-1.5-7.2-3.8-9.8c0.5-1,1.8-4.8-0.2-9.8c0,0-3-1-10,3.8c-2.8-0.8-6-1.2-9-1.2s-6.2,0.5-9.2,1.2
	c-7-4.8-10-3.8-10-3.8c-1.8,5.2-0.5,8.8-0.2,9.8c-2.2,2.5-3.8,5.8-3.8,9.8c0,14,8.5,17,16.5,18c-1,0.8-2,2.5-2.2,4.8
	c-2,1-7.2,2.5-10.5-3c0,0-1.8-3.5-5.5-3.8c0,0-3.8,0-0.2,2.2c0,0,2.2,1,4,5.2c0,0,2.2,7.2,12.2,5c0,3,0,5.5,0,6.2c0,1-0.8,2-2.5,1.8
	C11.5,68.2,1,54.5,1,38.5C1,18.2,17.5,2,37.5,2S74,18.2,73.8,38.5C73.8,54.5,63.5,68.2,49,73z"/>
</svg>
