<?xml version="1.0" encoding="utf-8"?>
<!-- Generator: Adobe Illustrator 18.1.1, SVG Export Plug-In . SVG Version: 6.00 Build 0)  -->
<svg version="1.1" id="graphic-design" xmlns="http://www.w3.org/2000/svg" xmlns:xlink="http://www.w3.org/1999/xlink" x="0px"
	 y="0px" viewBox="0 0 75 75" style="enable-background:new 0 0 75 75;" xml:space="preserve">
<style type="text/css">
	.st0{fill:#FFFFFF;stroke:#0698CF;stroke-width:2;stroke-linecap:round;stroke-linejoin:round;stroke-miterlimit:10;}
	.st1{fill:#FFFFFF;stroke:#0698CF;stroke-miterlimit:10;}
	.st2{fill:none;stroke:#0698CF;stroke-miterlimit:10;}
	.st3{fill:#0698CF;}
	.st4{fill:#FFFFFF;stroke:#0698CF;stroke-linecap:round;stroke-linejoin:round;stroke-miterlimit:10;}
</style>
<rect id="screen" x="1.6" y="8.8" class="st0" width="72" height="49.9"/>
<g id="pen">
	<polygon class="st1" points="58.9,38.1 50.3,47.3 33.3,30.6 56.6,25.7 	"/>
	<rect x="54.1" y="34.2" transform="matrix(0.2793 -0.9602 0.9602 0.2793 6.5971 85.5428)" class="st1" width="12.5" height="8.3"/>
	<line class="st2" x1="33.3" y1="30.6" x2="47.5" y2="34.6"/>
	<circle class="st3" cx="47.5" cy="34.6" r="1.6"/>
</g>
<path id="curve-path" class="st4" d="M36.7,12.1c-0.8,12.3-4.8,20.6-7.9,22.2c-3.8,2-7.3,0.2-10.5,2.7c-3.8,3-3.9,9.2-3.5,13.8"/>
<path id="pen-handle-2" class="st3" d="M23.4,42c-0.3,0-0.6,0.2-0.8,0.5H7.2C7.1,42.2,6.8,42,6.5,42c-0.5,0-0.8,0.4-0.8,0.8
	c0,0.5,0.4,0.8,0.8,0.8c0.4,0,0.7-0.2,0.8-0.5h15.4c0.1,0.3,0.4,0.5,0.8,0.5c0.5,0,0.8-0.4,0.8-0.8C24.3,42.4,23.9,42,23.4,42z"/>
<g id="pen-tangent-2">
	<rect x="13.2" y="41" class="st3" width="3.6" height="3.6"/>
</g>
<path id="pen-handle-1" class="st3" d="M44.5,15.7c-0.3,0-0.6,0.2-0.8,0.5H28.3c-0.1-0.3-0.4-0.5-0.8-0.5c-0.5,0-0.8,0.4-0.8,0.8
	c0,0.5,0.4,0.8,0.8,0.8c0.4,0,0.7-0.2,0.8-0.5h15.4c0.1,0.3,0.4,0.5,0.8,0.5c0.5,0,0.8-0.4,0.8-0.8C45.3,16.1,45,15.7,44.5,15.7z"/>
<g id="pen-tangent-1">
	<rect x="34.2" y="14.7" class="st3" width="3.6" height="3.6"/>
</g>
</svg>
