<?xml version="1.0" encoding="utf-8"?>
<!-- Generator: Adobe Illustrator 18.1.1, SVG Export Plug-In . SVG Version: 6.00 Build 0)  -->
<!DOCTYPE svg PUBLIC "-//W3C//DTD SVG 1.1//EN" "http://www.w3.org/Graphics/SVG/1.1/DTD/svg11.dtd">
<svg version="1.1" xmlns="http://www.w3.org/2000/svg" xmlns:xlink="http://www.w3.org/1999/xlink" x="0px" y="0px"
	 viewBox="0 0 2000 900" style="enable-background:new 0 0 2000 900;" xml:space="preserve">
<style type="text/css">
	.st0{fill:#FFF568;}
	.st1{fill:#FFF568;stroke:#0698CF;stroke-width:6;stroke-linecap:round;stroke-linejoin:round;stroke-miterlimit:10;}
	.st2{fill:#0698CF;}
	.st3{fill:#FFF568;stroke:#0698CF;stroke-width:6;stroke-miterlimit:10;}
	.st4{fill:none;stroke:#0698CF;stroke-width:4;stroke-miterlimit:10;}
	.st5{fill:#FFF568;stroke:#0698CF;stroke-width:4;stroke-miterlimit:10;}
	.st6{fill:#FFF568;stroke:#02A0D9;stroke-width:6;stroke-miterlimit:10;}
	.st7{fill:#FFF568;stroke:#02A0D9;stroke-width:3;stroke-miterlimit:10;}
	.st8{fill:none;stroke:#0698CF;stroke-width:3;stroke-miterlimit:10;}
	.st9{fill:none;stroke:#0698CF;stroke-width:6;stroke-linecap:round;stroke-linejoin:round;stroke-miterlimit:10;}
	.st10{fill:none;stroke:#0698CF;stroke-width:4;stroke-linecap:round;stroke-linejoin:round;stroke-miterlimit:10;}
	.st11{fill:none;stroke:#0698CF;stroke-width:2;stroke-miterlimit:10;}
	.st12{fill:none;stroke:#0698CF;stroke-width:2;stroke-linecap:round;stroke-linejoin:round;stroke-miterlimit:10;}
	.st13{fill:#FFF568;stroke:#0698CF;stroke-width:4;stroke-linecap:round;stroke-linejoin:round;stroke-miterlimit:10;}
</style>
<g id="Layer_3">
	<rect class="st0" width="2000" height="900"/>
</g>
<g id="color-bridge">
	<g>
		<g>
			<path class="st1" d="M220.3,265.6l19.8-2.1c5.1-0.5,9.7,3.2,10.3,8.3l18.4,173.4c0.5,5.1-3.2,9.7-8.3,10.3l-19.8,2.1
				c-5.1,0.5-9.7-3.2-10.3-8.3L212,275.9C211.5,270.8,215.2,266.2,220.3,265.6z"/>
			
				<rect x="228.2" y="417.3" transform="matrix(-0.9944 0.1053 -0.1053 -0.9944 538.5241 826.3501)" class="st2" width="38.6" height="20.3"/>
			
				<rect x="224.7" y="384.8" transform="matrix(-0.9944 0.1053 -0.1053 -0.9944 528.2426 761.8929)" class="st2" width="38.6" height="20.3"/>
			
				<rect x="221.3" y="352.3" transform="matrix(-0.9944 0.1053 -0.1053 -0.9944 517.9612 697.4357)" class="st2" width="38.6" height="20.3"/>
			
				<rect x="217.8" y="319.8" transform="matrix(-0.9944 0.1053 -0.1053 -0.9944 507.6798 632.9786)" class="st2" width="38.6" height="20.3"/>
			
				<rect x="214.4" y="287.3" transform="matrix(-0.9944 0.1053 -0.1053 -0.9944 497.3983 568.5214)" class="st2" width="38.6" height="20.3"/>
			<circle class="st2" cx="220.8" cy="275.5" r="3.3"/>
		</g>
		<g>
			<path class="st1" d="M219.1,265.7l19.4-4.4c5-1.2,10,2,11.2,7l38.9,170c1.2,5-2,10-7,11.2l-19.4,4.4c-5,1.2-10-2-11.2-7
				l-38.9-170C211,271.9,214.1,266.9,219.1,265.7z"/>
			
				<rect x="246" y="413" transform="matrix(-0.9748 0.2229 -0.2229 -0.9748 618.3552 776.4455)" class="st2" width="38.6" height="20.3"/>
			
				<rect x="238.8" y="381.1" transform="matrix(-0.9748 0.2229 -0.2229 -0.9748 596.864 715.1539)" class="st2" width="38.6" height="20.3"/>
			
				<rect x="231.5" y="349.3" transform="matrix(-0.9748 0.2229 -0.2229 -0.9748 575.3727 653.8622)" class="st2" width="38.6" height="20.3"/>
			
				<rect x="224.2" y="317.4" transform="matrix(-0.9748 0.2229 -0.2229 -0.9748 553.8815 592.5706)" class="st2" width="38.6" height="20.3"/>
			
				<rect x="216.9" y="285.6" transform="matrix(-0.9748 0.2229 -0.2229 -0.9748 532.3902 531.2789)" class="st2" width="38.6" height="20.3"/>
			<circle class="st2" cx="220.8" cy="275.5" r="3.3"/>
		</g>
		<g>
			<path class="st1" d="M218,266l18.7-6.7c4.9-1.7,10.2,0.8,12,5.6l58.8,164.1c1.7,4.9-0.8,10.2-5.6,12l-18.7,6.7
				c-4.9,1.7-10.2-0.8-12-5.6L212.3,278C210.6,273.1,213.1,267.8,218,266z"/>
			
				<rect x="263.3" y="406.6" transform="matrix(-0.9413 0.3375 -0.3375 -0.9413 689.2816 713.7188)" class="st2" width="38.6" height="20.3"/>
			
				<rect x="252.3" y="375.9" transform="matrix(-0.9413 0.3375 -0.3375 -0.9413 657.4901 657.716)" class="st2" width="38.6" height="20.3"/>
			
				<rect x="241.2" y="345.1" transform="matrix(-0.9413 0.3375 -0.3375 -0.9413 625.6987 601.7133)" class="st2" width="38.6" height="20.3"/>
			
				<rect x="230.2" y="314.3" transform="matrix(-0.9413 0.3375 -0.3375 -0.9413 593.9073 545.7105)" class="st2" width="38.6" height="20.3"/>
			
				<rect x="219.2" y="283.6" transform="matrix(-0.9413 0.3375 -0.3375 -0.9413 562.1158 489.7078)" class="st2" width="38.6" height="20.3"/>
			<circle class="st2" cx="220.8" cy="275.5" r="3.3"/>
		</g>
		<g>
			<path class="st1" d="M216.9,266.4l17.8-8.9c4.6-2.3,10.2-0.4,12.5,4.2l78,156c2.3,4.6,0.4,10.2-4.2,12.5l-17.8,8.9
				c-4.6,2.3-10.2,0.4-12.5-4.2l-78-156C210.4,274.3,212.3,268.7,216.9,266.4z"/>
			
				<rect x="279.7" y="398.3" transform="matrix(-0.8945 0.4472 -0.4472 -0.8945 749.0392 639.9917)" class="st2" width="38.6" height="20.3"/>
			
				<rect x="265.1" y="369" transform="matrix(-0.8945 0.4472 -0.4472 -0.8945 708.2827 591.1476)" class="st2" width="38.6" height="20.3"/>
			
				<rect x="250.5" y="339.8" transform="matrix(-0.8945 0.4472 -0.4472 -0.8945 667.5261 542.3036)" class="st2" width="38.6" height="20.3"/>
			
				<rect x="235.8" y="310.6" transform="matrix(-0.8945 0.4472 -0.4472 -0.8945 626.7695 493.4597)" class="st2" width="38.6" height="20.3"/>
			
				<rect x="221.2" y="281.3" transform="matrix(-0.8945 0.4472 -0.4472 -0.8945 586.0129 444.6156)" class="st2" width="38.6" height="20.3"/>
			<circle class="st2" cx="220.8" cy="275.5" r="3.3"/>
		</g>
		<g>
			<path class="st1" d="M221.5,265.6l19.9,0.3c5.2,0.1,9.3,4.3,9.2,9.5l-2.4,174.3c-0.1,5.2-4.3,9.3-9.5,9.2l-19.9-0.3
				c-5.2-0.1-9.3-4.3-9.2-9.5l2.4-174.3C212.1,269.7,216.3,265.6,221.5,265.6z"/>
			
				<rect x="209.9" y="419.3" transform="matrix(-0.9999 -1.392811e-02 1.392811e-02 -0.9999 452.3627 862.1161)" class="st2" width="38.6" height="20.3"/>
			
				<rect x="210.3" y="386.7" transform="matrix(-0.9999 -1.392811e-02 1.392811e-02 -0.9999 453.7281 796.7691)" class="st2" width="38.6" height="20.3"/>
			
				<rect x="210.8" y="354" transform="matrix(-0.9999 -1.392811e-02 1.392811e-02 -0.9999 455.0937 731.4221)" class="st2" width="38.6" height="20.3"/>
			
				<rect x="211.2" y="321.3" transform="matrix(-0.9999 -1.392811e-02 1.392811e-02 -0.9999 456.4591 666.0751)" class="st2" width="38.6" height="20.3"/>
			
				<rect x="211.7" y="288.6" transform="matrix(-0.9999 -1.392811e-02 1.392811e-02 -0.9999 457.8246 600.7281)" class="st2" width="38.6" height="20.3"/>
			<circle class="st2" cx="220.8" cy="275.5" r="3.3"/>
		</g>
	</g>
</g>
<g id="wacom-tablet">
	<g>
		<g>
			<g>
				<rect x="1439.2" y="430.2" class="st3" width="529.8" height="352.8"/>
			</g>
		</g>
		<rect x="1457.5" y="489.8" class="st3" width="52.7" height="84.2"/>
		<circle class="st3" cx="1482" cy="606.5" r="24.2"/>
		<circle class="st2" cx="1482" cy="606.5" r="13.4"/>
		<rect x="1522.5" y="488.6" class="st3" width="421.3" height="234.9"/>
		<rect x="1457.5" y="489.8" class="st3" width="52.7" height="21.1"/>
		<rect x="1457.5" y="510.9" class="st3" width="52.7" height="21.1"/>
		<rect x="1457.5" y="531.9" class="st3" width="52.7" height="21.1"/>
		<rect x="1457.5" y="638.8" class="st3" width="52.7" height="84.2"/>
		<rect x="1457.5" y="638.8" class="st3" width="52.7" height="21.1"/>
		<rect x="1457.5" y="659.9" class="st3" width="52.7" height="21.1"/>
		<rect x="1457.5" y="681" class="st3" width="52.7" height="21.1"/>
	</g>
</g>
<g id="wacom-pen">
	<g id="tip_4_">
		<path class="st4" d="M1411.1,728.5L1411.1,728.5c-0.6,0-1.1-0.5-1.1-1.1v-9.3c0-0.6,0.5-1.1,1.1-1.1l0,0c0.6,0,1.1,0.5,1.1,1.1
			v9.3C1412.2,728,1411.7,728.5,1411.1,728.5z"/>
		<path class="st0" d="M1411.1,728.5L1411.1,728.5c-0.6,0-1.1-0.5-1.1-1.1v-9.3c0-0.6,0.5-1.1,1.1-1.1l0,0c0.6,0,1.1,0.5,1.1,1.1
			v9.3C1412.2,728,1411.7,728.5,1411.1,728.5z"/>
	</g>
	<path id="eraser_1_" class="st5" d="M1411.1,519L1411.1,519c-2.5,0-4.5-2-4.5-4.5V503c0-2.5,2-4.5,4.5-4.5l0,0c2.5,0,4.5,2,4.5,4.5
		v11.5C1415.6,517,1413.6,519,1411.1,519z"/>
	<path id="tip_2_" class="st3" d="M1401.1,691c0-5.5,4.5-10,10-10c5.5,0,10,4.5,10,10c0,5.5-4.4,28.8-10,28.8
		C1405.6,719.8,1401.1,696.5,1401.1,691z"/>
	<path id="pen_1_" class="st3" d="M1411.2,690.9l10,0l0-3.3l-0.2-175.5c0-1.8-1.5-3.3-3.3-3.3l-13.3,0c-1.8,0-3.3,1.5-3.3,3.3
		l0.2,175.5l0,3.3l3.3,0h0L1411.2,690.9z"/>
	<g id="switch_1_">
		<g>
			<g>
				<path class="st4" d="M1412.9,647.2c0-0.2-0.2-0.3-0.4-0.3h-2.8c-0.2,0-0.4,0.1-0.4,0.3l0.5,24.2h2.6L1412.9,647.2z"/>
				<path class="st0" d="M1412.9,647.2c0-0.2-0.2-0.3-0.4-0.3h-2.8c-0.2,0-0.4,0.1-0.4,0.3l0.5,24.2h2.6L1412.9,647.2z"/>
			</g>
		</g>
		<g>
			<g>
				<path class="st4" d="M1409.4,682.2c0,0.2,0.2,0.3,0.4,0.3h2.8c0.2,0,0.4-0.1,0.4-0.3l-0.5-10.8h-2.6L1409.4,682.2z"/>
				<path class="st0" d="M1409.4,682.2c0,0.2,0.2,0.3,0.4,0.3h2.8c0.2,0,0.4-0.1,0.4-0.3l-0.5-10.8h-2.6L1409.4,682.2z"/>
			</g>
		</g>
	</g>
</g>
<g id="keyboard">
	<path class="st6" d="M1296,799.9c0,4.6-3.5,8.5-8.1,8.5H594.6c-4.6,0-8.1-3.9-8.1-8.5V627.8c0-4.6,3.5-7.7,8.1-7.7h693.3
		c4.6,0,8.1,3.2,8.1,7.7V799.9z"/>
	<rect x="596.3" y="770.7" class="st7" width="27.9" height="26.7"/>
	<rect x="596.3" y="740.4" class="st7" width="66.8" height="26.7"/>
	<rect x="596.3" y="710" class="st7" width="54.7" height="26.7"/>
	<rect x="596.3" y="679.6" class="st7" width="43.7" height="26.7"/>
	<rect x="596.3" y="649.3" class="st7" width="26.7" height="26.7"/>
	<rect x="596.3" y="628.6" class="st7" width="26.7" height="17"/>
	<rect x="627.9" y="628.6" class="st7" width="25.5" height="17"/>
	<rect x="658.2" y="628.6" class="st7" width="26.7" height="17"/>
	<rect x="689.8" y="628.6" class="st7" width="26.7" height="17"/>
	<rect x="721.4" y="628.6" class="st7" width="26.7" height="17"/>
	<rect x="753" y="628.6" class="st7" width="26.7" height="17"/>
	<rect x="784.6" y="628.6" class="st7" width="25.5" height="17"/>
	<rect x="814.9" y="628.6" class="st7" width="26.7" height="17"/>
	<rect x="846.5" y="628.6" class="st7" width="26.7" height="17"/>
	<rect x="878.1" y="628.6" class="st7" width="26.7" height="17"/>
	<rect x="909.7" y="628.6" class="st7" width="26.7" height="17"/>
	<rect x="941.3" y="628.6" class="st7" width="25.5" height="17"/>
	<rect x="971.6" y="628.6" class="st7" width="26.7" height="17"/>
	<rect x="1003.2" y="628.6" class="st7" width="26.7" height="17"/>
	<rect x="1034.8" y="628.6" class="st7" width="26.7" height="17"/>
	<rect x="1068.8" y="628.6" class="st7" width="26.7" height="17"/>
	<rect x="1100.4" y="628.6" class="st7" width="26.7" height="17"/>
	<rect x="1132" y="628.6" class="st7" width="26.7" height="17"/>
	<rect x="1166" y="628.6" class="st7" width="26.7" height="17"/>
	<rect x="1197.6" y="628.6" class="st7" width="26.7" height="17"/>
	<rect x="1229.2" y="628.6" class="st7" width="25.5" height="17"/>
	<rect x="1259.5" y="628.6" class="st7" width="26.7" height="17"/>
	<rect x="627.9" y="649.3" class="st7" width="25.5" height="26.7"/>
	<rect x="658.2" y="649.3" class="st7" width="26.7" height="26.7"/>
	<rect x="689.8" y="649.3" class="st7" width="26.7" height="26.7"/>
	<rect x="721.4" y="649.3" class="st7" width="26.7" height="26.7"/>
	<rect x="753" y="649.3" class="st7" width="26.7" height="26.7"/>
	<rect x="784.6" y="649.3" class="st7" width="25.5" height="26.7"/>
	<rect x="814.9" y="649.3" class="st7" width="26.7" height="26.7"/>
	<rect x="846.5" y="649.3" class="st7" width="26.7" height="26.7"/>
	<rect x="878.1" y="649.3" class="st7" width="26.7" height="26.7"/>
	<rect x="909.7" y="649.3" class="st7" width="26.7" height="26.7"/>
	<rect x="941.3" y="649.3" class="st7" width="25.5" height="26.7"/>
	<rect x="971.6" y="649.3" class="st7" width="26.7" height="26.7"/>
	<rect x="1003.2" y="649.3" class="st7" width="26.7" height="26.7"/>
	<rect x="1034.8" y="649.3" class="st7" width="26.7" height="26.7"/>
	<rect x="1068.8" y="649.3" class="st7" width="26.7" height="26.7"/>
	<rect x="1100.4" y="649.3" class="st7" width="26.7" height="26.7"/>
	<rect x="1100.4" y="679.6" class="st7" width="26.7" height="26.7"/>
	<rect x="1132" y="649.3" class="st7" width="26.7" height="26.7"/>
	<rect x="1068.8" y="679.6" class="st7" width="26.7" height="26.7"/>
	<rect x="1132" y="679.6" class="st7" width="26.7" height="26.7"/>
	<rect x="1166" y="679.6" class="st7" width="26.7" height="26.7"/>
	<rect x="1166" y="649.3" class="st7" width="26.7" height="26.7"/>
	<rect x="1197.6" y="649.3" class="st7" width="26.7" height="26.7"/>
	<rect x="1229.2" y="649.3" class="st7" width="25.5" height="26.7"/>
	<rect x="1259.5" y="649.3" class="st7" width="26.7" height="26.7"/>
	<rect x="1197.6" y="679.6" class="st7" width="26.7" height="26.7"/>
	<rect x="1229.2" y="679.6" class="st7" width="25.5" height="26.7"/>
	<rect x="1259.5" y="679.6" class="st7" width="26.7" height="26.7"/>
	<rect x="1197.6" y="710" class="st7" width="26.7" height="26.7"/>
	<rect x="1229.2" y="710" class="st7" width="25.5" height="26.7"/>
	<rect x="1259.5" y="710" class="st7" width="26.7" height="26.7"/>
	<rect x="1197.6" y="740.4" class="st7" width="26.7" height="26.7"/>
	<rect x="1229.2" y="740.4" class="st7" width="25.5" height="26.7"/>
	<rect x="1166" y="710" class="st7" width="26.7" height="26.7"/>
	<rect x="1166" y="740.4" class="st7" width="26.7" height="26.7"/>
	<polygon id="key_1_" class="st7" points="1215.6,770.7 1197.4,770.7 1166,770.7 1166,797.5 1197.4,797.5 1215.6,797.5 
		1224.3,797.5 1224.3,770.7 	"/>
	<rect x="1229.2" y="770.7" class="st7" width="25.5" height="26.7"/>
	<polygon class="st7" points="1259.5,740.4 1259.5,753.7 1259.5,766.9 1259.5,797.5 1286.3,797.5 1286.3,766.9 1286.3,753.7 
		1286.3,740.4 	"/>
	<rect x="1100.4" y="740.4" class="st7" width="26.7" height="26.7"/>
	<rect x="1068.8" y="770.7" class="st7" width="26.7" height="26.7"/>
	<rect x="1100.4" y="770.7" class="st7" width="26.7" height="26.7"/>
	<rect x="1132" y="770.7" class="st7" width="26.7" height="26.7"/>
	<rect x="655.8" y="710" class="st7" width="25.5" height="26.7"/>
	<rect x="646.1" y="679.6" class="st7" width="25.5" height="26.7"/>
	<rect x="676.4" y="679.6" class="st7" width="26.7" height="26.7"/>
	<rect x="708" y="679.6" class="st7" width="26.7" height="26.7"/>
	<rect x="739.6" y="679.6" class="st7" width="26.7" height="26.7"/>
	<rect x="771.2" y="679.6" class="st7" width="25.5" height="26.7"/>
	<rect x="802.8" y="679.6" class="st7" width="25.5" height="26.7"/>
	<rect x="833.2" y="679.6" class="st7" width="26.7" height="26.7"/>
	<rect x="864.7" y="679.6" class="st7" width="26.7" height="26.7"/>
	<rect x="896.3" y="679.6" class="st7" width="26.7" height="26.7"/>
	<rect x="927.9" y="679.6" class="st7" width="26.7" height="26.7"/>
	<rect x="959.5" y="679.6" class="st7" width="25.5" height="26.7"/>
	<rect x="989.9" y="679.6" class="st7" width="26.7" height="26.7"/>
	<rect x="1021.4" y="679.6" class="st7" width="40.1" height="26.7"/>
	<rect x="686.2" y="710" class="st7" width="26.7" height="26.7"/>
	<rect x="717.7" y="710" class="st7" width="26.7" height="26.7"/>
	<rect x="749.3" y="710" class="st7" width="26.7" height="26.7"/>
	<rect x="780.9" y="710" class="st7" width="26.7" height="26.7"/>
	<rect x="812.5" y="710" class="st7" width="25.5" height="26.7"/>
	<rect x="844.1" y="710" class="st7" width="25.5" height="26.7"/>
	<rect x="874.5" y="710" class="st7" width="26.7" height="26.7"/>
	<rect x="906" y="710" class="st7" width="26.7" height="26.7"/>
	<rect x="937.6" y="710" class="st7" width="26.7" height="26.7"/>
	<rect x="969.2" y="710" class="st7" width="25.5" height="26.7"/>
	<rect x="1000.8" y="710" class="st7" width="25.5" height="26.7"/>
	<rect x="669.2" y="740.4" class="st7" width="25.5" height="26.7"/>
	<rect x="699.5" y="740.4" class="st7" width="26.7" height="26.7"/>
	<rect x="731.1" y="740.4" class="st7" width="26.7" height="26.7"/>
	<rect x="762.7" y="740.4" class="st7" width="26.7" height="26.7"/>
	<rect x="794.3" y="740.4" class="st7" width="26.7" height="26.7"/>
	<rect x="825.9" y="740.4" class="st7" width="25.5" height="26.7"/>
	<rect x="856.2" y="740.4" class="st7" width="26.7" height="26.7"/>
	<rect x="887.8" y="740.4" class="st7" width="26.7" height="26.7"/>
	<rect x="919.4" y="740.4" class="st7" width="26.7" height="26.7"/>
	<rect x="951" y="740.4" class="st7" width="26.7" height="26.7"/>
	<rect x="982.6" y="740.4" class="st7" width="25.5" height="26.7"/>
	<rect x="1012.9" y="740.4" class="st7" width="48.6" height="26.7"/>
	<rect x="1031.2" y="710" class="st7" width="30.4" height="26.7"/>
	<rect x="629.1" y="770.7" class="st7" width="27.9" height="26.7"/>
	<rect x="661.9" y="770.7" class="st7" width="27.9" height="26.7"/>
	<rect x="694.7" y="770.7" class="st7" width="36.4" height="26.7"/>
	<rect x="736" y="770.7" class="st7" width="159.1" height="26.7"/>
	<rect x="900" y="770.7" class="st7" width="37.7" height="26.7"/>
	<rect x="942.5" y="770.7" class="st7" width="35.2" height="26.7"/>
	<rect x="982.6" y="770.7" class="st7" width="34" height="26.7"/>
	<rect x="1021.4" y="770.7" class="st7" width="40.1" height="26.7"/>
</g>
<g id="notebook">
	<g>
		<path class="st3" d="M888.7,542.6L783.5,392.8L1032.4,218l105.2,149.8c9.1,13,6,30.9-7,40L928.6,549.6
			C915.7,558.7,897.8,555.5,888.7,542.6z"/>
		
			<rect x="988.9" y="279.6" transform="matrix(0.5746 0.8184 -0.8184 0.5746 777.2912 -632.0203)" class="st3" width="15.4" height="304.1"/>
	</g>
</g>
<g id="mug">
	<g>
		<path class="st3" d="M260.2,559.3l17.6,31.8c-33.6,21.3-45.1,65.6-25,100.8c20.3,35.7,66.3,48.5,102.1,28.4
			C391,700,404,654.4,384,618.1c-18.4-33.2-58.1-47-92.5-33.9l-17.9-32.3c-2-3.7-6.7-5-10.4-3h0
			C259.5,550.9,258.1,555.6,260.2,559.3z"/>
		<circle class="st3" cx="318.1" cy="654.6" r="59.7"/>
	</g>
	<g>
		<g>
			<path class="st2" d="M284.2,645c7.6-13.5,28.1-6.8,39.1-2.6c5.7,2.2,11.7,4,17.9,3.1c6.9-1,12.1-8,19-7.6c3.9,0.2,3.8-5.8,0-6
				c-8.4-0.5-13.3,7.4-21.4,7.9c-8.5,0.5-16.1-4.6-24-6.8c-11.7-3.3-28.9-3-35.7,9.1C277.1,645.4,282.3,648.4,284.2,645L284.2,645z"
				/>
		</g>
	</g>
	<g>
		<g>
			<path class="st2" d="M273.2,670.4c7.6-13.5,28.1-6.8,39.1-2.6c5.7,2.2,11.7,4,17.9,3.1c6.9-1,12.1-8,19-7.6c3.9,0.2,3.8-5.8,0-6
				c-8.4-0.5-13.3,7.4-21.4,7.9c-8.5,0.5-16.1-4.6-24-6.8c-11.7-3.3-28.9-3-35.7,9.1C266.1,670.7,271.3,673.8,273.2,670.4
				L273.2,670.4z"/>
		</g>
	</g>
</g>
<g id="megatron">
	<g>
		<g>
			<path class="st8" d="M1363.2,285.9l-4.1-0.1c-0.6,0-1.1,0.4-1.1,1l0,1.2l-0.7,0c-0.4,0-0.8,0.3-0.8,0.8l0,0.5
				c0,0.4,0.3,0.8,0.8,0.8l0.7,0l-0.1,2.5l-0.7,0c-0.4,0-0.8,0.3-0.8,0.8l0,0.5c0,0.4,0.3,0.8,0.8,0.8l0.7,0l0,1.2
				c0,0.6,0.4,1.1,1,1.1l4.1,0.1c0.6,0,1.1-0.4,1.1-1l0.3-9.1C1364.2,286.5,1363.8,286,1363.2,285.9z"/>
			<path class="st0" d="M1363.2,285.9l-4.1-0.1c-0.6,0-1.1,0.4-1.1,1l0,1.2l-0.7,0c-0.4,0-0.8,0.3-0.8,0.8l0,0.5
				c0,0.4,0.3,0.8,0.8,0.8l0.7,0l-0.1,2.5l-0.7,0c-0.4,0-0.8,0.3-0.8,0.8l0,0.5c0,0.4,0.3,0.8,0.8,0.8l0.7,0l0,1.2
				c0,0.6,0.4,1.1,1,1.1l4.1,0.1c0.6,0,1.1-0.4,1.1-1l0.3-9.1C1364.2,286.5,1363.8,286,1363.2,285.9z"/>
		</g>
		<g>
			<path class="st8" d="M1402.4,298.5l4.1,0.1c0.6,0,1.1-0.4,1.1-1l0-1.2l0.7,0c0.4,0,0.8-0.3,0.8-0.8l0-0.5c0-0.4-0.3-0.8-0.8-0.8
				l-0.7,0l0.1-2.5l0.7,0c0.4,0,0.8-0.3,0.8-0.8l0-0.5c0-0.4-0.3-0.8-0.8-0.8l-0.7,0l0-1.2c0-0.6-0.4-1.1-1-1.1l-4.1-0.1
				c-0.6,0-1.1,0.4-1.1,1l-0.3,9.1C1401.3,298,1401.8,298.5,1402.4,298.5z"/>
			<path class="st0" d="M1402.4,298.5l4.1,0.1c0.6,0,1.1-0.4,1.1-1l0-1.2l0.7,0c0.4,0,0.8-0.3,0.8-0.8l0-0.5c0-0.4-0.3-0.8-0.8-0.8
				l-0.7,0l0.1-2.5l0.7,0c0.4,0,0.8-0.3,0.8-0.8l0-0.5c0-0.4-0.3-0.8-0.8-0.8l-0.7,0l0-1.2c0-0.6-0.4-1.1-1-1.1l-4.1-0.1
				c-0.6,0-1.1,0.4-1.1,1l-0.3,9.1C1401.3,298,1401.8,298.5,1402.4,298.5z"/>
		</g>
		<g>
			<path class="st4" d="M1359.3,337.2l-0.6,0c-0.4,0-0.7-0.3-0.7-0.7l0.3-9.8c0-0.4,0.3-0.7,0.7-0.7l0.6,0c0.4,0,0.7,0.3,0.7,0.7
				l-0.3,9.8C1360,336.9,1359.7,337.2,1359.3,337.2z"/>
			<path class="st0" d="M1359.3,337.2l-0.6,0c-0.4,0-0.7-0.3-0.7-0.7l0.3-9.8c0-0.4,0.3-0.7,0.7-0.7l0.6,0c0.4,0,0.7,0.3,0.7,0.7
				l-0.3,9.8C1360,336.9,1359.7,337.2,1359.3,337.2z"/>
		</g>
		<g>
			<path class="st4" d="M1360.9,246.2l-0.6,0c-0.4,0-0.7-0.3-0.7-0.7l0.3-9.8c0-0.4,0.3-0.7,0.7-0.7l0.6,0c0.4,0,0.7,0.3,0.7,0.7
				l-0.3,9.8C1361.6,245.9,1361.2,246.2,1360.9,246.2z"/>
			<path class="st0" d="M1360.9,246.2l-0.6,0c-0.4,0-0.7-0.3-0.7-0.7l0.3-9.8c0-0.4,0.3-0.7,0.7-0.7l0.6,0c0.4,0,0.7,0.3,0.7,0.7
				l-0.3,9.8C1361.6,245.9,1361.2,246.2,1360.9,246.2z"/>
		</g>
		<g>
			<path class="st4" d="M1360.3,260.9l-0.6,0c-0.4,0-0.7-0.3-0.7-0.7l0.3-9.8c0-0.4,0.3-0.7,0.7-0.7l0.6,0c0.4,0,0.7,0.3,0.7,0.7
				l-0.3,9.8C1361.1,260.6,1360.7,260.9,1360.3,260.9z"/>
			<path class="st0" d="M1360.3,260.9l-0.6,0c-0.4,0-0.7-0.3-0.7-0.7l0.3-9.8c0-0.4,0.3-0.7,0.7-0.7l0.6,0c0.4,0,0.7,0.3,0.7,0.7
				l-0.3,9.8C1361.1,260.6,1360.7,260.9,1360.3,260.9z"/>
		</g>
		<g>
			<path class="st4" d="M1408.7,247.9l-0.6,0c-0.4,0-0.7-0.3-0.7-0.7l0.3-9.8c0-0.4,0.3-0.7,0.7-0.7l0.6,0c0.4,0,0.7,0.3,0.7,0.7
				l-0.3,9.8C1409.4,247.6,1409,247.9,1408.7,247.9z"/>
			<path class="st0" d="M1408.7,247.9l-0.6,0c-0.4,0-0.7-0.3-0.7-0.7l0.3-9.8c0-0.4,0.3-0.7,0.7-0.7l0.6,0c0.4,0,0.7,0.3,0.7,0.7
				l-0.3,9.8C1409.4,247.6,1409,247.9,1408.7,247.9z"/>
		</g>
		<g>
			<path class="st4" d="M1408.1,262.6l-0.6,0c-0.4,0-0.7-0.3-0.7-0.7l0.3-9.8c0-0.4,0.3-0.7,0.7-0.7l0.6,0c0.4,0,0.7,0.3,0.7,0.7
				l-0.3,9.8C1408.9,262.3,1408.5,262.6,1408.1,262.6z"/>
			<path class="st0" d="M1408.1,262.6l-0.6,0c-0.4,0-0.7-0.3-0.7-0.7l0.3-9.8c0-0.4,0.3-0.7,0.7-0.7l0.6,0c0.4,0,0.7,0.3,0.7,0.7
				l-0.3,9.8C1408.9,262.3,1408.5,262.6,1408.1,262.6z"/>
		</g>
		<g>
			<path class="st4" d="M1404.5,338.8l-0.6,0c-0.4,0-0.7-0.3-0.7-0.7l0.3-9.8c0-0.4,0.3-0.7,0.7-0.7l0.6,0c0.4,0,0.7,0.3,0.7,0.7
				l-0.3,9.8C1405.2,338.5,1404.8,338.8,1404.5,338.8z"/>
			<path class="st0" d="M1404.5,338.8l-0.6,0c-0.4,0-0.7-0.3-0.7-0.7l0.3-9.8c0-0.4,0.3-0.7,0.7-0.7l0.6,0c0.4,0,0.7,0.3,0.7,0.7
				l-0.3,9.8C1405.2,338.5,1404.8,338.8,1404.5,338.8z"/>
		</g>
		<g>
			<path class="st4" d="M1401.4,341.5l-39.9-1.4c-0.9,0-1.6-0.8-1.5-1.7l0.5-14c0-0.9,0.8-1.6,1.7-1.5l39.9,1.4
				c0.9,0,1.6,0.8,1.5,1.7l-0.5,14C1403,340.8,1402.3,341.5,1401.4,341.5z"/>
			<path class="st0" d="M1401.4,341.5l-39.9-1.4c-0.9,0-1.6-0.8-1.5-1.7l0.5-14c0-0.9,0.8-1.6,1.7-1.5l39.9,1.4
				c0.9,0,1.6,0.8,1.5,1.7l-0.5,14C1403,340.8,1402.3,341.5,1401.4,341.5z"/>
		</g>
		<g>
			<polygon class="st9" points="1361.1,229.5 1359.6,276.7 1362.1,286.3 1362.6,295.1 1361.2,303.2 1361.7,310.8 1361.8,312.7 
				1362,314.6 1362.1,316.4 1362.2,318.2 1362.3,320 1362.4,321.7 1362.5,323.4 1362.6,325.2 1363,326.1 1363,326.1 1367.8,344.2 
				1394.1,345.1 1400.6,326.4 1400.9,324.7 1401.1,323 1401.3,321.3 1401.6,319.5 1401.8,317.7 1402.1,315.9 1402.3,314.1 
				1402.6,312.2 1403.6,304.6 1402.9,296.4 1404.1,287.6 1407.3,278.2 1408.7,231.2 			"/>
			<polygon class="st0" points="1361.1,229.5 1359.6,276.7 1362.1,286.3 1362.6,295.1 1361.2,303.2 1361.7,310.8 1361.8,312.7 
				1362,314.6 1362.1,316.4 1362.2,318.2 1362.3,320 1362.4,321.7 1362.5,323.4 1362.6,325.2 1363,326.1 1363,326.1 1367.8,344.2 
				1394.1,345.1 1400.6,326.4 1400.9,324.7 1401.1,323 1401.3,321.3 1401.6,319.5 1401.8,317.7 1402.1,315.9 1402.3,314.1 
				1402.6,312.2 1403.6,304.6 1402.9,296.4 1404.1,287.6 1407.3,278.2 1408.7,231.2 			"/>
		</g>
		<g>
			<polygon class="st10" points="1362.6,227.1 1407.4,228.7 1408.8,231.2 1361.1,229.5 			"/>
			<polygon class="st0" points="1362.6,227.1 1407.4,228.7 1408.8,231.2 1361.1,229.5 			"/>
		</g>
		<g>
			<polygon class="st4" points="1370.8,349.9 1369.9,349.9 1369.7,347 1371.2,347 			"/>
			<polygon class="st0" points="1370.8,349.9 1369.9,349.9 1369.7,347 1371.2,347 			"/>
		</g>
		<g>
			<polygon class="st4" points="1372.8,350.7 1371.9,350.7 1371.7,346.7 1373.2,346.8 			"/>
			<polygon class="st0" points="1372.8,350.7 1371.9,350.7 1371.7,346.7 1373.2,346.8 			"/>
		</g>
		<g>
			<polygon class="st4" points="1389.9,350.6 1389,350.6 1388.8,347.6 1390.3,347.7 			"/>
			<polygon class="st0" points="1389.9,350.6 1389,350.6 1388.8,347.6 1390.3,347.7 			"/>
		</g>
		<g>
			<polygon class="st4" points="1391.9,351.4 1391,351.3 1390.9,347.4 1392.4,347.5 			"/>
			<polygon class="st0" points="1391.9,351.4 1391,351.3 1390.9,347.4 1392.4,347.5 			"/>
		</g>
		<g>
			<polygon class="st4" points="1361.7,309.9 1361.8,312.6 1381.9,317.5 1402.3,314.1 1402.6,311.7 1382,314.8 			"/>
			<polygon class="st0" points="1361.7,309.9 1361.8,312.6 1381.9,317.5 1402.3,314.1 1402.6,311.7 1382,314.8 			"/>
		</g>
		<g>
			<path class="st4" d="M1396.8,287.9l-13.4-0.5l-13.4-0.5c-1.4,0-2.6-0.6-3.4-1.6c-0.9-0.9-1.4-2.2-1.3-3.5l0.8-21.9l0.8-21.9
				c0-1.4,9.2-4.4,18.5-4.1c9.3,0.3,18.2,4,18.2,5.4l-0.8,21.9l-0.8,21.9c0,1.4-0.6,2.6-1.6,3.4
				C1399.4,287.4,1398.1,287.9,1396.8,287.9z"/>
			<path class="st0" d="M1396.8,287.9l-13.4-0.5l-13.4-0.5c-1.4,0-2.6-0.6-3.4-1.6c-0.9-0.9-1.4-2.2-1.3-3.5l0.8-21.9l0.8-21.9
				c0-1.4,9.2-4.4,18.5-4.1c9.3,0.3,18.2,4,18.2,5.4l-0.8,21.9l-0.8,21.9c0,1.4-0.6,2.6-1.6,3.4
				C1399.4,287.4,1398.1,287.9,1396.8,287.9z"/>
		</g>
		<g>
			<circle class="st11" cx="1364.2" cy="287.8" r="1.3"/>
			<circle class="st0" cx="1364.2" cy="287.8" r="1.3"/>
		</g>
		<g>
			<circle class="st11" cx="1401.6" cy="289.2" r="1.3"/>
			<circle class="st0" cx="1401.6" cy="289.2" r="1.3"/>
		</g>
		<g>
			<polygon class="st4" points="1393.3,347.5 1368.5,346.6 1367.8,344.2 1394.1,345.1 			"/>
			<polygon class="st0" points="1393.3,347.5 1368.5,346.6 1367.8,344.2 1394.1,345.1 			"/>
		</g>
		<line class="st5" x1="1366.4" y1="248.1" x2="1403.3" y2="249.4"/>
		<line class="st5" x1="1366" y1="260" x2="1402.9" y2="261.3"/>
		<line class="st5" x1="1365.6" y1="271.9" x2="1402.5" y2="273.2"/>
		<polyline class="st12" points="1400.7,326.7 1381.6,327.5 1362.6,325.2 		"/>
		<line class="st11" x1="1381.6" y1="327.5" x2="1381" y2="344.6"/>
	</g>
</g>
<g id="monitor-left">
	<path id="power_4_" class="st13" d="M814.4,266.2h-35.2c-1.9,0-3.5-1.6-3.5-3.5v-2.2c0-1.9,1.6-3.5,3.5-3.5h35.2
		c1.9,0,3.5,1.6,3.5,3.5v2.2C817.9,264.6,816.4,266.2,814.4,266.2z"/>
	<path id="base_4_" class="st1" d="M420.4,217.9c0-3.4,3.4-6.3,7.7-6.3h210.8c4.2,0,7.7,2.9,7.7,6.3l-20.7,96.7
		c0,3.4-3.4,6.2-7.7,6.2H448.8c-4.2,0-7.7-2.8-7.7-6.2L420.4,217.9z"/>
	<g id="monitor_4_">
		<path class="st1" d="M968.5,58.7H58.3c-8.7,0-15.8,6.9-15.8,15.7l97,187.3h747.9l97-187.3C984.3,65.6,977.2,58.7,968.5,58.7z"/>
		<path class="st1" d="M968.5,58.7H58.3c-8.7,0-15.8,6.9-15.8,15.7l97,187.3h747.9l97-187.3C984.3,65.6,977.2,58.7,968.5,58.7z"/>
		<path class="st1" d="M968.5,43.3H58.3c-8.7,0-15.8,6.9-15.8,15.7l0,0l0,15.4c0-8.7,7.1-15.7,15.8-15.7h910.2
			c8.7,0,15.8,6.9,15.8,15.7l0.4-15.5C984.8,50.1,977.2,43.3,968.5,43.3z"/>
		<polygon id="_x3C_Path_x3E__4_" class="st1" points="876,247.5 960.1,78 66.7,78 150.8,247.5 		"/>
	</g>
</g>
<g id="monitor-right">
	<path id="power_1_" class="st13" d="M1803.2,266.2h-35.2c-1.9,0-3.5-1.6-3.5-3.5v-2.2c0-1.9,1.6-3.5,3.5-3.5h35.2
		c1.9,0,3.5,1.6,3.5,3.5v2.2C1806.7,264.6,1805.1,266.2,1803.2,266.2z"/>
	<path id="base_1_" class="st1" d="M1409.1,217.9c0-3.4,3.4-6.3,7.7-6.3h210.8c4.2,0,7.7,2.9,7.7,6.3l-20.7,96.7
		c0,3.4-3.4,6.2-7.7,6.2h-169.3c-4.2,0-7.7-2.8-7.7-6.2L1409.1,217.9z"/>
	<g id="monitor_1_">
		<path class="st1" d="M1957.2,58.7h-910.2c-8.7,0-15.8,6.9-15.8,15.7l97,187.3h747.9l97-187.3C1973.1,65.6,1966,58.7,1957.2,58.7z"
			/>
		<path class="st1" d="M1957.2,58.7h-910.2c-8.7,0-15.8,6.9-15.8,15.7l97,187.3h747.9l97-187.3C1973.1,65.6,1966,58.7,1957.2,58.7z"
			/>
		<path class="st1" d="M1957.2,43.3h-910.2c-8.7,0-15.8,6.9-15.8,15.7l0,0l0,15.4c0-8.7,7.1-15.7,15.8-15.7h910.2
			c8.7,0,15.8,6.9,15.8,15.7l0.4-15.5C1973.5,50.1,1966,43.3,1957.2,43.3z"/>
		<polygon id="_x3C_Path_x3E__1_" class="st1" points="1864.8,247.5 1948.8,78 1055.4,78 1139.5,247.5 		"/>
	</g>
</g>
</svg>
