<?xml version="1.0" encoding="utf-8"?>
<!-- Generator: Adobe Illustrator 17.1.0, SVG Export Plug-In . SVG Version: 6.00 Build 0)  -->
<!DOCTYPE svg PUBLIC "-//W3C//DTD SVG 1.1//EN" "http://www.w3.org/Graphics/SVG/1.1/DTD/svg11.dtd">
<svg version="1.1" id="Layer_1" xmlns="http://www.w3.org/2000/svg" xmlns:xlink="http://www.w3.org/1999/xlink" x="0px" y="0px"
	 viewBox="0 0 75 75" enable-background="new 0 0 75 75" xml:space="preserve">
<g>
	<rect x="2.3" y="98" fill="#FFFFFF" width="44.9" height="59.9"/>
</g>
<g>
	<g>
		<polygon fill="#08191E" points="50.2,139.4 2.3,139.4 26.3,151.3 		"/>
	</g>
	<g>
		<polygon fill="#FFCE35" points="26.3,151.3 2.3,139.4 2.3,163.3 50.2,163.3 50.2,139.4 		"/>
	</g>
</g>
<g>
	<rect x="29.3" y="109.4" fill="#FFCE35" width="44.8" height="8.2"/>
</g>
<g>
	<rect x="35.3" y="113.5" fill="#08191E" width="23.9" height="0.7"/>
</g>
<g>
	<rect x="35.3" y="110.9" fill="#FFFFFF" width="17.9" height="1.5"/>
</g>
<g>
	<rect x="35.3" y="118.8" fill="#FFFFFF" width="12" height="0.7"/>
</g>
<g>
	<rect x="2.3" y="124.4" fill="#FFFFFF" width="23.9" height="12"/>
</g>
<g>
	<circle fill="#08191E" cx="36.8" cy="106.4" r="1.5"/>
</g>
<g>
	<g>
		<rect x="2.3" y="129.4" fill="#FFCE35" width="23.9" height="4.1"/>
	</g>
	<g>
		<rect x="5.3" y="131.6" fill="#08191E" width="12" height="0.2"/>
	</g>
	<g>
		<rect x="5.3" y="130.2" fill="#FFFFFF" width="9" height="0.7"/>
	</g>
	<g>
		<circle fill="#08191E" cx="6.1" cy="127.9" r="0.7"/>
	</g>
	<g>
		<rect x="5.3" y="132.3" fill="#08191E" width="3" height="0.2"/>
	</g>
</g>
<g>
	<rect x="107.5" y="106.3" fill="#FF642F" width="46.9" height="27.3"/>
</g>
<g>
	<g>
		<g>
			<rect x="107.5" y="135.1" fill="#213538" width="4.2" height="1"/>
		</g>
	</g>
	<g>
		<g>
			<rect x="113.8" y="135.1" fill="#213538" width="4.2" height="1"/>
		</g>
	</g>
	<g>
		<g>
			<rect x="120.1" y="135.1" fill="#213538" width="4.2" height="1"/>
		</g>
	</g>
	<g>
		<g>
			<rect x="132.6" y="135.1" fill="#213538" width="4.2" height="1"/>
		</g>
	</g>
	<g>
		<g>
			<rect x="149.4" y="135.1" fill="#213538" width="5" height="1"/>
		</g>
	</g>
</g>
<g>
	<g>
		<g>
			<rect x="107.5" y="140.9" fill="#C4411F" width="14.2" height="1.6"/>
		</g>
	</g>
	<g>
		<g>
			<rect x="121.7" y="142.5" fill="#FF642F" width="6.1" height="1.6"/>
		</g>
	</g>
	<g>
		<g>
			<rect x="127.8" y="144.1" fill="#C4411F" width="12.2" height="1.6"/>
		</g>
	</g>
	<g>
		<g>
			<rect x="139.9" y="145.6" fill="#FF642F" width="14.2" height="1.6"/>
		</g>
	</g>
</g>
<g>
	<g>
		<g>
			<rect x="107.5" y="147.1" fill="#C4411F" width="20.3" height="1.6"/>
		</g>
	</g>
	<g>
		<g>
			<rect x="121.7" y="148.7" fill="#FF642F" width="13.1" height="1.6"/>
		</g>
	</g>
	<g>
		<g>
			<rect x="116.1" y="150.3" fill="#C4411F" width="27.6" height="1.6"/>
		</g>
	</g>
	<g>
		<g>
			<rect x="132.6" y="151.9" fill="#FF642F" width="21.5" height="1.6"/>
		</g>
	</g>
</g>
<g>
	<g>
		<rect x="95.4" y="18.5" fill="#D3D2D3" width="74.1" height="38.7"/>
		<g>
			<rect x="105.1" y="21.7" fill="#FFFFFF" width="48.3" height="33"/>
			<rect x="114.5" y="30" fill="#FF642F" width="17.2" height="17.2"/>
			<circle fill="#08191E" cx="131.7" cy="42.9" r="7.5"/>
			<polygon fill="#FFCE35" points="144.6,43.5 136,43.5 140.3,34.9 			"/>
			<rect x="105.1" y="21.7" fill="#08191E" width="48.3" height="3.2"/>
		</g>
		<g>
			<rect x="97" y="23.3" fill="#FFFFFF" width="6.4" height="12.9"/>
			<rect x="97" y="36.2" fill="#FFFFFF" width="6.4" height="12.9"/>
			<rect x="97" y="21.7" fill="#08191E" width="6.4" height="1.6"/>
			<g>
				<rect x="100.2" y="23.3" fill="#D3D2D3" width="0.2" height="25.8"/>
			</g>
			<g>
				<g>
					<g>
						<rect x="97" y="45.8" fill="#D3D2D3" width="6.4" height="0.2"/>
					</g>
				</g>
				<g>
					<g>
						<rect x="97" y="42.6" fill="#D3D2D3" width="6.4" height="0.2"/>
					</g>
				</g>
				<g>
					<g>
						<rect x="97" y="39.3" fill="#D3D2D3" width="6.4" height="0.2"/>
					</g>
				</g>
				<g>
					<g>
						<rect x="97" y="36.1" fill="#D3D2D3" width="6.4" height="0.2"/>
					</g>
				</g>
				<g>
					<g>
						<rect x="97" y="32.9" fill="#D3D2D3" width="6.4" height="0.2"/>
					</g>
				</g>
				<g>
					<g>
						<rect x="97" y="29.7" fill="#D3D2D3" width="6.4" height="0.2"/>
					</g>
				</g>
				<g>
					<g>
						<rect x="97" y="26.4" fill="#D3D2D3" width="6.4" height="0.2"/>
					</g>
				</g>
				<g>
					<path fill="#D3D2D3" d="M102.8,32.3H101v-1.8h1.8V32.3z M101.2,32.1h1.4v-1.4h-1.4V32.1z"/>
				</g>
				<g>
					<path fill="#D3D2D3" d="M99.6,41.9h-1.8v-1.8h1.8V41.9z M98,41.7h1.4v-1.4H98V41.7z"/>
				</g>
				<g>
					<path fill="#D3D2D3" d="M102.8,25.8H101V24h1.8V25.8z M101.2,25.6h1.4v-1.4h-1.4V25.6z"/>
				</g>
				<g>
					<rect x="101.8" y="24.1" fill="#D3D2D3" width="0.2" height="1.6"/>
				</g>
				<g>
					<rect x="97.9" y="27.3" fill="#D3D2D3" width="1.6" height="1.6"/>
					<path fill="#D3D2D3" d="M99.6,29.1h-1.8v-1.8h1.8V29.1z M98,28.9h1.4v-1.4H98V28.9z"/>
				</g>
				<g>
					
						<rect x="101.8" y="27.3" transform="matrix(0.7071 0.7071 -0.7071 0.7071 49.7453 -63.7952)" fill="#D3D2D3" width="0.2" height="1.6"/>
				</g>
				<g>
					<path fill="#D3D2D3" d="M99.6,38.3h-1.8v-1h1.8V38.3z M98,38.1h1.4v-0.6H98V38.1z"/>
				</g>
				<g>
					<rect x="98.6" y="30.6" fill="#D3D2D3" width="0.2" height="1.6"/>
				</g>
				<g>
					<rect x="97.9" y="34.2" fill="#D3D2D3" width="0.8" height="0.8"/>
					<path fill="#D3D2D3" d="M98.8,35.1h-1v-1h1V35.1z M98,34.9h0.6v-0.6H98V34.9z"/>
				</g>
				<g>
					<rect x="98.7" y="34.2" fill="#D3D2D3" width="0.8" height="0.8"/>
					<path fill="#D3D2D3" d="M99.6,35.1h-1v-1h1V35.1z M98.8,34.9h0.6v-0.6h-0.6V34.9z"/>
				</g>
				<g>
					<rect x="98.7" y="31.4" fill="#D3D2D3" width="0.8" height="0.8"/>
					<path fill="#D3D2D3" d="M99.6,32.3h-1v-1h1V32.3z M98.8,32.1h0.6v-0.6h-0.6V32.1z"/>
				</g>
				<g>
					<path fill="#D3D2D3" d="M98.8,31.5h-1v-1h1V31.5z M98,31.3h0.6v-0.6H98V31.3z"/>
				</g>
				<g>
					<path fill="#D3D2D3" d="M101.9,35.5c-0.5,0-0.9-0.4-0.9-0.9c0-0.5,0.4-0.9,0.9-0.9c0.5,0,0.9,0.4,0.9,0.9
						C102.8,35.1,102.4,35.5,101.9,35.5z M101.9,33.9c-0.4,0-0.7,0.3-0.7,0.7c0,0.4,0.3,0.7,0.7,0.7c0.4,0,0.7-0.3,0.7-0.7
						C102.6,34.2,102.3,33.9,101.9,33.9z"/>
				</g>
				<g>
					<path fill="#D3D2D3" d="M101.9,35.5c-0.5,0-0.9-0.4-0.9-0.9c0-0.5,0.4-0.9,0.9-0.9c0.5,0,0.9,0.4,0.9,0.9
						C102.8,35.1,102.4,35.5,101.9,35.5z M101.9,33.9c-0.4,0-0.7,0.3-0.7,0.7c0,0.4,0.3,0.7,0.7,0.7c0.4,0,0.7-0.3,0.7-0.7
						C102.6,34.2,102.3,33.9,101.9,33.9z"/>
				</g>
				<g>
					<path fill="#D3D2D3" d="M98.7,25.8c-0.5,0-0.9-0.4-0.9-0.9c0-0.5,0.4-0.9,0.9-0.9c0.5,0,0.9,0.4,0.9,0.9
						C99.6,25.4,99.2,25.8,98.7,25.8z M98.7,24.2c-0.4,0-0.7,0.3-0.7,0.7c0,0.4,0.3,0.7,0.7,0.7c0.4,0,0.7-0.3,0.7-0.7
						C99.4,24.5,99,24.2,98.7,24.2z"/>
				</g>
				<g>
					<path fill="#D3D2D3" d="M102.8,45.2H101v-1.8h1.8V45.2z M101.2,45h1.4v-1.4h-1.4V45z"/>
				</g>
				<g>
					<rect x="97.9" y="46.7" fill="#D3D2D3" width="1.6" height="1.6"/>
					<path fill="#D3D2D3" d="M99.6,48.4h-1.8v-1.8h1.8V48.4z M98,48.2h1.4v-1.4H98V48.2z"/>
				</g>
				<rect x="98.3" y="47.1" fill="#FFFFFF" width="0.8" height="0.8"/>
				<g>
					<rect x="101.5" y="47.1" fill="#D3D2D3" width="0.8" height="0.8"/>
					<path fill="#D3D2D3" d="M102.4,48h-1v-1h1V48z M101.6,47.8h0.6v-0.6h-0.6V47.8z"/>
				</g>
				<g>
					<path fill="#D3D2D3" d="M98.7,45.2c-0.5,0-0.9-0.4-0.9-0.9c0-0.5,0.4-0.9,0.9-0.9c0.5,0,0.9,0.4,0.9,0.9
						C99.6,44.8,99.2,45.2,98.7,45.2z M98.7,43.6c-0.4,0-0.7,0.3-0.7,0.7c0,0.4,0.3,0.7,0.7,0.7c0.4,0,0.7-0.3,0.7-0.7
						C99.4,43.9,99,43.6,98.7,43.6z"/>
				</g>
				<path fill="#D3D2D3" d="M101.9,35.4c-0.4,0-0.8-0.4-0.8-0.8s0.4-0.8,0.8-0.8V35.4z"/>
				<g>
					
						<rect x="97.5" y="40.9" transform="matrix(0.7071 0.7071 -0.7071 0.7071 57.9176 -57.74)" fill="#D3D2D3" width="2.3" height="0.2"/>
				</g>
			</g>
			<g>
				<path fill="#D3D2D3" d="M101.6,38.5c-0.4,0-0.6-0.3-0.6-0.6s0.3-0.6,0.6-0.6c0.4,0,0.6,0.3,0.6,0.6S102,38.5,101.6,38.5z
					 M101.6,37.4c-0.2,0-0.4,0.2-0.4,0.4c0,0.2,0.2,0.4,0.4,0.4c0.2,0,0.4-0.2,0.4-0.4C102,37.6,101.9,37.4,101.6,37.4z"/>
			</g>
			<g>
				<circle fill="#D3D2D3" cx="102.1" cy="37.8" r="0.5"/>
				<path fill="#D3D2D3" d="M102.1,38.5c-0.4,0-0.6-0.3-0.6-0.6s0.3-0.6,0.6-0.6c0.4,0,0.6,0.3,0.6,0.6S102.5,38.5,102.1,38.5z
					 M102.1,37.4c-0.2,0-0.4,0.2-0.4,0.4c0,0.2,0.2,0.4,0.4,0.4c0.2,0,0.4-0.2,0.4-0.4C102.6,37.6,102.4,37.4,102.1,37.4z"/>
			</g>
			<g>
				<g>
					<polygon fill="#D3D2D3" points="102.7,41.3 101.9,41.7 101.1,41.3 101.9,40.9 					"/>
					<path fill="#D3D2D3" d="M101.9,41.9l-1-0.5l1-0.5l1,0.5L101.9,41.9z M101.3,41.3l0.6,0.3l0.6-0.3l-0.6-0.3L101.3,41.3z"/>
				</g>
				<polygon fill="#FFFFFF" points="102.7,40.9 101.9,41.3 101.1,40.9 101.9,40.5 				"/>
				<g>
					<polygon fill="#D3D2D3" points="102.7,40.7 101.9,41.1 101.1,40.7 101.9,40.3 					"/>
					<path fill="#D3D2D3" d="M101.9,41.3l-1-0.5l1-0.5l1,0.5L101.9,41.3z M101.3,40.7l0.6,0.3l0.6-0.3l-0.6-0.3L101.3,40.7z"/>
				</g>
			</g>
			<rect x="101.9" y="43.5" fill="#D3D2D3" width="0.8" height="1.6"/>
		</g>
		<g>
			<rect x="155.1" y="37.8" fill="#FFFFFF" width="12.9" height="10.5"/>
			<rect x="155.1" y="37.8" fill="#08191E" width="12.9" height="1.6"/>
			<rect x="155.9" y="40.6" fill="#D3D2D3" width="11.3" height="1.6"/>
			<rect x="165.5" y="40.6" fill="#D3D2D3" width="1.6" height="1.6"/>
			<rect x="155.9" y="43.1" fill="#D3D2D3" width="11.3" height="1.6"/>
			<rect x="165.5" y="45.5" fill="#D3D2D3" width="1.6" height="1.6"/>
			<rect x="163.9" y="45.5" fill="#D3D2D3" width="1.6" height="1.6"/>
			<rect x="157.5" y="45.5" fill="#D3D2D3" width="1.6" height="1.6"/>
			<rect x="155.9" y="45.5" fill="#D3D2D3" width="1.6" height="1.6"/>
			<rect x="161.5" y="45.5" fill="#D3D2D3" width="1.6" height="1.6"/>
			<rect x="159.9" y="45.5" fill="#D3D2D3" width="1.6" height="1.6"/>
		</g>
		<g>
			<rect x="155.1" y="23.3" fill="#FFFFFF" width="12.9" height="12.9"/>
			<rect x="155.1" y="23.3" fill="#08191E" width="12.9" height="1.6"/>
			<rect x="155.9" y="26.1" fill="#D3D2D3" width="11.3" height="1.6"/>
			<g>
				<g>
					<rect x="165.5" y="28.6" fill="#D3D2D3" width="1.6" height="1.6"/>
				</g>
				<g>
					<rect x="163.1" y="28.6" fill="#D3D2D3" width="1.6" height="1.6"/>
				</g>
				<g>
					<rect x="160.7" y="28.6" fill="#D3D2D3" width="1.6" height="1.6"/>
				</g>
				<g>
					<rect x="158.3" y="28.6" fill="#D3D2D3" width="1.6" height="1.6"/>
				</g>
				<g>
					<rect x="155.9" y="28.6" fill="#D3D2D3" width="1.6" height="1.6"/>
				</g>
			</g>
		</g>
	</g>
	<rect x="155.9" y="31" fill="#D3D2D3" width="11.3" height="4"/>
</g>
<g>
	<rect x="206.5" y="16.6" fill="#FFFFFF" width="46.3" height="45.2"/>
	<rect x="206.5" y="12" fill="#91D3D9" width="46.3" height="2.3"/>
	<rect x="206.5" y="14.3" fill="#E6E5E5" width="46.3" height="2.3"/>
	<rect x="210.5" y="15" fill="#FFFFFF" width="38.2" height="0.9"/>
	<rect x="206.5" y="13.1" fill="#F68360" width="4" height="1.2"/>
	<rect x="210.5" y="13.1" fill="#E6E5E5" width="9.6" height="1.2"/>
	<g>
		<g>
			<rect x="208.8" y="15" fill="#CCCBCA" width="0.9" height="0.9"/>
			<rect x="207.3" y="15" fill="#CCCBCA" width="0.9" height="0.9"/>
			<rect x="251.1" y="15" fill="#CCCBCA" width="0.9" height="0.9"/>
			<rect x="249.6" y="15" fill="#CCCBCA" width="0.9" height="0.9"/>
		</g>
	</g>
	<rect x="218.6" y="18.7" fill="#CCCBCA" width="22.2" height="2.9"/>
	<rect x="218.6" y="2.2" fill="#FF9978" width="22.2" height="2.9"/>
	<rect x="206.5" y="27.3" fill="#C4EDF1" width="46.3" height="14"/>
	<g>
		<g>
			<rect x="211.8" y="23.6" fill="#91D3D9" width="7.3" height="1.1"/>
			<rect x="221.3" y="23.6" fill="#91D3D9" width="7.3" height="1.1"/>
			<rect x="230.7" y="23.6" fill="#91D3D9" width="7.3" height="1.1"/>
			<rect x="240.2" y="23.6" fill="#91D3D9" width="7.3" height="1.1"/>
		</g>
	</g>
	<g>
		<rect x="212.5" y="29.7" fill="#91D3D9" width="9.1" height="9.1"/>
		<g>
			<rect x="225.7" y="29.7" fill="#91D3D9" width="21.1" height="1.5"/>
			<rect x="225.7" y="32.4" fill="#FFFFFF" width="21.1" height="0.4"/>
			<rect x="225.7" y="33.7" fill="#FFFFFF" width="21.1" height="0.4"/>
			<rect x="230.6" y="35" fill="#FFFFFF" width="11.3" height="0.4"/>
		</g>
	</g>
	<g>
		<rect x="192" y="43.8" fill="#FF9978" width="9.1" height="9.1"/>
		<g>
			<rect x="193.5" y="45.4" fill="#ED6D47" width="5.9" height="1"/>
			<rect x="193.5" y="47.1" fill="#FFFFFF" width="5.9" height="0.3"/>
			<rect x="193.5" y="48.1" fill="#FFFFFF" width="5.9" height="0.3"/>
			<rect x="193.5" y="49.1" fill="#FFFFFF" width="3" height="0.3"/>
		</g>
	</g>
	<g>
		<rect x="212.5" y="54.2" fill="#FFC86D" width="9.1" height="0.5"/>
		<rect x="212.5" y="55.6" fill="#CCCBCA" width="9.1" height="0.5"/>
		<rect x="212.5" y="56.9" fill="#CCCBCA" width="4.7" height="0.5"/>
	</g>
	<g>
		<rect x="225.1" y="54.2" fill="#FFC86D" width="9.1" height="0.5"/>
		<rect x="225.1" y="55.6" fill="#CCCBCA" width="9.1" height="0.5"/>
		<rect x="225.1" y="56.9" fill="#CCCBCA" width="4.7" height="0.5"/>
	</g>
	<g>
		<rect x="237.7" y="54.2" fill="#FFC86D" width="9.1" height="0.5"/>
		<rect x="237.7" y="55.6" fill="#CCCBCA" width="9.1" height="0.5"/>
		<rect x="237.7" y="56.9" fill="#CCCBCA" width="4.7" height="0.5"/>
	</g>
	<rect x="212.5" y="43.8" fill="#CCCBCA" width="9.1" height="9.1"/>
	<g>
		<rect x="237.7" y="43.8" fill="#FFC86D" width="9.1" height="9.1"/>
		<g>
			<g>
				
					<rect x="242.2" y="41.9" transform="matrix(0.7084 0.7058 -0.7058 0.7084 104.7421 -156.8901)" fill="#FFB959" width="0.1" height="12.9"/>
				
					<rect x="235.8" y="48.3" transform="matrix(0.7071 0.7071 -0.7071 0.7071 105.1334 -157.1518)" fill="#FFB959" width="12.9" height="0.1"/>
				<path fill="#FFB959" d="M246.9,52.9h-9.2v-9.2h9.2V52.9z M237.8,52.8h9v-9h-9V52.8z"/>
			</g>
		</g>
	</g>
	<g>
		<rect x="225.1" y="43.8" fill="#ABE0E5" width="9.1" height="9.1"/>
		<g>
			<g>
				
					<rect x="229.6" y="41.9" transform="matrix(0.7084 0.7058 -0.7058 0.7084 101.0823 -148.01)" fill="#91D3D9" width="0.1" height="12.9"/>
				
					<rect x="223.2" y="48.3" transform="matrix(0.7071 0.7071 -0.7071 0.7071 101.4394 -148.2434)" fill="#91D3D9" width="12.9" height="0.1"/>
				<path fill="#91D3D9" d="M234.3,52.9h-9.2v-9.2h9.2V52.9z M225.2,52.8h9v-9h-9V52.8z"/>
			</g>
		</g>
	</g>
	<g>
		<g>
			<rect x="214" y="31.2" fill="#C4EDF1" width="0.6" height="0.6"/>
			<rect x="215.1" y="31.2" fill="#FFFFFF" width="5.1" height="0.6"/>
		</g>
		<g>
			<rect x="214" y="32.7" fill="#C4EDF1" width="0.6" height="0.6"/>
			<rect x="215.1" y="32.7" fill="#FFFFFF" width="5.1" height="0.6"/>
		</g>
	</g>
	<g>
		<rect x="218.5" y="18.1" fill="#474F59" width="0.2" height="0.5"/>
		<path fill="#474F59" d="M218.6,17h-0.2v-1.1h0.2V17z M218.6,14.7h-0.2v-1.1h0.2V14.7z M218.6,12.5h-0.2v-1.1h0.2V12.5z
			 M218.6,10.2h-0.2V9.1h0.2V10.2z M218.6,8h-0.2V6.8h0.2V8z"/>
		<rect x="218.5" y="5.1" fill="#474F59" width="0.2" height="0.5"/>
	</g>
	<g>
		<rect x="240.7" y="5.1" fill="#474F59" width="0.2" height="0.5"/>
		<path fill="#474F59" d="M240.8,17h-0.2v-1.1h0.2V17z M240.8,14.7h-0.2v-1.1h0.2V14.7z M240.8,12.5h-0.2v-1.1h0.2V12.5z
			 M240.8,10.2h-0.2V9.1h0.2V10.2z M240.8,8h-0.2V6.8h0.2V8z"/>
		<rect x="240.7" y="18.1" fill="#474F59" width="0.2" height="0.5"/>
	</g>
	<path fill="#474F59" d="M212.5,43.9h-0.7v-0.2h0.7V43.9z M210.8,43.9h-1.1v-0.2h1.1V43.9z M208.6,43.9h-1.1v-0.2h1.1V43.9z
		 M206.5,43.9h-1.1v-0.2h1.1V43.9z M204.3,43.9h-1.1v-0.2h1.1V43.9z M202.1,43.9h-1.1v-0.2h1.1V43.9z"/>
	<path fill="#474F59" d="M212.5,53h-0.7v-0.2h0.7V53z M210.8,53h-1.1v-0.2h1.1V53z M208.6,53h-1.1v-0.2h1.1V53z M206.5,53h-1.1v-0.2
		h1.1V53z M204.3,53h-1.1v-0.2h1.1V53z M202.1,53h-1.1v-0.2h1.1V53z"/>
</g>
<g>
	<g>
		<rect x="218.6" y="42.5" fill="#FFFFFF" width="43.1" height="27.3"/>
		<rect x="218.6" y="38.2" fill="#91D3D9" width="43.1" height="2.2"/>
		<rect x="218.6" y="40.4" fill="#E6E5E5" width="43.1" height="2.2"/>
		<rect x="222.4" y="41" fill="#FFFFFF" width="35.6" height="0.9"/>
		<rect x="218.6" y="39.3" fill="#F68360" width="3.7" height="1.1"/>
		<rect x="222.4" y="39.3" fill="#E6E5E5" width="8.9" height="1.1"/>
		<g>
			<g>
				<rect x="220.8" y="41" fill="#CCCBCA" width="0.9" height="0.9"/>
				<rect x="219.4" y="41" fill="#CCCBCA" width="0.9" height="0.9"/>
				<rect x="260.1" y="41" fill="#CCCBCA" width="0.9" height="0.9"/>
				<rect x="258.8" y="41" fill="#CCCBCA" width="0.9" height="0.9"/>
			</g>
		</g>
	</g>
	<g>
		<g>
			<g>
				<rect x="223.2" y="44.8" fill="#FF9978" width="16.1" height="10.2"/>
			</g>
			<g>
				<g>
					<g>
						<path fill="#474F59" d="M231.2,47.1c-1.6,0-2.9,1.3-2.9,2.9s1.3,2.9,2.9,2.9c1.6,0,2.9-1.3,2.9-2.9S232.8,47.1,231.2,47.1z
							 M231.2,50.6c-0.4,0-0.6-0.3-0.6-0.6s0.3-0.6,0.6-0.6c0.4,0,0.6,0.3,0.6,0.6S231.6,50.6,231.2,50.6z"/>
						<g>
							<rect x="230.9" y="46.5" fill="#474F59" width="0.8" height="0.6"/>
							
								<rect x="229.3" y="46.9" transform="matrix(0.866 -0.5001 0.5001 0.866 7.1555 121.1987)" fill="#474F59" width="0.8" height="0.6"/>
							
								<rect x="228.2" y="48.1" transform="matrix(0.5006 -0.8657 0.8657 0.5006 72.2601 222.0257)" fill="#474F59" width="0.8" height="0.6"/>
							<rect x="227.8" y="49.6" fill="#474F59" width="0.6" height="0.8"/>
							
								<rect x="228.2" y="51.2" transform="matrix(-0.5008 -0.8656 0.8656 -0.5008 298.4613 275.1006)" fill="#474F59" width="0.8" height="0.6"/>
							
								<rect x="229.3" y="52.3" transform="matrix(-0.8666 -0.499 0.499 -0.8666 402.4885 212.8395)" fill="#474F59" width="0.8" height="0.6"/>
							<rect x="230.9" y="52.7" fill="#474F59" width="0.8" height="0.6"/>
							
								<rect x="232.4" y="52.3" transform="matrix(-0.8657 0.5006 -0.5006 -0.8657 460.6593 -18.3798)" fill="#474F59" width="0.8" height="0.6"/>
							
								<rect x="233.6" y="51.2" transform="matrix(-0.5004 0.8658 -0.8658 -0.5004 395.5588 -125.2905)" fill="#474F59" width="0.8" height="0.6"/>
							<rect x="234" y="49.6" fill="#474F59" width="0.6" height="0.8"/>
							
								<rect x="233.6" y="48.1" transform="matrix(0.5006 0.8657 -0.8657 0.5006 158.7109 -178.3449)" fill="#474F59" width="0.8" height="0.6"/>
							
								<rect x="232.4" y="46.9" transform="matrix(0.865 0.5017 -0.5017 0.865 55.1215 -110.4146)" fill="#474F59" width="0.8" height="0.6"/>
						</g>
					</g>
				</g>
				<path fill="#FFFFFF" d="M231.2,48.5c-0.8,0-1.4,0.6-1.4,1.4c0,0.8,0.6,1.4,1.4,1.4c0.8,0,1.4-0.6,1.4-1.4
					C232.7,49.2,232,48.5,231.2,48.5z M231.2,50.6c-0.4,0-0.6-0.3-0.6-0.6c0-0.3,0.3-0.6,0.6-0.6c0.3,0,0.6,0.3,0.6,0.6
					C231.9,50.3,231.6,50.6,231.2,50.6z"/>
			</g>
			<rect x="223.2" y="56.9" fill="#FFD680" width="16.1" height="3.6"/>
			<rect x="241.1" y="56.9" fill="#FFD680" width="16.1" height="3.6"/>
			<g>
				<g>
					<rect x="241.6" y="44.8" fill="#CCCBCA" width="15.6" height="0.8"/>
					<rect x="241.6" y="46.8" fill="#CCCBCA" width="15.6" height="0.8"/>
					<rect x="241.6" y="48.7" fill="#CCCBCA" width="5.1" height="0.8"/>
				</g>
			</g>
			<g>
				<rect x="223.2" y="62.3" fill="#474F59" width="34" height="0.8"/>
				<rect x="223.2" y="64.2" fill="#CCCBCA" width="34" height="0.8"/>
				<rect x="223.2" y="66.2" fill="#CCCBCA" width="17" height="0.8"/>
			</g>
		</g>
	</g>
</g>
<g>
	<rect x="190.9" y="112" fill="#FFFFFF" width="73.6" height="48.9"/>
	<g>
		<rect x="194.7" y="120.4" fill="#CCCBCA" width="66" height="4.4"/>
		<rect x="196.4" y="122.1" fill="#FFFFFF" width="9.9" height="1.1"/>
		<rect x="207.9" y="120.4" fill="#474F59" width="13.2" height="4.4"/>
		<rect x="222.8" y="122.1" fill="#FFFFFF" width="9.9" height="1.1"/>
		<rect x="236" y="122.1" fill="#FFFFFF" width="9.9" height="1.1"/>
		<rect x="249.2" y="122.1" fill="#FFFFFF" width="9.9" height="1.1"/>
	</g>
	<g>
		<g>
			<g>
				
					<rect x="214.3" y="131.6" transform="matrix(0.5819 0.8133 -0.8133 0.5819 201.2564 -117.0331)" fill="#D9D8D7" width="0.4" height="11.3"/>
				
					<rect x="208.8" y="148.4" transform="matrix(0.8116 0.5842 -0.5842 0.8116 127.1803 -97.3002)" fill="#D9D8D7" width="11.3" height="0.4"/>
				<rect x="233" y="133.9" fill="#D9D8D7" width="8.8" height="0.4"/>
				<rect x="233" y="151.5" fill="#D9D8D7" width="8.8" height="0.4"/>
			</g>
		</g>
		<rect x="199.4" y="137.6" fill="#474F59" width="10.6" height="10.6"/>
		<rect x="218.9" y="130.5" fill="#F68360" width="14.2" height="7.1"/>
		<rect x="218.9" y="148.2" fill="#F68360" width="14.2" height="7.1"/>
		<rect x="241.9" y="130.5" fill="#F68360" width="14.2" height="7.1"/>
		<rect x="241.9" y="148.2" fill="#F68360" width="14.2" height="7.1"/>
		<g>
			<rect x="221.5" y="132.6" fill="#474F59" width="8.8" height="0.5"/>
			<rect x="221.5" y="133.8" fill="#FFFFFF" width="8.8" height="0.5"/>
			<rect x="221.5" y="135" fill="#FFFFFF" width="4.4" height="0.5"/>
		</g>
		<g>
			<rect x="221.5" y="150.3" fill="#474F59" width="8.8" height="0.5"/>
			<rect x="221.5" y="151.5" fill="#FFFFFF" width="8.8" height="0.5"/>
			<rect x="221.5" y="152.7" fill="#FFFFFF" width="4.4" height="0.5"/>
		</g>
		<g>
			<rect x="244.5" y="150.3" fill="#474F59" width="8.8" height="0.5"/>
			<rect x="244.5" y="151.5" fill="#FFFFFF" width="8.8" height="0.5"/>
			<rect x="244.5" y="152.7" fill="#FFFFFF" width="4.4" height="0.5"/>
		</g>
		<g>
			<rect x="244.5" y="132.6" fill="#474F59" width="8.8" height="0.5"/>
			<rect x="244.5" y="133.8" fill="#FFFFFF" width="8.8" height="0.5"/>
			<rect x="244.5" y="135" fill="#FFFFFF" width="4.4" height="0.5"/>
		</g>
		<g>
			<rect x="201" y="141.5" fill="#F68360" width="7.4" height="0.5"/>
			<rect x="201" y="142.6" fill="#FFFFFF" width="7.4" height="0.5"/>
			<rect x="201" y="143.8" fill="#FFFFFF" width="3.7" height="0.5"/>
		</g>
	</g>
	<rect x="190.9" y="112" fill="#A3D8D9" width="73.6" height="4.6"/>
</g>
<g>
	<g>
		<path fill="#FFFFFF" d="M131.6,124.3l0-0.2c0.4,0,0.8-0.1,1.2-0.2l0.1,0.2C132.4,124.2,132,124.3,131.6,124.3z M130.3,124.2
			c-0.4-0.1-0.9-0.2-1.3-0.3l0.1-0.2c0.4,0.1,0.8,0.3,1.2,0.3L130.3,124.2z M134.1,123.6l-0.1-0.2c0.4-0.2,0.7-0.4,1-0.7l0.1,0.2
			C134.8,123.1,134.5,123.3,134.1,123.6z M127.8,123.3c-0.4-0.2-0.7-0.5-1-0.8l0.2-0.2c0.3,0.3,0.6,0.6,1,0.8L127.8,123.3z
			 M136.1,121.8l-0.2-0.1c0.3-0.3,0.5-0.7,0.6-1.1l0.2,0.1C136.5,121.1,136.3,121.5,136.1,121.8z M126,121.5
			c-0.2-0.4-0.4-0.8-0.6-1.2l0.2-0.1c0.1,0.4,0.3,0.8,0.6,1.1L126,121.5z M137.1,119.5l-0.2,0c0.1-0.4,0.1-0.8,0.1-1.3h0.2
			C137.3,118.6,137.2,119,137.1,119.5z M125,119c0-0.3-0.1-0.6-0.1-0.9c0-0.1,0-0.3,0-0.4l0.2,0c0,0.1,0,0.3,0,0.4
			c0,0.3,0,0.6,0.1,0.8L125,119z M125.4,116.5l-0.2-0.1c0.1-0.4,0.3-0.8,0.5-1.2l0.2,0.1C125.7,115.7,125.6,116.1,125.4,116.5z
			 M126.6,114.3l-0.2-0.1c0.3-0.3,0.6-0.6,1-0.9l0.1,0.2C127.2,113.7,126.9,113.9,126.6,114.3z M128.7,112.7l-0.1-0.2
			c0.4-0.2,0.8-0.3,1.2-0.4l0,0.2C129.5,112.4,129,112.6,128.7,112.7z"/>
	</g>
	<g>
		<circle fill="#FFFFFF" cx="131.1" cy="112.1" r="0.9"/>
		<path fill="#231F20" d="M131.1,113c-0.5,0-0.9-0.4-0.9-0.9c0-0.5,0.4-0.9,0.9-0.9c0.5,0,0.9,0.4,0.9,0.9
			C132,112.6,131.6,113,131.1,113z M131.1,111.3c-0.5,0-0.9,0.4-0.9,0.9s0.4,0.9,0.9,0.9c0.5,0,0.9-0.4,0.9-0.9
			S131.6,111.3,131.1,111.3z"/>
	</g>
	<circle fill="#FFFFFF" cx="137.2" cy="118.2" r="0.9"/>
</g>
<g>
	<g>
		<path fill="#FFFFFF" d="M130.5,121.8c-2,0-3.6-1.6-3.6-3.6c0-2,1.6-3.6,3.6-3.6s3.6,1.6,3.6,3.6
			C134.1,120.2,132.5,121.8,130.5,121.8z M130.5,114.7c-1.9,0-3.5,1.6-3.5,3.5s1.6,3.5,3.5,3.5s3.5-1.6,3.5-3.5
			S132.4,114.7,130.5,114.7z"/>
	</g>
	<circle fill="#FFFFFF" cx="130.5" cy="118.2" r="0.9"/>
</g>
<g>
	<path fill="#FFFFFF" d="M130.5,126.5L130.5,126.5C130.5,126.5,130.5,126.5,130.5,126.5c-1.1,0-2.2-0.2-3.2-0.6l0.2-0.5
		c0.9,0.4,2,0.6,3,0.6L130.5,126.5z M133.7,125.9l-0.2-0.5c1-0.4,1.8-1,2.5-1.7l0.4,0.4C135.6,124.9,134.7,125.5,133.7,125.9z
		 M124.6,124.1c-0.8-0.8-1.4-1.7-1.8-2.7l0.5-0.2c0.4,1,1,1.8,1.7,2.5L124.6,124.1z M138.2,121.4l-0.5-0.2c0.4-0.9,0.6-2,0.6-3v0
		h0.5v0C138.8,119.3,138.6,120.4,138.2,121.4z M122.2,118.2L122.2,118.2c0-1.1,0.2-2.2,0.6-3.2l0.5,0.2c-0.4,0.9-0.6,1.9-0.6,3
		L122.2,118.2z M137.7,115.2c-0.4-1-1-1.8-1.7-2.5l0.4-0.4c0.8,0.8,1.4,1.7,1.8,2.7L137.7,115.2z M124.9,112.7l-0.4-0.4
		c0.8-0.8,1.7-1.4,2.7-1.8l0.2,0.5C126.5,111.4,125.7,112,124.9,112.7z M133.5,111c-0.9-0.4-1.9-0.6-3-0.6l0-0.3l0-0.2
		c1.1,0,2.2,0.2,3.2,0.6L133.5,111z"/>
</g>
<g>
	<g>
		<g>
			<g>
				<path fill="#15B0BF" d="M30.5,70.6c-0.4,0-0.7,0.3-0.7,0.7c0,0.4,0.3,0.7,0.7,0.7h14c0.4,0,0.7-0.3,0.7-0.7
					c0-0.4-0.3-0.7-0.7-0.7H30.5L30.5,70.6z"/>
			</g>
		</g>
		<path fill="#D1ECFB" d="M20,36.3c0-9.7,7.8-17.5,17.5-17.5c9.7,0,17.5,7.8,17.5,17.5c0,0.6-0.4,8.7-7,17.1
			c-1.9,2.6-1.6,7.7-1.6,7.7c-2.7,0-4.9,0-7.7,0c-0.8,0-1.7,0-2.5,0c-2.7,0-5,0-7.7,0c0,0,0.4-5.1-1.6-7.7C20.4,45,20,36.9,20,36.3z
			"/>
		<path fill="#FFFFFF" d="M37.5,61.2c-2.7,0-6.2,0-8.9,0c0,0,0.4-5.1-1.6-7.7c-6.6-8.5-7-16.6-7-17.1c0-9.7,7.8-17.5,17.5-17.5"/>
		<g>
			<path fill="#FFFFFF" d="M51.3,36.3h-1.5c0-6.7-5.5-12.2-12.2-12.2v-1.5C45.1,22.5,51.3,28.7,51.3,36.3L51.3,36.3z"/>
		</g>
		<g>
			<g>
				<g>
					<polygon fill="#1695A4" points="41.3,62.5 39.8,62.3 42.8,44.2 44.3,44.4 41.3,62.5 					"/>
				</g>
				<g>
					<polygon fill="#1695A4" points="33.7,62.5 30.7,44.4 32.2,44.2 35.2,62.3 33.7,62.5 					"/>
				</g>
			</g>
			<g>
				<path fill="#1695A4" d="M43.5,46.7c-0.6,0-0.9-0.6-1.1-1.1c-0.1-0.2-0.3-0.6-0.4-0.6c-0.1,0-0.2,0.3-0.3,0.5
					c-0.2,0.5-0.4,1.1-1.2,1.1c-0.4,0-0.7-0.4-1-0.9c-0.1-0.2-0.3-0.5-0.4-0.6c-0.1,0.1-0.3,0.4-0.4,0.6c-0.3,0.5-0.6,1-1.1,1
					c-0.5,0-0.8-0.5-1.1-1c-0.1-0.2-0.3-0.5-0.4-0.6c-0.1,0.1-0.3,0.4-0.4,0.6c-0.3,0.5-0.6,1-1,1c-0.5,0-0.8-0.6-1.2-1.1
					c-0.1-0.2-0.3-0.4-0.4-0.5c-0.1,0-0.2,0.2-0.4,0.6c-0.2,0.4-0.4,1-1,1v-0.8c0.1,0,0.2-0.3,0.3-0.5c0.2-0.5,0.4-1.1,1.2-1.1
					c0.4,0,0.7,0.4,1,0.9c0.1,0.2,0.3,0.5,0.4,0.6c0.1-0.1,0.3-0.4,0.4-0.6c0.3-0.5,0.6-1,1.1-1c0.5,0,0.8,0.5,1.1,1
					c0.1,0.2,0.3,0.5,0.4,0.6c0.1-0.1,0.3-0.4,0.4-0.6c0.3-0.5,0.6-1,1-1c0.5,0,0.8,0.6,1.2,1.1c0.1,0.2,0.3,0.4,0.4,0.5
					c0.1,0,0.2-0.2,0.4-0.6c0.2-0.4,0.4-1,1-1c0.6,0,0.9,0.6,1.1,1.1c0.1,0.2,0.3,0.6,0.4,0.6V46.7L43.5,46.7z"/>
			</g>
		</g>
		<path fill="#1695A4" d="M46.4,61.2v9.1c0,0.6-0.5,1.1-1.1,1.1H29.7c-0.6,0-1.1-0.5-1.1-1.1v-9.1H46.4z"/>
		<g>
			<g>
				<line fill="#103754" x1="46.8" y1="62" x2="28.2" y2="62"/>
				<path fill="#15B0BF" d="M46.8,62.9H28.2c-0.5,0-0.9-0.4-0.9-0.9s0.4-0.9,0.9-0.9h18.5c0.5,0,0.9,0.4,0.9,0.9
					S47.3,62.9,46.8,62.9L46.8,62.9z"/>
			</g>
			<g>
				<line fill="#1695A4" x1="46.8" y1="65" x2="28.2" y2="65"/>
				<path fill="#15B0BF" d="M46.8,65.9H28.2c-0.5,0-0.9-0.4-0.9-0.9c0-0.5,0.4-0.9,0.9-0.9h18.5c0.5,0,0.9,0.4,0.9,0.9
					C47.7,65.5,47.3,65.9,46.8,65.9L46.8,65.9z"/>
			</g>
			<g>
				<line fill="#1695A4" x1="46.8" y1="68" x2="28.2" y2="68"/>
				<path fill="#15B0BF" d="M46.8,68.9H28.2c-0.5,0-0.9-0.4-0.9-0.9c0-0.5,0.4-0.9,0.9-0.9h18.5c0.5,0,0.9,0.4,0.9,0.9
					C47.7,68.5,47.3,68.9,46.8,68.9L46.8,68.9z"/>
			</g>
		</g>
	</g>
	<g>
		<g>
			<path fill="#FFFFFF" d="M37.5,13.1c-0.3,0-0.5-0.2-0.5-0.5V3.1c0-0.3,0.2-0.5,0.5-0.5c0.3,0,0.5,0.2,0.5,0.5v9.6
				C37.9,12.9,37.7,13.1,37.5,13.1L37.5,13.1z"/>
		</g>
		<g>
			<path fill="#FFFFFF" d="M25.2,16.4c-0.2,0-0.3-0.1-0.4-0.2L20,7.9c-0.1-0.2-0.1-0.5,0.2-0.6c0.2-0.1,0.5-0.1,0.6,0.2l4.8,8.3
				c0.1,0.2,0.1,0.5-0.2,0.6C25.4,16.4,25.3,16.4,25.2,16.4L25.2,16.4z"/>
		</g>
		<g>
			<path fill="#FFFFFF" d="M16.3,25.4c-0.1,0-0.2,0-0.2-0.1l-8.3-4.8c-0.2-0.1-0.3-0.4-0.2-0.6c0.1-0.2,0.4-0.3,0.6-0.2l8.3,4.8
				c0.2,0.1,0.3,0.4,0.2,0.6C16.6,25.3,16.4,25.4,16.3,25.4L16.3,25.4z"/>
		</g>
		<g>
			<path fill="#FFFFFF" d="M13,37.6H3.4c-0.3,0-0.5-0.2-0.5-0.5c0-0.3,0.2-0.5,0.5-0.5H13c0.3,0,0.5,0.2,0.5,0.5
				C13.5,37.4,13.3,37.6,13,37.6L13,37.6z"/>
		</g>
		<g>
			<path fill="#FFFFFF" d="M20.5,67.2c-0.1,0-0.2,0-0.2-0.1c-0.2-0.1-0.3-0.4-0.2-0.6l4.8-8.3c0.1-0.2,0.4-0.3,0.6-0.2
				c0.2,0.1,0.3,0.4,0.2,0.6l-4.8,8.3C20.8,67.1,20.6,67.2,20.5,67.2L20.5,67.2z"/>
		</g>
		<g>
			<path fill="#FFFFFF" d="M54.6,67.1c-0.2,0-0.3-0.1-0.4-0.2l-4.8-8.3c-0.1-0.2-0.1-0.5,0.2-0.6c0.2-0.1,0.5-0.1,0.6,0.2l4.8,8.3
				c0.1,0.2,0.1,0.5-0.2,0.6C54.7,67.1,54.6,67.1,54.6,67.1L54.6,67.1z"/>
		</g>
		<g>
			<path fill="#FFFFFF" d="M67,54.7c-0.1,0-0.2,0-0.2-0.1l-8.3-4.8c-0.2-0.1-0.3-0.4-0.2-0.6c0.1-0.2,0.4-0.3,0.6-0.2l8.3,4.8
				c0.2,0.1,0.3,0.4,0.2,0.6C67.3,54.6,67.2,54.7,67,54.7L67,54.7z"/>
		</g>
		<g>
			<path fill="#FFFFFF" d="M71.6,37.6H62c-0.3,0-0.5-0.2-0.5-0.5c0-0.3,0.2-0.5,0.5-0.5h9.6c0.3,0,0.5,0.2,0.5,0.5
				C72.1,37.4,71.9,37.6,71.6,37.6L71.6,37.6z"/>
		</g>
		<g>
			<path fill="#FFFFFF" d="M58.7,25.4c-0.2,0-0.3-0.1-0.4-0.2c-0.1-0.2-0.1-0.5,0.2-0.6l8.3-4.8c0.2-0.1,0.5-0.1,0.6,0.2
				c0.1,0.2,0.1,0.5-0.2,0.6l-8.3,4.8C58.9,25.3,58.8,25.4,58.7,25.4L58.7,25.4z"/>
		</g>
		<g>
			<path fill="#FFFFFF" d="M49.7,16.4c-0.1,0-0.2,0-0.2-0.1c-0.2-0.1-0.3-0.4-0.2-0.6l4.8-8.3c0.1-0.2,0.4-0.3,0.6-0.2
				c0.2,0.1,0.3,0.4,0.2,0.6l-4.8,8.3C50.1,16.3,49.9,16.4,49.7,16.4L49.7,16.4z"/>
		</g>
		<g>
			<path fill="#FFFFFF" d="M37.5,13.1c-0.3,0-0.5-0.2-0.5-0.5V3.1c0-0.3,0.2-0.5,0.5-0.5c0.3,0,0.5,0.2,0.5,0.5v9.6
				C37.9,12.9,37.7,13.1,37.5,13.1L37.5,13.1z"/>
		</g>
	</g>
	<g>
		<g>
			<path fill="#A6DAE9" d="M37.5,13.1c-0.3,0-0.5-0.2-0.5-0.5V3.1c0-0.3,0.2-0.5,0.5-0.5c0.3,0,0.5,0.2,0.5,0.5v9.6
				C38,12.9,37.8,13.1,37.5,13.1L37.5,13.1z"/>
		</g>
		<g>
			<path fill="#A6DAE9" d="M49.8,16.4c-0.1,0-0.2,0-0.2-0.1c-0.2-0.1-0.3-0.4-0.2-0.6l4.8-8.3c0.1-0.2,0.4-0.3,0.6-0.2
				C55,7.4,55.1,7.6,55,7.9l-4.8,8.3C50.1,16.3,49.9,16.4,49.8,16.4L49.8,16.4z"/>
		</g>
		<g>
			<path fill="#A6DAE9" d="M58.7,25.4c-0.2,0-0.3-0.1-0.4-0.2c-0.1-0.2-0.1-0.5,0.2-0.6l8.3-4.8c0.2-0.1,0.5-0.1,0.6,0.2
				c0.1,0.2,0.1,0.5-0.2,0.6l-8.3,4.8C58.9,25.4,58.8,25.4,58.7,25.4L58.7,25.4z"/>
		</g>
		<g>
			<path fill="#A6DAE9" d="M71.6,37.6H62c-0.3,0-0.5-0.2-0.5-0.5c0-0.3,0.2-0.5,0.5-0.5h9.6c0.3,0,0.5,0.2,0.5,0.5
				C72.1,37.4,71.9,37.6,71.6,37.6L71.6,37.6z"/>
		</g>
		<g>
			<path fill="#A6DAE9" d="M54.5,67.2c-0.2,0-0.3-0.1-0.4-0.2l-4.8-8.3c-0.1-0.2-0.1-0.5,0.2-0.6c0.2-0.1,0.5-0.1,0.6,0.2l4.8,8.3
				c0.1,0.2,0.1,0.5-0.2,0.6C54.7,67.1,54.6,67.2,54.5,67.2L54.5,67.2z"/>
		</g>
		<g>
			<path fill="#A6DAE9" d="M20.4,67.1c-0.1,0-0.2,0-0.2-0.1C20,67,19.9,66.7,20,66.5l4.8-8.3c0.1-0.2,0.4-0.3,0.6-0.2
				c0.2,0.1,0.3,0.4,0.2,0.6l-4.8,8.3C20.8,67.1,20.6,67.1,20.4,67.1L20.4,67.1z"/>
		</g>
		<g>
			<path fill="#A6DAE9" d="M8,54.7c-0.2,0-0.3-0.1-0.4-0.2c-0.1-0.2-0.1-0.5,0.2-0.6l8.3-4.8c0.2-0.1,0.5-0.1,0.6,0.2
				c0.1,0.2,0.1,0.5-0.2,0.6l-8.3,4.8C8.1,54.6,8,54.7,8,54.7L8,54.7z"/>
		</g>
		<g>
			<path fill="#A6DAE9" d="M13,37.6H3.4c-0.3,0-0.5-0.2-0.5-0.5c0-0.3,0.2-0.5,0.5-0.5H13c0.3,0,0.5,0.2,0.5,0.5
				C13.5,37.4,13.3,37.6,13,37.6L13,37.6z"/>
		</g>
		<g>
			<path fill="#A6DAE9" d="M16.3,25.4c-0.1,0-0.2,0-0.2-0.1l-8.3-4.8c-0.2-0.1-0.3-0.4-0.2-0.6c0.1-0.2,0.4-0.3,0.6-0.2l8.3,4.8
				c0.2,0.1,0.3,0.4,0.2,0.6C16.6,25.3,16.4,25.4,16.3,25.4L16.3,25.4z"/>
		</g>
		<g>
			<path fill="#A6DAE9" d="M25.3,16.4c-0.2,0-0.3-0.1-0.4-0.2l-4.8-8.3c-0.1-0.2-0.1-0.5,0.2-0.6c0.2-0.1,0.5-0.1,0.6,0.2l4.8,8.3
				c0.1,0.2,0.1,0.5-0.2,0.6C25.4,16.4,25.3,16.4,25.3,16.4L25.3,16.4z"/>
		</g>
		<g>
			<path fill="#A6DAE9" d="M37.5,13.1c-0.3,0-0.5-0.2-0.5-0.5V3.1c0-0.3,0.2-0.5,0.5-0.5c0.3,0,0.5,0.2,0.5,0.5v9.6
				C38,12.9,37.8,13.1,37.5,13.1L37.5,13.1z"/>
		</g>
	</g>
</g>
<g>
	<rect x="3" y="105" fill="#FFFFFF" width="13" height="9"/>
	<rect x="3" y="105" fill="#FFCE35" width="13" height="3"/>
	<line fill="none" stroke="#FFCE35" stroke-miterlimit="10" x1="3" y1="113.5" x2="16" y2="113.5"/>
	<g>
		<circle fill="#08191E" cx="4" cy="108.6" r="0.7"/>
	</g>
	<g>
		<rect x="5.3" y="108.1" fill="#08191E" width="7.1" height="0.7"/>
	</g>
	<g>
		<rect x="5.3" y="109.4" fill="#08191E" width="3.6" height="0.7"/>
	</g>
</g>
</svg>
