<?xml version="1.0" encoding="utf-8"?>
<!-- Generator: Adobe Illustrator 18.1.1, SVG Export Plug-In . SVG Version: 6.00 Build 0)  -->
<svg version="1.1" id="lightbulb" xmlns="http://www.w3.org/2000/svg" xmlns:xlink="http://www.w3.org/1999/xlink" x="0px" y="0px"
	 viewBox="0 0 200 200" style="enable-background:new 0 0 200 200;" xml:space="preserve">
<style type="text/css">
	.st0{fill:none;stroke:#0698CF;stroke-width:4;stroke-linecap:round;stroke-linejoin:round;stroke-miterlimit:10;}
	.st1{fill:#FFFFFF;stroke:#0698CF;stroke-width:3;stroke-linecap:round;stroke-linejoin:round;stroke-miterlimit:10;}
	.st2{fill:none;stroke:#0698CF;stroke-width:3;stroke-linecap:round;stroke-linejoin:round;stroke-miterlimit:10;}
	.st3{fill:#FFFFFF;stroke:#0698CF;stroke-width:4;stroke-linecap:round;stroke-linejoin:round;stroke-miterlimit:10;}
</style>
<path id="bulb" class="st0" d="M122.1,188l-45.3,0l-10.3-61.5c-7.6,0-14.4-10.8-17.1-17.3s-4.3-13.7-4.3-21.2
	c0-7.5,1.5-14.7,4.3-21.2c2.8-6.5,6.7-12.4,11.7-17.3s10.8-8.9,17.3-11.7s13.7-4.3,21.2-4.3c7.5,0,14.7,1.5,21.2,4.3
	c6.5,2.8,12.4,6.7,17.3,11.7s8.9,10.8,11.7,17.3c2.7,6.5,4.3,13.7,4.3,21.2s-1.5,14.7-4.3,21.2c-2.8,6.5-8.7,17.3-14.6,17.3
	L122.1,188z"/>
<path id="filament" class="st1" d="M99.5,71.6c-2.8,0-5.5-0.8-7.7-2.3c-2.4-1.6-5.6,0.4-5.4,3.3l6.9,100.9c0.1,1.9,1.7,3.3,3.5,3.3
	h5.2c1.9,0,3.4-1.4,3.5-3.3l6.9-100.9c0.2-2.9-3-4.8-5.4-3.3C105,70.8,102.3,71.6,99.5,71.6z"/>
<g id="streaks">
	<line class="st2" x1="100" y1="6.9" x2="100" y2="25.6"/>
	<line class="st2" x1="148.3" y1="19.8" x2="138" y2="37.8"/>
	<line class="st2" x1="183.7" y1="55.2" x2="161.4" y2="68.1"/>
	<line class="st2" x1="35.7" y1="103.6" x2="3.3" y2="103.6"/>
	<line class="st2" x1="196.7" y1="103.6" x2="164.3" y2="103.6"/>
	<line class="st2" x1="16.3" y1="55.2" x2="38.6" y2="68.1"/>
	<line class="st2" x1="51.7" y1="19.8" x2="62" y2="37.8"/>
</g>
<g id="threads">
	<path class="st3" d="M136.4,165.6H62.6c-2.4,0-4.3-1.9-4.3-4.3v-2.7c0-2.4,1.9-4.3,4.3-4.3h73.7c2.4,0,4.3,1.9,4.3,4.3v2.7
		C140.6,163.7,138.7,165.6,136.4,165.6z"/>
	<path class="st3" d="M136.4,176.8H62.6c-2.4,0-4.3-1.9-4.3-4.3v-2.7c0-2.4,1.9-4.3,4.3-4.3h73.7c2.4,0,4.3,1.9,4.3,4.3v2.7
		C140.6,174.9,138.7,176.8,136.4,176.8z"/>
	<path class="st3" d="M136.4,188H62.6c-2.4,0-4.3-1.9-4.3-4.3v-2.7c0-2.4,1.9-4.3,4.3-4.3h73.7c2.4,0,4.3,1.9,4.3,4.3v2.7
		C140.6,186.1,138.7,188,136.4,188z"/>
</g>
</svg>
