<?xml version="1.0" encoding="utf-8"?>
<!-- Generator: Adobe Illustrator 18.1.1, SVG Export Plug-In . SVG Version: 6.00 Build 0)  -->
<!DOCTYPE svg PUBLIC "-//W3C//DTD SVG 1.1//EN" "http://www.w3.org/Graphics/SVG/1.1/DTD/svg11.dtd">
<svg version="1.1" id="motion" xmlns="http://www.w3.org/2000/svg" xmlns:xlink="http://www.w3.org/1999/xlink" x="0px" y="0px"
	 viewBox="0 0 75 75" style="enable-background:new 0 0 75 75;" xml:space="preserve">
<style type="text/css">
	.st0{fill:none;stroke:#0698CF;stroke-width:0.6117;stroke-miterlimit:10;}
	.st1{fill:#0698CF;}
</style>
<g>
	<rect x="5" y="18.5" class="st0" width="4.3" height="4.3"/>
	<rect x="13.7" y="18.5" class="st0" width="4.3" height="4.3"/>
	<rect x="22.4" y="18.5" class="st0" width="4.3" height="4.3"/>
	<rect x="31" y="18.5" class="st0" width="4.3" height="4.3"/>
	<rect x="39.7" y="18.5" class="st0" width="4.3" height="4.3"/>
	<rect x="48.4" y="18.5" class="st0" width="4.3" height="4.3"/>
	<rect x="57.1" y="18.5" class="st0" width="4.3" height="4.3"/>
	<rect x="65.8" y="18.5" class="st0" width="4.3" height="4.3"/>
</g>
<g>
	<rect x="5" y="56.8" class="st0" width="4.3" height="4.3"/>
	<rect x="13.7" y="56.8" class="st0" width="4.3" height="4.3"/>
	<rect x="22.4" y="56.8" class="st0" width="4.3" height="4.3"/>
	<rect x="31" y="56.8" class="st0" width="4.3" height="4.3"/>
	<rect x="39.7" y="56.8" class="st0" width="4.3" height="4.3"/>
	<rect x="48.4" y="56.8" class="st0" width="4.3" height="4.3"/>
	<rect x="57.1" y="56.8" class="st0" width="4.3" height="4.3"/>
	<rect x="65.8" y="56.8" class="st0" width="4.3" height="4.3"/>
</g>
<rect x="1.8" y="16.5" class="st0" width="71.5" height="46"/>
<rect x="1.8" y="26.6" class="st1" width="7.1" height="25.8"/>
<rect x="16.7" y="26.6" class="st1" width="14.3" height="25.8"/>
<rect x="44" y="26.6" class="st1" width="14.3" height="25.8"/>
<rect x="66.1" y="26.6" class="st1" width="7.1" height="25.8"/>
</svg>
