<?xml version="1.0" encoding="utf-8"?>
<!-- Generator: Adobe Illustrator 17.1.0, SVG Export Plug-In . SVG Version: 6.00 Build 0)  -->
<!DOCTYPE svg PUBLIC "-//W3C//DTD SVG 1.1//EN" "http://www.w3.org/Graphics/SVG/1.1/DTD/svg11.dtd">
<svg version="1.1" id="Layer_1" xmlns="http://www.w3.org/2000/svg" xmlns:xlink="http://www.w3.org/1999/xlink" x="0px" y="0px"
	 viewBox="0 0 75 75" enable-background="new 0 0 75 75" width="200" height="200" xml:space="preserve">
<g>
	<g>
		<rect x="0.4" y="18.5" fill="#D3D2D3" width="74.1" height="38.7"/>
		<g>
			<rect x="10.1" y="21.7" fill="#FFFFFF" width="48.3" height="33"/>
			<rect x="19.5" y="30" fill="#FF642F" width="17.2" height="17.2"/>
			<circle fill="#08191E" cx="36.7" cy="42.9" r="7.5"/>
			<polygon fill="#FFCE35" points="49.6,43.5 41,43.5 45.3,34.9 			"/>
			<rect x="10.1" y="21.7" fill="#08191E" width="48.3" height="3.2"/>
		</g>
		<g>
			<rect x="2" y="23.3" fill="#FFFFFF" width="6.4" height="12.9"/>
			<rect x="2" y="36.2" fill="#FFFFFF" width="6.4" height="12.9"/>
			<rect x="2" y="21.7" fill="#08191E" width="6.4" height="1.6"/>
			<g>
				<rect x="5.2" y="23.3" fill="#D3D2D3" width="0.2" height="25.8"/>
			</g>
			<g>
				<g>
					<g>
						<rect x="2" y="45.8" fill="#D3D2D3" width="6.4" height="0.2"/>
					</g>
				</g>
				<g>
					<g>
						<rect x="2" y="42.6" fill="#D3D2D3" width="6.4" height="0.2"/>
					</g>
				</g>
				<g>
					<g>
						<rect x="2" y="39.3" fill="#D3D2D3" width="6.4" height="0.2"/>
					</g>
				</g>
				<g>
					<g>
						<rect x="2" y="36.1" fill="#D3D2D3" width="6.4" height="0.2"/>
					</g>
				</g>
				<g>
					<g>
						<rect x="2" y="32.9" fill="#D3D2D3" width="6.4" height="0.2"/>
					</g>
				</g>
				<g>
					<g>
						<rect x="2" y="29.7" fill="#D3D2D3" width="6.4" height="0.2"/>
					</g>
				</g>
				<g>
					<g>
						<rect x="2" y="26.4" fill="#D3D2D3" width="6.4" height="0.2"/>
					</g>
				</g>
				<g>
					<path fill="#D3D2D3" d="M7.8,32.3H6v-1.8h1.8V32.3z M6.2,32.1h1.4v-1.4H6.2V32.1z"/>
				</g>
				<g>
					<path fill="#D3D2D3" d="M4.6,41.9H2.8v-1.8h1.8V41.9z M3,41.7h1.4v-1.4H3V41.7z"/>
				</g>
				<g>
					<path fill="#D3D2D3" d="M7.8,25.8H6V24h1.8V25.8z M6.2,25.6h1.4v-1.4H6.2V25.6z"/>
				</g>
				<g>
					<rect x="6.8" y="24.1" fill="#D3D2D3" width="0.2" height="1.6"/>
				</g>
				<g>
					<rect x="2.9" y="27.3" fill="#D3D2D3" width="1.6" height="1.6"/>
					<path fill="#D3D2D3" d="M4.6,29.1H2.8v-1.8h1.8V29.1z M3,28.9h1.4v-1.4H3V28.9z"/>
				</g>
				<g>

						<rect x="6.8" y="27.3" transform="matrix(0.7071 0.7071 -0.7071 0.7071 21.9204 3.38)" fill="#D3D2D3" width="0.2" height="1.6"/>
				</g>
				<g>
					<path fill="#D3D2D3" d="M4.6,38.3H2.8v-1h1.8V38.3z M3,38.1h1.4v-0.6H3V38.1z"/>
				</g>
				<g>
					<rect x="3.6" y="30.6" fill="#D3D2D3" width="0.2" height="1.6"/>
				</g>
				<g>
					<rect x="2.9" y="34.2" fill="#D3D2D3" width="0.8" height="0.8"/>
					<path fill="#D3D2D3" d="M3.8,35.1h-1v-1h1V35.1z M3,34.9h0.6v-0.6H3V34.9z"/>
				</g>
				<g>
					<rect x="3.7" y="34.2" fill="#D3D2D3" width="0.8" height="0.8"/>
					<path fill="#D3D2D3" d="M4.6,35.1h-1v-1h1V35.1z M3.8,34.9h0.6v-0.6H3.8V34.9z"/>
				</g>
				<g>
					<rect x="3.7" y="31.4" fill="#D3D2D3" width="0.8" height="0.8"/>
					<path fill="#D3D2D3" d="M4.6,32.3h-1v-1h1V32.3z M3.8,32.1h0.6v-0.6H3.8V32.1z"/>
				</g>
				<g>
					<path fill="#D3D2D3" d="M3.8,31.5h-1v-1h1V31.5z M3,31.3h0.6v-0.6H3V31.3z"/>
				</g>
				<g>
					<path fill="#D3D2D3" d="M6.9,35.5c-0.5,0-0.9-0.4-0.9-0.9c0-0.5,0.4-0.9,0.9-0.9c0.5,0,0.9,0.4,0.9,0.9
						C7.8,35.1,7.4,35.5,6.9,35.5z M6.9,33.9c-0.4,0-0.7,0.3-0.7,0.7c0,0.4,0.3,0.7,0.7,0.7c0.4,0,0.7-0.3,0.7-0.7
						C7.6,34.2,7.3,33.9,6.9,33.9z"/>
				</g>
				<g>
					<path fill="#D3D2D3" d="M6.9,35.5c-0.5,0-0.9-0.4-0.9-0.9c0-0.5,0.4-0.9,0.9-0.9c0.5,0,0.9,0.4,0.9,0.9
						C7.8,35.1,7.4,35.5,6.9,35.5z M6.9,33.9c-0.4,0-0.7,0.3-0.7,0.7c0,0.4,0.3,0.7,0.7,0.7c0.4,0,0.7-0.3,0.7-0.7
						C7.6,34.2,7.3,33.9,6.9,33.9z"/>
				</g>
				<g>
					<path fill="#D3D2D3" d="M3.7,25.8c-0.5,0-0.9-0.4-0.9-0.9c0-0.5,0.4-0.9,0.9-0.9c0.5,0,0.9,0.4,0.9,0.9
						C4.6,25.4,4.2,25.8,3.7,25.8z M3.7,24.2c-0.4,0-0.7,0.3-0.7,0.7c0,0.4,0.3,0.7,0.7,0.7c0.4,0,0.7-0.3,0.7-0.7
						C4.4,24.5,4,24.2,3.7,24.2z"/>
				</g>
				<g>
					<path fill="#D3D2D3" d="M7.8,45.2H6v-1.8h1.8V45.2z M6.2,45h1.4v-1.4H6.2V45z"/>
				</g>
				<g>
					<rect x="2.9" y="46.7" fill="#D3D2D3" width="1.6" height="1.6"/>
					<path fill="#D3D2D3" d="M4.6,48.4H2.8v-1.8h1.8V48.4z M3,48.2h1.4v-1.4H3V48.2z"/>
				</g>
				<rect x="3.3" y="47.1" fill="#FFFFFF" width="0.8" height="0.8"/>
				<g>
					<rect x="6.5" y="47.1" fill="#D3D2D3" width="0.8" height="0.8"/>
					<path fill="#D3D2D3" d="M7.4,48h-1v-1h1V48z M6.6,47.8h0.6v-0.6H6.6V47.8z"/>
				</g>
				<g>
					<path fill="#D3D2D3" d="M3.7,45.2c-0.5,0-0.9-0.4-0.9-0.9c0-0.5,0.4-0.9,0.9-0.9c0.5,0,0.9,0.4,0.9,0.9
						C4.6,44.8,4.2,45.2,3.7,45.2z M3.7,43.6c-0.4,0-0.7,0.3-0.7,0.7C3,44.7,3.3,45,3.7,45c0.4,0,0.7-0.3,0.7-0.7
						C4.4,43.9,4,43.6,3.7,43.6z"/>
				</g>
				<path fill="#D3D2D3" d="M6.9,35.4c-0.4,0-0.8-0.4-0.8-0.8s0.4-0.8,0.8-0.8V35.4z"/>
				<g>

						<rect x="2.5" y="40.9" transform="matrix(0.7071 0.7071 -0.7071 0.7071 30.0928 9.4352)" fill="#D3D2D3" width="2.3" height="0.2"/>
				</g>
			</g>
			<g>
				<path fill="#D3D2D3" d="M6.6,38.5c-0.4,0-0.6-0.3-0.6-0.6s0.3-0.6,0.6-0.6c0.4,0,0.6,0.3,0.6,0.6S7,38.5,6.6,38.5z M6.6,37.4
					c-0.2,0-0.4,0.2-0.4,0.4c0,0.2,0.2,0.4,0.4,0.4c0.2,0,0.4-0.2,0.4-0.4C7,37.6,6.9,37.4,6.6,37.4z"/>
			</g>
			<g>
				<circle fill="#D3D2D3" cx="7.1" cy="37.8" r="0.5"/>
				<path fill="#D3D2D3" d="M7.1,38.5c-0.4,0-0.6-0.3-0.6-0.6s0.3-0.6,0.6-0.6c0.4,0,0.6,0.3,0.6,0.6S7.5,38.5,7.1,38.5z M7.1,37.4
					c-0.2,0-0.4,0.2-0.4,0.4c0,0.2,0.2,0.4,0.4,0.4c0.2,0,0.4-0.2,0.4-0.4C7.6,37.6,7.4,37.4,7.1,37.4z"/>
			</g>
			<g>
				<g>
					<polygon fill="#D3D2D3" points="7.7,41.3 6.9,41.7 6.1,41.3 6.9,40.9 					"/>
					<path fill="#D3D2D3" d="M6.9,41.9l-1-0.5l1-0.5l1,0.5L6.9,41.9z M6.3,41.3l0.6,0.3l0.6-0.3l-0.6-0.3L6.3,41.3z"/>
				</g>
				<polygon fill="#FFFFFF" points="7.7,40.9 6.9,41.3 6.1,40.9 6.9,40.5 				"/>
				<g>
					<polygon fill="#D3D2D3" points="7.7,40.7 6.9,41.1 6.1,40.7 6.9,40.3 					"/>
					<path fill="#D3D2D3" d="M6.9,41.3l-1-0.5l1-0.5l1,0.5L6.9,41.3z M6.3,40.7L6.9,41l0.6-0.3l-0.6-0.3L6.3,40.7z"/>
				</g>
			</g>
			<rect x="6.9" y="43.5" fill="#D3D2D3" width="0.8" height="1.6"/>
		</g>
		<g>
			<rect x="60.1" y="37.8" fill="#FFFFFF" width="12.9" height="10.5"/>
			<rect x="60.1" y="37.8" fill="#08191E" width="12.9" height="1.6"/>
			<rect x="60.9" y="40.6" fill="#D3D2D3" width="11.3" height="1.6"/>
			<rect x="70.5" y="40.6" fill="#D3D2D3" width="1.6" height="1.6"/>
			<rect x="60.9" y="43.1" fill="#D3D2D3" width="11.3" height="1.6"/>
			<rect x="70.5" y="45.5" fill="#D3D2D3" width="1.6" height="1.6"/>
			<rect x="68.9" y="45.5" fill="#D3D2D3" width="1.6" height="1.6"/>
			<rect x="62.5" y="45.5" fill="#D3D2D3" width="1.6" height="1.6"/>
			<rect x="60.9" y="45.5" fill="#D3D2D3" width="1.6" height="1.6"/>
			<rect x="66.5" y="45.5" fill="#D3D2D3" width="1.6" height="1.6"/>
			<rect x="64.9" y="45.5" fill="#D3D2D3" width="1.6" height="1.6"/>
		</g>
		<g>
			<rect x="60.1" y="23.3" fill="#FFFFFF" width="12.9" height="12.9"/>
			<rect x="60.1" y="23.3" fill="#08191E" width="12.9" height="1.6"/>
			<rect x="60.9" y="26.1" fill="#D3D2D3" width="11.3" height="1.6"/>
			<g>
				<g>
					<rect x="70.5" y="28.6" fill="#D3D2D3" width="1.6" height="1.6"/>
				</g>
				<g>
					<rect x="68.1" y="28.6" fill="#D3D2D3" width="1.6" height="1.6"/>
				</g>
				<g>
					<rect x="65.7" y="28.6" fill="#D3D2D3" width="1.6" height="1.6"/>
				</g>
				<g>
					<rect x="63.3" y="28.6" fill="#D3D2D3" width="1.6" height="1.6"/>
				</g>
				<g>
					<rect x="60.9" y="28.6" fill="#D3D2D3" width="1.6" height="1.6"/>
				</g>
			</g>
		</g>
	</g>
	<rect x="60.9" y="31" fill="#D3D2D3" width="11.3" height="4"/>
</g>
</svg>
