<svg xmlns="http://www.w3.org/2000/svg" xmlns:xlink="http://www.w3.org/1999/xlink" version="1.1" id="Layer_1" x="0" y="0" viewBox="0 0 75 75" xml:space="preserve" enable-background="new 0 0 75 75">
  <style type="text/css">
    
	.st0{fill:#0698CF;}
	.st1{fill:#FFFFFF;}

  </style>
  <rect class="st0" width="75" height="75"/>
  <path class="st1" d="M73.5 15.2c-2.8 1-5.5 2-8.5 2.2 3-1.8 5.5-4.8 6.5-8.2 -2.8 1.8-6 3-9.5 3.5C59.2 10 55.5 8 51.2 8 43 8 36.5 14.5 36.5 22.8c0 1.2 0.2 2.2 0.5 3.3 -12.2-0.3-23.2-6-30.5-15 -1.2 2.2-2 4.8-2 7.5 0 5.2 2.5 9.8 6.5 12.2 -2.5 0-4.8-0.8-6.8-1.8 0 0 0 0 0 0.3 0 7.2 5 13.2 11.8 14.5 -1.2 0.2-2.5 0.5-4 0.5 -1 0-2 0-2.7-0.2 2 5.8 7.2 10.2 13.8 10.2 -5 4-11.5 6.2-18.2 6.2 -1.2 0-2.2 0-3.5-0.2C7.7 64.5 15.5 67 24 67c27.2 0 42-22.5 42-42 0-0.8 0-1.2 0-2C69 20.8 71.5 18.2 73.5 15.2z"/>
</svg>
