<?xml version="1.0" encoding="utf-8"?>
<!-- Generator: Adobe Illustrator 18.1.1, SVG Export Plug-In . SVG Version: 6.00 Build 0)  -->
<svg version="1.1" id="twitter" xmlns="http://www.w3.org/2000/svg" xmlns:xlink="http://www.w3.org/1999/xlink" x="0px" y="0px"
	 viewBox="0 0 75 75" style="enable-background:new 0 0 75 75;" xml:space="preserve">
<style type="text/css">
	.st0{fill:#0698CF;}
</style>
<path id="twitter-icon" class="st0" d="M0,0v75h75V0H0z M66,23c0,0.8,0,1.2,0,2c0,19.5-14.8,42-42,42c-8.5,0-16.2-2.5-22.8-6.8
	c1.2,0.2,2.2,0.2,3.5,0.2c6.8,0,13.2-2.2,18.2-6.2c-6.5,0-11.8-4.5-13.8-10.2c0.8,0.2,1.8,0.2,2.8,0.2c1.5,0,2.8-0.2,4-0.5
	C9.2,42.5,4.2,36.5,4.2,29.2c0-0.2,0-0.2,0-0.2c2,1,4.2,1.8,6.8,1.8c-4-2.5-6.5-7-6.5-12.2c0-2.8,0.8-5.2,2-7.5
	c7.2,9,18.2,14.8,30.5,15c-0.2-1-0.5-2-0.5-3.2C36.5,14.5,43,8,51.2,8c4.2,0,8,2,10.8,4.8c3.5-0.5,6.8-1.8,9.5-3.5
	c-1,3.5-3.5,6.5-6.5,8.2c3-0.2,5.8-1.2,8.5-2.2C71.5,18.2,69,20.8,66,23z"/>
</svg>
