<?xml version="1.0" encoding="utf-8"?>
<!-- Generator: Adobe Illustrator 18.1.1, SVG Export Plug-In . SVG Version: 6.00 Build 0)  -->
<svg version="1.1" id="vimeo" xmlns="http://www.w3.org/2000/svg" xmlns:xlink="http://www.w3.org/1999/xlink" x="0px" y="0px"
	 viewBox="0 0 75 75" style="enable-background:new 0 0 75 75;" xml:space="preserve">
<style type="text/css">
	.st0{fill:#0698CF;}
</style>
<path id="vimeo-icon" class="st0" d="M0,0v75h75V0H0z M71.2,21.8c-0.2,6.5-5,15.5-13.8,27c-9.2,12-17,18-23.2,18c-4,0-7.2-3.8-10-11
	c-1.8-6.8-3.8-13.2-5.5-20c-2-7.2-4.2-10.8-6.5-10.8c-0.5,0-2.2,1-5.2,3.2L3.8,24c3.2-3,6.5-5.8,9.8-8.8c4.5-3.8,7.8-5.8,10-6
	c5.2-0.5,8.5,3,9.8,10.8c1.2,8.2,2.2,13.5,2.8,15.5c1.5,7,3.2,10.2,5,10.2c1.5,0,3.5-2.2,6.2-6.8s4.2-7.8,4.5-10.2
	c0.5-3.8-1-5.8-4.5-5.8c-1.5,0-3.2,0.2-5,1c3.2-10.8,9.8-16.2,19-15.8C68.2,8.5,71.5,13,71.2,21.8z"/>
</svg>
