<?xml version="1.0" encoding="utf-8"?>
<!-- Generator: Adobe Illustrator 18.1.1, SVG Export Plug-In . SVG Version: 6.00 Build 0)  -->
<svg version="1.1" id="web-design" xmlns="http://www.w3.org/2000/svg" xmlns:xlink="http://www.w3.org/1999/xlink" x="0px" y="0px"
	 viewBox="0 0 75 75" style="enable-background:new 0 0 75 75;" xml:space="preserve">
<style type="text/css">
	.st0{fill:none;stroke:#0698CF;stroke-width:2;stroke-miterlimit:10;}
	.st1{fill:none;stroke:#0698CF;stroke-linecap:round;stroke-linejoin:round;stroke-miterlimit:10;}
	.st2{fill:#FFFFFF;stroke:#0698CF;stroke-width:2;stroke-linecap:round;stroke-linejoin:round;stroke-miterlimit:10;}
	.st3{fill:none;stroke:#0698CF;stroke-linecap:round;stroke-linejoin:round;stroke-miterlimit:10;stroke-dasharray:7,5,6;}
	.st4{fill:none;stroke:#0698CF;stroke-linecap:round;stroke-linejoin:round;stroke-miterlimit:10;stroke-dasharray:6,4,5;}
	.st5{fill:none;stroke:#0698CF;stroke-linecap:round;stroke-linejoin:round;stroke-miterlimit:10;stroke-dasharray:7,4,6,8,2;}
	.st6{fill:none;stroke:#0698CF;stroke-linecap:round;stroke-linejoin:round;stroke-miterlimit:10;stroke-dasharray:7,4,6,4;}
	.st7{fill:none;stroke:#0698CF;stroke-linecap:round;stroke-linejoin:round;stroke-miterlimit:10;stroke-dasharray:7,8,6,4;}
	.st8{fill:none;stroke:#0698CF;stroke-linecap:round;stroke-linejoin:round;stroke-miterlimit:10;stroke-dasharray:14,8,6,4;}
</style>
<path id="computerback" class="st0" d="M69.7,53.4H5.7V16.8c0-0.6,0.5-1,1-1h62.1c0.6,0,1,0.5,1,1V53.4z"/>
<rect id="screen" x="8.2" y="18.4" class="st1" width="59" height="33.9"/>
<path id="computerbottom" class="st2" d="M1.6,51.9h72.2v3c0,0.6-0.5,1.2-1.2,1.2H2.8c-0.6,0-1.2-0.5-1.2-1.2V51.9z"/>
<rect id="screenright" x="20" y="18.4" class="st1" width="47.2" height="33.5"/>
<g id="screenlines">
	<line class="st3" x1="24" y1="22.5" x2="64" y2="22.5"/>
	<line class="st4" x1="24" y1="27.5" x2="52" y2="27.5"/>
	<line class="st5" x1="24" y1="32.5" x2="59" y2="32.5"/>
	<line class="st6" x1="24" y1="37.5" x2="61" y2="37.5"/>
	<line class="st7" x1="24" y1="42.5" x2="61" y2="42.5"/>
	<line class="st8" x1="24" y1="47.5" x2="61" y2="47.5"/>
</g>
<g id="filelines">
	<line class="st1" x1="10" y1="22.5" x2="18" y2="22.5"/>
	<line class="st1" x1="12" y1="24.5" x2="18" y2="24.5"/>
	<line class="st1" x1="12" y1="26.5" x2="18" y2="26.5"/>
	<line class="st1" x1="12" y1="28.5" x2="18" y2="28.5"/>
	<line class="st1" x1="12" y1="30.5" x2="18" y2="30.5"/>
	<line class="st1" x1="12" y1="32.5" x2="18" y2="32.5"/>
</g>
</svg>
