<?xml version="1.0" encoding="utf-8"?>
<!-- Generator: Adobe Illustrator 18.1.1, SVG Export Plug-In . SVG Version: 6.00 Build 0)  -->
<!DOCTYPE svg PUBLIC "-//W3C//DTD SVG 1.1//EN" "http://www.w3.org/Graphics/SVG/1.1/DTD/svg11.dtd">
<svg version="1.1" id="Layer_1" xmlns="http://www.w3.org/2000/svg" xmlns:xlink="http://www.w3.org/1999/xlink" x="0px" y="0px"
	 viewBox="0 0 75 75" style="enable-background:new 0 0 75 75;" xml:space="preserve">
<style type="text/css">
	.st0{fill:#0698CF;}
	.st1{fill:#FFFFFF;}
</style>
<rect class="st0" width="75" height="75"/>
<path class="st1" d="M37.5,2C17.5,2,1,18.2,1,38.5c0,16,10.5,29.8,25,34.5c1.7,0.2,2.5-0.8,2.5-1.8c0-0.8,0-3.2,0-6.2
	c-10,2.2-12.3-5-12.3-5c-1.7-4.2-4-5.2-4-5.2c-3.5-2.2,0.3-2.2,0.3-2.2c3.8,0.2,5.5,3.8,5.5,3.8c3.2,5.5,8.5,4,10.5,3
	c0.2-2.2,1.2-4,2.2-4.7c-8-1-16.5-4-16.5-18c0-4,1.5-7.3,3.8-9.8c-0.2-1-1.5-4.5,0.2-9.8c0,0,3-1,10,3.8c3-0.8,6.3-1.3,9.3-1.3
	s6.2,0.5,9,1.2c7-4.8,10-3.8,10-3.8c2,5,0.8,8.8,0.2,9.8c2.2,2.5,3.8,5.8,3.8,9.7c0,14-8.5,17-16.5,18c1.2,1,2.5,3.2,2.5,6.8
	c0,4.8,0,8.8,0,10c0,1,0.8,2,2.5,1.8c14.5-4.8,24.8-18.5,24.8-34.5C74,18.2,57.5,2,37.5,2z"/>
</svg>
