<?xml version="1.0" encoding="utf-8"?>
<!-- Generator: Adobe Illustrator 18.1.1, SVG Export Plug-In . SVG Version: 6.00 Build 0)  -->
<!DOCTYPE svg PUBLIC "-//W3C//DTD SVG 1.1//EN" "http://www.w3.org/Graphics/SVG/1.1/DTD/svg11.dtd">
<svg version="1.1" id="art-direction" xmlns="http://www.w3.org/2000/svg" xmlns:xlink="http://www.w3.org/1999/xlink" x="0px"
	 y="0px" viewBox="0 0 75 75" style="enable-background:new 0 0 75 75;" xml:space="preserve">
<style type="text/css">
	.st0{fill:#FFFFFF;stroke:#0698CF;stroke-width:2;stroke-miterlimit:10;}
	.st1{fill:none;stroke:#0698CF;stroke-width:2;stroke-miterlimit:10;}
	.st2{fill:#FFFFFF;}
	.st3{fill:#0698CF;}
</style>
<circle class="st0" cx="37.5" cy="38.1" r="35.2"/>
<circle class="st0" cx="37.5" cy="38.1" r="30.8"/>
<circle class="st0" cx="37.5" cy="38.6" r="24.6"/>
<g>
	<g>
		<polygon class="st1" points="56.8,38.6 37.3,35.2 17.8,38.6 37.3,42 		"/>
		<polygon class="st2" points="56.8,38.6 37.3,35.2 17.8,38.6 37.3,42 		"/>
	</g>
	<line class="st1" x1="37.5" y1="34.9" x2="37.5" y2="41.7"/>
</g>
<g>
	<g>
		<polygon class="st1" points="51.1,52.4 39.7,36.2 23.5,24.8 34.9,41 		"/>
		<polygon class="st2" points="51.1,52.4 39.7,36.2 23.5,24.8 34.9,41 		"/>
	</g>
	<line class="st1" x1="39.9" y1="35.8" x2="35.1" y2="40.6"/>
</g>
<g>
	<g>
		<polygon class="st1" points="23.5,52.4 39.7,41 51.1,24.8 34.9,36.2 		"/>
		<polygon class="st2" points="23.5,52.4 39.7,41 51.1,24.8 34.9,36.2 		"/>
	</g>
	<line class="st1" x1="39.9" y1="40.6" x2="35.1" y2="35.8"/>
</g>
<g>
	<g>
		<polygon class="st1" points="37.3,19.1 33.9,38.6 37.3,58.1 40.7,38.6 		"/>
		<polygon class="st2" points="37.3,19.1 33.9,38.6 37.3,58.1 40.7,38.6 		"/>
	</g>
</g>
<circle class="st3" cx="37.4" cy="38.5" r="2"/>
</svg>
