<?xml version="1.0" encoding="utf-8"?>
<!-- Generator: Adobe Illustrator 18.1.1, SVG Export Plug-In . SVG Version: 6.00 Build 0)  -->
<svg version="1.1" id="Layer_1" xmlns="http://www.w3.org/2000/svg" xmlns:xlink="http://www.w3.org/1999/xlink" x="0px" y="0px"
	 viewBox="0 0 30 30" style="enable-background:new 0 0 30 30;" xml:space="preserve">
<style type="text/css">
	.st0{fill:#1769FF;}
	.st1{fill:#FFFFFF;}
</style>
<rect class="st0" width="30" height="30"/>
<g>
	<path class="st1" d="M8.9,5.9c0.9,0,1.6,0.1,2.3,0.2c0.7,0.1,1.3,0.4,1.8,0.7c0.5,0.3,0.9,0.8,1.2,1.4c0.3,0.6,0.4,1.3,0.4,2.1
		c0,0.9-0.2,1.7-0.6,2.3c-0.4,0.6-1,1.1-1.8,1.5c1.1,0.3,1.9,0.9,2.5,1.7c0.5,0.8,0.8,1.8,0.8,2.9c0,0.9-0.2,1.7-0.5,2.4
		c-0.4,0.7-0.8,1.2-1.4,1.6c-0.6,0.4-1.3,0.7-2,0.9c-0.8,0.2-1.5,0.3-2.3,0.3H0.4V5.9H8.9z M8.4,13.1c0.7,0,1.3-0.2,1.7-0.5
		c0.5-0.3,0.7-0.9,0.7-1.6c0-0.4-0.1-0.8-0.2-1c-0.2-0.3-0.4-0.5-0.6-0.6C9.7,9.2,9.4,9.1,9.1,9c-0.3-0.1-0.7-0.1-1-0.1H4.4v4.2H8.4
		z M8.6,20.7c0.4,0,0.8,0,1.1-0.1c0.4-0.1,0.7-0.2,0.9-0.4c0.3-0.2,0.5-0.4,0.6-0.7c0.2-0.3,0.2-0.7,0.2-1.2c0-0.9-0.3-1.6-0.8-2
		c-0.5-0.4-1.2-0.6-2.1-0.6H4.4v4.9H8.6z"/>
	<path class="st1" d="M21.1,20.7c0.5,0.5,1.3,0.8,2.3,0.8c0.7,0,1.3-0.2,1.9-0.5c0.5-0.4,0.8-0.7,1-1.2h3.1
		c-0.5,1.6-1.3,2.7-2.3,3.4c-1,0.7-2.3,1-3.8,1c-1,0-1.9-0.2-2.8-0.5c-0.8-0.3-1.5-0.8-2.1-1.4c-0.6-0.6-1-1.3-1.3-2.2
		c-0.3-0.8-0.5-1.8-0.5-2.8c0-1,0.2-1.9,0.5-2.7c0.3-0.8,0.8-1.6,1.4-2.2c0.6-0.6,1.3-1.1,2.1-1.4c0.8-0.4,1.7-0.5,2.7-0.5
		c1.1,0,2.1,0.2,2.9,0.6c0.8,0.4,1.5,1,2,1.7c0.5,0.7,0.9,1.5,1.1,2.5c0.2,0.9,0.3,1.9,0.2,2.9h-9.4C20.2,19.2,20.5,20.2,21.1,20.7z
		 M25.2,13.9c-0.4-0.5-1.1-0.7-2-0.7c-0.6,0-1,0.1-1.4,0.3c-0.4,0.2-0.7,0.4-0.9,0.7c-0.2,0.3-0.4,0.6-0.5,0.9
		c-0.1,0.3-0.1,0.6-0.2,0.9H26C25.9,15,25.6,14.3,25.2,13.9z"/>
	<rect x="19.5" y="7.1" class="st1" width="7.3" height="1.8"/>
</g>
</svg>
