<?xml version="1.0" encoding="utf-8"?>
<!-- Generator: Adobe Illustrator 17.1.0, SVG Export Plug-In . SVG Version: 6.00 Build 0)  -->
<!DOCTYPE svg PUBLIC "-//W3C//DTD SVG 1.1//EN" "http://www.w3.org/Graphics/SVG/1.1/DTD/svg11.dtd">
<svg version="1.1" id="Layer_1" xmlns="http://www.w3.org/2000/svg" xmlns:xlink="http://www.w3.org/1999/xlink" x="0px" y="0px"
	 viewBox="0 0 200 200" enable-background="new 0 0 200 200" xml:space="preserve">
<circle fill="none" stroke="#000000" stroke-miterlimit="10" cx="99.9" cy="62.1" r="58.7"/>
<g>
	<g>
		
			<rect x="102.7" y="130" transform="matrix(-1 4.851235e-03 -4.851235e-03 -1 208.7132 269.9849)" fill="#4C96A1" width="2.6" height="10.4"/>
		
			<rect x="93.6" y="130.1" transform="matrix(-1 4.674569e-03 -4.674569e-03 -1 190.4859 270.1301)" fill="#4C96A1" width="2.6" height="10.4"/>
		
			<rect x="84.5" y="130.1" transform="matrix(-1 4.674569e-03 -4.674569e-03 -1 172.2832 270.2578)" fill="#4C96A1" width="2.6" height="10.4"/>
		
			<rect x="111.8" y="130" transform="matrix(-1 4.497902e-03 -4.497902e-03 -1 226.8673 269.8949)" fill="#4C96A1" width="2.6" height="10.4"/>
	</g>
	<g>
		<path fill="#3A556C" d="M99.5,33.6c-1.4,0-2.6,1.2-2.6,2.6l0,9.1c0,1.4,1.2,2.6,2.6,2.6c1.4,0,2.6-1.2,2.6-2.6l0-9.1
			C102.1,34.8,100.9,33.6,99.5,33.6z"/>
		<path fill="#F5773E" d="M97.6,197.5c-7.2,0-13-5.8-13.1-12.9l0.6-9.3c0-7.2,5.1-12.8,12.3-12.8l5.2,0c7.2,0,12.5,6,12.5,13.1
			l0.6,8.9c0,7.2-5.8,13-12.9,13.1L97.6,197.5z"/>
		<path fill="#FF996B" d="M104.1,190.9c-2.1,0-3.9-1.4-3.9-3.2c0-1.8,1.7-3.3,3.9-3.3l2.6,0c2.1,0,3.9,1.4,3.9,3.2
			c0,1.8-1.7,3.3-3.9,3.3L104.1,190.9z"/>
		
			<linearGradient id="SVGID_1_" gradientUnits="userSpaceOnUse" x1="25.4545" y1="132.2084" x2="25.4545" y2="163.7281" gradientTransform="matrix(4.674452e-03 1 -1 4.674452e-03 249.1343 139.4317)">
			<stop  offset="0" style="stop-color:#E6E6E6"/>
			<stop  offset="1" style="stop-color:#DBDBDB"/>
		</linearGradient>
		<polygon fill="url(#SVGID_1_)" points="84.5,179.3 84.4,152 115.6,151.9 115.7,179.2 		"/>
		
			<rect x="98.8" y="144.1" transform="matrix(4.674493e-03 1 -1 4.674493e-03 259.3154 58.9338)" fill="#C9C9C9" width="2.6" height="31.2"/>
		
			<linearGradient id="SVGID_2_" gradientUnits="userSpaceOnUse" x1="22.204" y1="133.5736" x2="22.204" y2="165.1751" gradientTransform="matrix(4.674452e-03 1 -1 4.674452e-03 249.1343 139.4317)">
			<stop  offset="0" style="stop-color:#F2F2F2"/>
			<stop  offset="1" style="stop-color:#EBEBEB"/>
		</linearGradient>
		<polygon fill="url(#SVGID_2_)" points="84.5,163.7 84.5,161.1 115.7,161 115.7,163.6 		"/>
		
			<rect x="98.8" y="153.2" transform="matrix(4.674493e-03 1 -1 4.674493e-03 268.4582 67.9501)" fill="#C9C9C9" width="2.6" height="31.2"/>
		
			<linearGradient id="SVGID_4_" gradientUnits="userSpaceOnUse" x1="31.3052" y1="133.574" x2="31.3052" y2="165.1755" gradientTransform="matrix(4.674452e-03 1 -1 4.674452e-03 249.1343 139.4317)">
			<stop  offset="0" style="stop-color:#F2F2F2"/>
			<stop  offset="1" style="stop-color:#EBEBEB"/>
		</linearGradient>
		<polygon fill="url(#SVGID_4_)" points="84.5,172.8 84.5,170.2 115.7,170.1 115.7,172.7 		"/>
		<polygon fill="#FCDE7B" points="106.5,151.9 106.1,54.3 115.1,65.9 115.6,151.9 		"/>
		<polygon fill="#DBA500" points="84.4,152 84,66.2 93.1,53.1 93.5,152 		"/>
		
			<rect x="54.5" y="100.2" transform="matrix(4.674493e-03 1 -1 4.674493e-03 205.9929 6.3548)" fill="#FCD041" width="90.5" height="13"/>
		<polygon fill="#F2E2B1" points="115.2,66 102.1,40.1 96.9,40.1 84,66.2 87.7,64.7 93,70.9 99.6,64 106.1,71 111.5,64.6 		"/>
		
			<rect x="98.7" y="135" transform="matrix(4.674493e-03 1 -1 4.674493e-03 250.1708 49.9174)" fill="#DBA500" width="2.6" height="31.2"/>
	</g>
</g>
<g>
	<g>
		<rect x="65" y="2.4" width="36.1" height="1.9"/>
	</g>
	<g>
		<g>
			<path d="M101.2,2.4"/>
			<path d="M101.2,4.3"/>
		</g>
	</g>
	<circle fill="#BCEBDD" cx="101.2" cy="3.4" r="3"/>
	<g>
		<circle cx="65" cy="3.4" r="2.3"/>
		<path d="M65,5.8c-1.3,0-2.4-1.1-2.4-2.4s1.1-2.4,2.4-2.4c1.3,0,2.4,1.1,2.4,2.4S66.4,5.8,65,5.8z M65,1.3c-1.1,0-2.1,0.9-2.1,2.1
			s0.9,2.1,2.1,2.1c1.1,0,2.1-0.9,2.1-2.1S66.2,1.3,65,1.3z"/>
	</g>
	<circle fill="#DE3F18" cx="101.2" cy="3.4" r="3.4"/>
</g>
<g>
	<g>
		<rect x="41.2" y="56.8" width="1.9" height="36.1"/>
	</g>
	<g>
		<g>
			<path d="M41.2,56.8"/>
			<path d="M43.1,56.8"/>
		</g>
	</g>
	<circle fill="#BCEBDD" cx="42.1" cy="56.8" r="3"/>
	<g>
		<circle cx="42.1" cy="92.9" r="2.3"/>
		<path d="M44.6,92.9c0,1.3-1.1,2.4-2.4,2.4s-2.4-1.1-2.4-2.4c0-1.3,1.1-2.4,2.4-2.4S44.6,91.6,44.6,92.9z M40.1,92.9
			c0,1.1,0.9,2.1,2.1,2.1s2.1-0.9,2.1-2.1c0-1.1-0.9-2.1-2.1-2.1S40.1,91.8,40.1,92.9z"/>
	</g>
	<circle fill="#DE3F18" cx="42.1" cy="56.8" r="3.4"/>
</g>
<g>
	<g>
		<rect x="157.6" y="20.7" width="1.9" height="36.1"/>
	</g>
	<g>
		<g>
			<path d="M159.5,56.8"/>
			<path d="M157.6,56.8"/>
		</g>
	</g>
	<circle fill="#BCEBDD" cx="158.6" cy="56.8" r="3"/>
	<g>
		<circle cx="158.6" cy="20.7" r="2.3"/>
		<path d="M156.1,20.7c0-1.3,1.1-2.4,2.4-2.4s2.4,1.1,2.4,2.4c0,1.3-1.1,2.4-2.4,2.4S156.1,22,156.1,20.7z M160.6,20.7
			c0-1.1-0.9-2.1-2.1-2.1s-2.1,0.9-2.1,2.1c0,1.1,0.9,2.1,2.1,2.1S160.6,21.8,160.6,20.7z"/>
	</g>
	<circle fill="#DE3F18" cx="158.6" cy="56.8" r="3.4"/>
</g>
</svg>
