<?xml version="1.0" encoding="utf-8"?>
<!-- Generator: Adobe Illustrator 18.1.1, SVG Export Plug-In . SVG Version: 6.00 Build 0)  -->
<!DOCTYPE svg PUBLIC "-//W3C//DTD SVG 1.1//EN" "http://www.w3.org/Graphics/SVG/1.1/DTD/svg11.dtd">
<svg version="1.1" id="Pencil" xmlns="http://www.w3.org/2000/svg" xmlns:xlink="http://www.w3.org/1999/xlink" x="0px" y="0px"
	 viewBox="0 0 200 200" style="enable-background:new 0 0 200 200;" xml:space="preserve">
<style type="text/css">
	.st0{fill:#FFFFFF;stroke:#0698CF;stroke-width:6;stroke-miterlimit:10;}
	.st1{fill:#FFFFFF;stroke:#0698CF;stroke-width:3;stroke-miterlimit:10;}
	.st2{fill:#FFFFFF;stroke:#0698CF;stroke-width:2;stroke-miterlimit:10;}
</style>
<g>
	<path class="st0" d="M111.4,3.7H88.6c-4,0-7.3,3.3-7.3,7.3v9.1v16.2v58.8v75l18.7,22.1l18.7-22.1v-75V36.3V20.1V11
		C118.7,6.9,115.4,3.7,111.4,3.7z"/>
	<g>
		<polygon class="st1" points="106.2,163.8 100,170 93.8,163.8 87.5,170 81.3,163.8 81.3,170 100,192.2 118.7,170 118.7,163.8 
			112.5,170 		"/>
	</g>
	<line class="st2" x1="87.5" y1="170" x2="87.5" y2="39.7"/>
	<line class="st2" x1="100" y1="170" x2="100" y2="39.7"/>
	<line class="st2" x1="112.4" y1="170" x2="112.4" y2="39.7"/>
	<rect x="78.2" y="20.6" class="st2" width="43.7" height="21"/>
	<line class="st2" x1="78.2" y1="27.1" x2="121.8" y2="27.1"/>
	<line class="st2" x1="78.2" y1="34.8" x2="121.8" y2="34.8"/>
</g>
</svg>
