<?xml version="1.0" encoding="utf-8"?>
<!-- Generator: Adobe Illustrator 18.1.1, SVG Export Plug-In . SVG Version: 6.00 Build 0)  -->
<!DOCTYPE svg PUBLIC "-//W3C//DTD SVG 1.1//EN" "http://www.w3.org/Graphics/SVG/1.1/DTD/svg11.dtd">
<svg version="1.1" id="graphic-design" xmlns="http://www.w3.org/2000/svg" xmlns:xlink="http://www.w3.org/1999/xlink" x="0px"
	 y="0px" viewBox="0 0 75 75" style="enable-background:new 0 0 75 75;" xml:space="preserve">
<style type="text/css">
	.st0{fill:#FFFFFF;stroke:#0698CF;stroke-miterlimit:10;}
	.st1{fill:none;stroke:#0698CF;stroke-miterlimit:10;}
	.st2{fill:#0698CF;stroke:#0698CF;stroke-miterlimit:10;}
	.st3{fill:#0698CF;}
	.st4{fill:none;stroke:#0698CF;stroke-width:0.5;stroke-miterlimit:10;}
	.st5{fill:#FFFFFF;}
</style>
<g>
	<g>
		<rect x="2.5" y="14.5" class="st0" width="10.3" height="5.2"/>
		<line class="st1" x1="7.5" y1="15" x2="7.5" y2="20"/>
	</g>
	<g>
		<rect x="2.5" y="19.5" class="st0" width="10.3" height="5.2"/>
		<line class="st1" x1="7.5" y1="20" x2="7.5" y2="25"/>
	</g>
	<g>
		<rect x="2.5" y="24.5" class="st0" width="10.3" height="5.2"/>
		<line class="st1" x1="7.5" y1="25" x2="7.5" y2="30"/>
	</g>
	<g>
		<rect x="2.5" y="29.5" class="st0" width="10.3" height="5.2"/>
		<line class="st1" x1="7.5" y1="30" x2="7.5" y2="35"/>
	</g>
	<g>
		<rect x="2.5" y="34.5" class="st0" width="10.3" height="5.2"/>
		<line class="st1" x1="7.5" y1="35" x2="7.5" y2="40"/>
	</g>
	<g>
		<rect x="2.5" y="39.5" class="st0" width="10.3" height="5.2"/>
		<line class="st1" x1="7.5" y1="40" x2="7.5" y2="45"/>
	</g>
</g>
<g>
	<rect x="61.3" y="14.5" class="st2" width="10.3" height="3.1"/>
</g>
<g>
	<rect x="61.3" y="17.6" class="st0" width="10.3" height="9.9"/>
</g>
<g>
	<rect x="61.3" y="32.5" class="st2" width="10.3" height="3.1"/>
</g>
<g>
	<rect x="61.3" y="35.6" class="st0" width="10.3" height="9.9"/>
</g>
<rect x="14.4" y="14.5" class="st0" width="43.9" height="30.5"/>
<polygon class="st0" points="49.4,32.4 44.2,38 33.8,27.9 48,24.9 "/>
<rect x="46.4" y="30.1" transform="matrix(0.2793 -0.9602 0.9602 0.2793 4.9225 71.7319)" class="st0" width="7.6" height="5"/>
<line class="st1" x1="34.5" y1="28" x2="42.4" y2="30.3"/>
<circle class="st3" cx="42.4" cy="30.3" r="1"/>
<path class="st0" d="M24.4,37.4c-0.2-2.2-0.2-5.3,1.7-6.7c1.6-1.2,3.3-0.4,5.1-1.3c1.5-0.8,3.3-2.9,3.7-8.8"/>
<g>
	<rect x="30.6" y="22.3" class="st3" width="7.8" height="0.3"/>
	<g>
		<circle class="st3" cx="38" cy="22.5" r="0.4"/>
		<circle class="st3" cx="31" cy="22.5" r="0.4"/>
		<g>
			<rect x="33.6" y="21.6" class="st4" width="1.8" height="1.8"/>
			<rect x="33.6" y="21.6" class="st5" width="1.8" height="1.8"/>
		</g>
	</g>
</g>
<g>
	<rect x="20.6" y="33.3" class="st3" width="7.8" height="0.3"/>
	<g>
		<circle class="st3" cx="28" cy="33.5" r="0.4"/>
		<circle class="st3" cx="21" cy="33.5" r="0.4"/>
		<g>
			<rect x="23.6" y="32.6" class="st4" width="1.8" height="1.8"/>
			<rect x="23.6" y="32.6" class="st5" width="1.8" height="1.8"/>
		</g>
	</g>
</g>
</svg>
