<?xml version="1.0" encoding="utf-8"?>
<!-- Generator: Adobe Illustrator 18.1.1, SVG Export Plug-In . SVG Version: 6.00 Build 0)  -->
<!DOCTYPE svg PUBLIC "-//W3C//DTD SVG 1.1//EN" "http://www.w3.org/Graphics/SVG/1.1/DTD/svg11.dtd">
<svg version="1.1" xmlns="http://www.w3.org/2000/svg" xmlns:xlink="http://www.w3.org/1999/xlink" x="0px" y="0px"
	 viewBox="0 0 2000 900" style="enable-background:new 0 0 2000 900;" xml:space="preserve">
<style type="text/css">
	.st0{fill:#FFF568;}
	.st1{fill:#FFF568;stroke:#0698CF;stroke-width:6;stroke-linecap:round;stroke-linejoin:round;stroke-miterlimit:10;}
	.st2{fill:#0698CF;}
	.st3{fill:#FFF568;stroke:#0698CF;stroke-width:6;stroke-miterlimit:10;}
	.st4{fill:none;stroke:#0698CF;stroke-width:4;stroke-miterlimit:10;}
	.st5{fill:#FFF568;stroke:#0698CF;stroke-width:4;stroke-miterlimit:10;}
	.st6{fill:#FFF568;stroke:#02A0D9;stroke-width:6;stroke-miterlimit:10;}
	.st7{fill:#FFF568;stroke:#02A0D9;stroke-width:3;stroke-miterlimit:10;}
	.st8{fill:none;stroke:#0698CF;stroke-width:3;stroke-miterlimit:10;}
	.st9{fill:none;stroke:#0698CF;stroke-width:6;stroke-linecap:round;stroke-linejoin:round;stroke-miterlimit:10;}
	.st10{fill:none;stroke:#0698CF;stroke-width:4;stroke-linecap:round;stroke-linejoin:round;stroke-miterlimit:10;}
	.st11{fill:none;stroke:#0698CF;stroke-width:2;stroke-miterlimit:10;}
	.st12{fill:none;stroke:#0698CF;stroke-width:2;stroke-linecap:round;stroke-linejoin:round;stroke-miterlimit:10;}
	.st13{fill:#FFF568;stroke:#0698CF;stroke-width:4;stroke-linecap:round;stroke-linejoin:round;stroke-miterlimit:10;}
</style>
<g id="Layer_3">
	<rect class="st0" width="2000" height="900"/>
</g>
<g id="color-bridge">
	<g>
		<g>
			<path class="st1" d="M324,173.3l18.8-2c4.9-0.5,9.2,3,9.8,7.9L370,343.9c0.5,4.9-3,9.2-7.9,9.8l-18.8,2c-4.9,0.5-9.2-3-9.8-7.9
				l-17.4-164.7C315.5,178.2,319.1,173.8,324,173.3z"/>
			
				<rect x="331.4" y="317.3" transform="matrix(-0.9944 0.1053 -0.1053 -0.9944 731.9163 615.2466)" class="st2" width="36.7" height="19.2"/>
			
				<rect x="328.1" y="286.4" transform="matrix(-0.9944 0.1053 -0.1053 -0.9944 722.1526 554.0357)" class="st2" width="36.7" height="19.2"/>
			
				<rect x="324.9" y="255.6" transform="matrix(-0.9944 0.1053 -0.1053 -0.9944 712.389 492.8249)" class="st2" width="36.7" height="19.2"/>
			
				<rect x="321.6" y="224.7" transform="matrix(-0.9944 0.1053 -0.1053 -0.9944 702.6254 431.614)" class="st2" width="36.7" height="19.2"/>
			
				<rect x="318.3" y="193.9" transform="matrix(-0.9944 0.1053 -0.1053 -0.9944 692.8618 370.4031)" class="st2" width="36.7" height="19.2"/>
			<circle class="st2" cx="324.4" cy="182.7" r="3.1"/>
		</g>
		<g>
			<path class="st1" d="M322.8,173.4l18.4-4.2c4.8-1.1,9.5,1.9,10.6,6.7l36.9,161.4c1.1,4.8-1.9,9.5-6.7,10.6l-18.4,4.2
				c-4.8,1.1-9.5-1.9-10.6-6.7l-36.9-161.4C315.1,179.3,318.1,174.5,322.8,173.4z"/>
			
				<rect x="348.4" y="313.3" transform="matrix(-0.9748 0.2229 -0.2229 -0.9748 796.1884 555.9014)" class="st2" width="36.7" height="19.2"/>
			
				<rect x="341.5" y="283" transform="matrix(-0.9748 0.2229 -0.2229 -0.9748 775.7796 497.6967)" class="st2" width="36.7" height="19.2"/>
			
				<rect x="334.5" y="252.8" transform="matrix(-0.9748 0.2229 -0.2229 -0.9748 755.3707 439.4919)" class="st2" width="36.7" height="19.2"/>
			
				<rect x="327.6" y="222.5" transform="matrix(-0.9748 0.2229 -0.2229 -0.9748 734.9618 381.2871)" class="st2" width="36.7" height="19.2"/>
			
				<rect x="320.7" y="192.3" transform="matrix(-0.9748 0.2229 -0.2229 -0.9748 714.5529 323.0824)" class="st2" width="36.7" height="19.2"/>
			<circle class="st2" cx="324.4" cy="182.7" r="3.1"/>
		</g>
		<g>
			<path class="st1" d="M321.7,173.7l17.8-6.4c4.6-1.7,9.7,0.7,11.4,5.4l55.9,155.9c1.7,4.6-0.7,9.7-5.4,11.4l-17.8,6.4
				c-4.6,1.7-9.7-0.7-11.4-5.4L316.4,185C314.7,180.4,317.1,175.3,321.7,173.7z"/>
			
				<rect x="364.8" y="307.2" transform="matrix(-0.9413 0.3375 -0.3375 -0.9413 850.6627 485.8391)" class="st2" width="36.7" height="19.2"/>
			
				<rect x="354.3" y="278" transform="matrix(-0.9413 0.3375 -0.3375 -0.9413 820.4724 432.6569)" class="st2" width="36.7" height="19.2"/>
			
				<rect x="343.8" y="248.8" transform="matrix(-0.9413 0.3375 -0.3375 -0.9413 790.2821 379.4746)" class="st2" width="36.7" height="19.2"/>
			
				<rect x="333.4" y="219.6" transform="matrix(-0.9413 0.3375 -0.3375 -0.9413 760.0918 326.2924)" class="st2" width="36.7" height="19.2"/>
			
				<rect x="322.9" y="190.4" transform="matrix(-0.9413 0.3375 -0.3375 -0.9413 729.9016 273.1102)" class="st2" width="36.7" height="19.2"/>
			<circle class="st2" cx="324.4" cy="182.7" r="3.1"/>
		</g>
		<g>
			<path class="st1" d="M320.7,174.1l16.9-8.5c4.4-2.2,9.7-0.4,11.9,4l74,148.1c2.2,4.4,0.4,9.7-4,11.9l-16.9,8.5
				c-4.4,2.2-9.7,0.4-11.9-4l-74-148.1C314.5,181.6,316.3,176.3,320.7,174.1z"/>
			
				<rect x="380.3" y="299.3" transform="matrix(-0.8945 0.4472 -0.4472 -0.8945 893.3727 406.9391)" class="st2" width="36.7" height="19.2"/>
			
				<rect x="366.4" y="271.5" transform="matrix(-0.8945 0.4472 -0.4472 -0.8945 854.6688 360.5551)" class="st2" width="36.7" height="19.2"/>
			
				<rect x="352.6" y="243.8" transform="matrix(-0.8945 0.4472 -0.4472 -0.8945 815.9648 314.171)" class="st2" width="36.7" height="19.2"/>
			
				<rect x="338.7" y="216" transform="matrix(-0.8945 0.4472 -0.4472 -0.8945 777.2609 267.787)" class="st2" width="36.7" height="19.2"/>
			
				<rect x="324.8" y="188.2" transform="matrix(-0.8945 0.4472 -0.4472 -0.8945 738.5569 221.4029)" class="st2" width="36.7" height="19.2"/>
			<circle class="st2" cx="324.4" cy="182.7" r="3.1"/>
		</g>
		<g>
			<path class="st1" d="M325.1,173.3l18.9,0.3c4.9,0.1,8.8,4.1,8.8,9l-2.3,165.6c-0.1,4.9-4.1,8.8-9,8.8l-18.9-0.3
				c-4.9-0.1-8.8-4.1-8.8-9l2.3-165.6C316.1,177.2,320.2,173.3,325.1,173.3z"/>
			
				<rect x="314" y="319.3" transform="matrix(-0.9999 -1.392811e-02 1.392811e-02 -0.9999 660.1269 662.4544)" class="st2" width="36.7" height="19.2"/>
			
				<rect x="314.5" y="288.3" transform="matrix(-0.9999 -1.392811e-02 1.392811e-02 -0.9999 661.4236 600.3985)" class="st2" width="36.7" height="19.2"/>
			
				<rect x="314.9" y="257.2" transform="matrix(-0.9999 -1.392811e-02 1.392811e-02 -0.9999 662.7203 538.3426)" class="st2" width="36.7" height="19.2"/>
			
				<rect x="315.3" y="226.2" transform="matrix(-0.9999 -1.392811e-02 1.392811e-02 -0.9999 664.017 476.2868)" class="st2" width="36.7" height="19.2"/>
			
				<rect x="315.8" y="195.2" transform="matrix(-0.9999 -1.392811e-02 1.392811e-02 -0.9999 665.3137 414.2309)" class="st2" width="36.7" height="19.2"/>
			<circle class="st2" cx="324.4" cy="182.7" r="3.1"/>
		</g>
	</g>
</g>
<g id="wacom-tablet">
	<g>
		<g>
			<g>
				<rect x="1417.5" y="390" class="st3" width="503.1" height="335"/>
			</g>
		</g>
		<rect x="1434.9" y="446.7" class="st3" width="50" height="80"/>
		<circle class="st3" cx="1458.2" cy="557.5" r="22.9"/>
		<circle class="st2" cx="1458.2" cy="557.5" r="12.8"/>
		<rect x="1496.6" y="445.5" class="st3" width="400.1" height="223.1"/>
		<rect x="1434.9" y="446.7" class="st3" width="50" height="20"/>
		<rect x="1434.9" y="466.7" class="st3" width="50" height="20"/>
		<rect x="1434.9" y="486.7" class="st3" width="50" height="20"/>
		<rect x="1434.9" y="588.2" class="st3" width="50" height="80"/>
		<rect x="1434.9" y="588.2" class="st3" width="50" height="20"/>
		<rect x="1434.9" y="608.2" class="st3" width="50" height="20"/>
		<rect x="1434.9" y="628.2" class="st3" width="50" height="20"/>
	</g>
</g>
<g id="wacom-pen">
	<g id="tip_4_">
		<path class="st4" d="M1390.8,673.3L1390.8,673.3c-0.6,0-1-0.5-1-1v-8.8c0-0.6,0.5-1,1-1l0,0c0.6,0,1,0.5,1,1v8.8
			C1391.8,672.9,1391.4,673.3,1390.8,673.3z"/>
		<path class="st0" d="M1390.8,673.3L1390.8,673.3c-0.6,0-1-0.5-1-1v-8.8c0-0.6,0.5-1,1-1l0,0c0.6,0,1,0.5,1,1v8.8
			C1391.8,672.9,1391.4,673.3,1390.8,673.3z"/>
	</g>
	<path id="eraser_1_" class="st5" d="M1390.8,474.4L1390.8,474.4c-2.4,0-4.3-1.9-4.3-4.3v-10.9c0-2.4,1.9-4.3,4.3-4.3l0,0
		c2.4,0,4.3,1.9,4.3,4.3v10.9C1395.1,472.5,1393.2,474.4,1390.8,474.4z"/>
	<path id="tip_2_" class="st3" d="M1381.3,637.7c0-5.2,4.2-9.5,9.5-9.5c5.2,0,9.5,4.2,9.5,9.5c0,5.2-4.2,27.4-9.5,27.4
		C1385.6,665,1381.3,642.9,1381.3,637.7z"/>
	<path id="pen_1_" class="st3" d="M1390.9,637.6l9.5,0l0-3.2l-0.2-166.7c0-1.7-1.4-3.2-3.2-3.2l-12.6,0c-1.7,0-3.2,1.4-3.2,3.2
		l0.2,166.7l0,3.2l3.2,0c0,0,0,0,0,0L1390.9,637.6z"/>
	<g id="switch_1_">
		<g>
			<g>
				<path class="st4" d="M1392.5,596.1c0-0.2-0.2-0.3-0.3-0.3h-2.7c-0.2,0-0.3,0.1-0.3,0.3l0.4,22.9h2.5L1392.5,596.1z"/>
				<path class="st0" d="M1392.5,596.1c0-0.2-0.2-0.3-0.3-0.3h-2.7c-0.2,0-0.3,0.1-0.3,0.3l0.4,22.9h2.5L1392.5,596.1z"/>
			</g>
		</g>
		<g>
			<g>
				<path class="st4" d="M1389.1,629.3c0,0.2,0.2,0.3,0.3,0.3h2.7c0.2,0,0.3-0.1,0.3-0.3l-0.4-10.2h-2.5L1389.1,629.3z"/>
				<path class="st0" d="M1389.1,629.3c0,0.2,0.2,0.3,0.3,0.3h2.7c0.2,0,0.3-0.1,0.3-0.3l-0.4-10.2h-2.5L1389.1,629.3z"/>
			</g>
		</g>
	</g>
</g>
<g id="keyboard">
	<path class="st6" d="M1336.9,729.5c0,4.3-3.4,8.1-7.7,8.1H670.8c-4.3,0-7.7-3.7-7.7-8.1V566.1c0-4.3,3.3-7.3,7.7-7.3h658.3
		c4.3,0,7.7,3,7.7,7.3V729.5z"/>
	<rect x="672.4" y="701.8" class="st7" width="26.5" height="25.4"/>
	<rect x="672.4" y="673" class="st7" width="63.4" height="25.4"/>
	<rect x="672.4" y="644.1" class="st7" width="51.9" height="25.4"/>
	<rect x="672.4" y="615.3" class="st7" width="41.5" height="25.4"/>
	<rect x="672.4" y="586.5" class="st7" width="25.4" height="25.4"/>
	<rect x="672.4" y="566.8" class="st7" width="25.4" height="16.2"/>
	<rect x="702.4" y="566.8" class="st7" width="24.2" height="16.2"/>
	<rect x="731.2" y="566.8" class="st7" width="25.4" height="16.2"/>
	<rect x="761.2" y="566.8" class="st7" width="25.4" height="16.2"/>
	<rect x="791.2" y="566.8" class="st7" width="25.4" height="16.2"/>
	<rect x="821.2" y="566.8" class="st7" width="25.4" height="16.2"/>
	<rect x="851.2" y="566.8" class="st7" width="24.2" height="16.2"/>
	<rect x="880" y="566.8" class="st7" width="25.4" height="16.2"/>
	<rect x="910" y="566.8" class="st7" width="25.4" height="16.2"/>
	<rect x="940" y="566.8" class="st7" width="25.4" height="16.2"/>
	<rect x="970" y="566.8" class="st7" width="25.4" height="16.2"/>
	<rect x="1000" y="566.8" class="st7" width="24.2" height="16.2"/>
	<rect x="1028.8" y="566.8" class="st7" width="25.4" height="16.2"/>
	<rect x="1058.8" y="566.8" class="st7" width="25.4" height="16.2"/>
	<rect x="1088.8" y="566.8" class="st7" width="25.4" height="16.2"/>
	<rect x="1121.1" y="566.8" class="st7" width="25.4" height="16.2"/>
	<rect x="1151.1" y="566.8" class="st7" width="25.4" height="16.2"/>
	<rect x="1181.1" y="566.8" class="st7" width="25.4" height="16.2"/>
	<rect x="1213.4" y="566.8" class="st7" width="25.4" height="16.2"/>
	<rect x="1243.4" y="566.8" class="st7" width="25.4" height="16.2"/>
	<rect x="1273.4" y="566.8" class="st7" width="24.2" height="16.2"/>
	<rect x="1302.2" y="566.8" class="st7" width="25.4" height="16.2"/>
	<rect x="702.4" y="586.5" class="st7" width="24.2" height="25.4"/>
	<rect x="731.2" y="586.5" class="st7" width="25.4" height="25.4"/>
	<rect x="761.2" y="586.5" class="st7" width="25.4" height="25.4"/>
	<rect x="791.2" y="586.5" class="st7" width="25.4" height="25.4"/>
	<rect x="821.2" y="586.5" class="st7" width="25.4" height="25.4"/>
	<rect x="851.2" y="586.5" class="st7" width="24.2" height="25.4"/>
	<rect x="880" y="586.5" class="st7" width="25.4" height="25.4"/>
	<rect x="910" y="586.5" class="st7" width="25.4" height="25.4"/>
	<rect x="940" y="586.5" class="st7" width="25.4" height="25.4"/>
	<rect x="970" y="586.5" class="st7" width="25.4" height="25.4"/>
	<rect x="1000" y="586.5" class="st7" width="24.2" height="25.4"/>
	<rect x="1028.8" y="586.5" class="st7" width="25.4" height="25.4"/>
	<rect x="1058.8" y="586.5" class="st7" width="25.4" height="25.4"/>
	<rect x="1088.8" y="586.5" class="st7" width="25.4" height="25.4"/>
	<rect x="1121.1" y="586.5" class="st7" width="25.4" height="25.4"/>
	<rect x="1151.1" y="586.5" class="st7" width="25.4" height="25.4"/>
	<rect x="1151.1" y="615.3" class="st7" width="25.4" height="25.4"/>
	<rect x="1181.1" y="586.5" class="st7" width="25.4" height="25.4"/>
	<rect x="1121.1" y="615.3" class="st7" width="25.4" height="25.4"/>
	<rect x="1181.1" y="615.3" class="st7" width="25.4" height="25.4"/>
	<rect x="1213.4" y="615.3" class="st7" width="25.4" height="25.4"/>
	<rect x="1213.4" y="586.5" class="st7" width="25.4" height="25.4"/>
	<rect x="1243.4" y="586.5" class="st7" width="25.4" height="25.4"/>
	<rect x="1273.4" y="586.5" class="st7" width="24.2" height="25.4"/>
	<rect x="1302.2" y="586.5" class="st7" width="25.4" height="25.4"/>
	<rect x="1243.4" y="615.3" class="st7" width="25.4" height="25.4"/>
	<rect x="1273.4" y="615.3" class="st7" width="24.2" height="25.4"/>
	<rect x="1302.2" y="615.3" class="st7" width="25.4" height="25.4"/>
	<rect x="1243.4" y="644.1" class="st7" width="25.4" height="25.4"/>
	<rect x="1273.4" y="644.1" class="st7" width="24.2" height="25.4"/>
	<rect x="1302.2" y="644.1" class="st7" width="25.4" height="25.4"/>
	<rect x="1243.4" y="673" class="st7" width="25.4" height="25.4"/>
	<rect x="1273.4" y="673" class="st7" width="24.2" height="25.4"/>
	<rect x="1213.4" y="644.1" class="st7" width="25.4" height="25.4"/>
	<rect x="1213.4" y="673" class="st7" width="25.4" height="25.4"/>
	<polygon id="key" class="st7" points="1260.5,701.8 1243.2,701.8 1213.4,701.8 1213.4,727.2 1243.2,727.2 1260.5,727.2 
		1268.8,727.2 1268.8,701.8 	"/>
	<rect x="1273.4" y="701.8" class="st7" width="24.2" height="25.4"/>
	<polygon class="st7" points="1302.2,673 1302.2,685.6 1302.2,698.1 1302.2,727.2 1327.6,727.2 1327.6,698.1 1327.6,685.6 
		1327.6,673 	"/>
	<rect x="1151.1" y="673" class="st7" width="25.4" height="25.4"/>
	<rect x="1121.1" y="701.8" class="st7" width="25.4" height="25.4"/>
	<rect x="1151.1" y="701.8" class="st7" width="25.4" height="25.4"/>
	<rect x="1181.1" y="701.8" class="st7" width="25.4" height="25.4"/>
	<rect x="728.9" y="644.1" class="st7" width="24.2" height="25.4"/>
	<rect x="719.7" y="615.3" class="st7" width="24.2" height="25.4"/>
	<rect x="748.5" y="615.3" class="st7" width="25.4" height="25.4"/>
	<rect x="778.5" y="615.3" class="st7" width="25.4" height="25.4"/>
	<rect x="808.5" y="615.3" class="st7" width="25.4" height="25.4"/>
	<rect x="838.5" y="615.3" class="st7" width="24.2" height="25.4"/>
	<rect x="868.5" y="615.3" class="st7" width="24.2" height="25.4"/>
	<rect x="897.3" y="615.3" class="st7" width="25.4" height="25.4"/>
	<rect x="927.3" y="615.3" class="st7" width="25.4" height="25.4"/>
	<rect x="957.3" y="615.3" class="st7" width="25.4" height="25.4"/>
	<rect x="987.3" y="615.3" class="st7" width="25.4" height="25.4"/>
	<rect x="1017.3" y="615.3" class="st7" width="24.2" height="25.4"/>
	<rect x="1046.1" y="615.3" class="st7" width="25.4" height="25.4"/>
	<rect x="1076.1" y="615.3" class="st7" width="38.1" height="25.4"/>
	<rect x="757.7" y="644.1" class="st7" width="25.4" height="25.4"/>
	<rect x="787.7" y="644.1" class="st7" width="25.4" height="25.4"/>
	<rect x="817.7" y="644.1" class="st7" width="25.4" height="25.4"/>
	<rect x="847.7" y="644.1" class="st7" width="25.4" height="25.4"/>
	<rect x="877.7" y="644.1" class="st7" width="24.2" height="25.4"/>
	<rect x="907.7" y="644.1" class="st7" width="24.2" height="25.4"/>
	<rect x="936.6" y="644.1" class="st7" width="25.4" height="25.4"/>
	<rect x="966.5" y="644.1" class="st7" width="25.4" height="25.4"/>
	<rect x="996.5" y="644.1" class="st7" width="25.4" height="25.4"/>
	<rect x="1026.5" y="644.1" class="st7" width="24.2" height="25.4"/>
	<rect x="1056.5" y="644.1" class="st7" width="24.2" height="25.4"/>
	<rect x="741.6" y="673" class="st7" width="24.2" height="25.4"/>
	<rect x="770.4" y="673" class="st7" width="25.4" height="25.4"/>
	<rect x="800.4" y="673" class="st7" width="25.4" height="25.4"/>
	<rect x="830.4" y="673" class="st7" width="25.4" height="25.4"/>
	<rect x="860.4" y="673" class="st7" width="25.4" height="25.4"/>
	<rect x="890.4" y="673" class="st7" width="24.2" height="25.4"/>
	<rect x="919.2" y="673" class="st7" width="25.4" height="25.4"/>
	<rect x="949.2" y="673" class="st7" width="25.4" height="25.4"/>
	<rect x="979.2" y="673" class="st7" width="25.4" height="25.4"/>
	<rect x="1009.2" y="673" class="st7" width="25.4" height="25.4"/>
	<rect x="1039.2" y="673" class="st7" width="24.2" height="25.4"/>
	<rect x="1068.1" y="673" class="st7" width="46.1" height="25.4"/>
	<rect x="1085.4" y="644.1" class="st7" width="28.8" height="25.4"/>
	<rect x="703.5" y="701.8" class="st7" width="26.5" height="25.4"/>
	<rect x="734.7" y="701.8" class="st7" width="26.5" height="25.4"/>
	<rect x="765.8" y="701.8" class="st7" width="34.6" height="25.4"/>
	<rect x="805" y="701.8" class="st7" width="151.1" height="25.4"/>
	<rect x="960.8" y="701.8" class="st7" width="35.8" height="25.4"/>
	<rect x="1001.2" y="701.8" class="st7" width="33.5" height="25.4"/>
	<rect x="1039.2" y="701.8" class="st7" width="32.3" height="25.4"/>
	<rect x="1076.1" y="701.8" class="st7" width="38.1" height="25.4"/>
</g>
<g id="notebook">
	<g>
		<path class="st3" d="M580.7,758l-173.4-11.5l19.1-288.2l173.4,11.5c15,1,26.4,14,25.4,29l-15.5,233.8
			C608.7,747.6,595.7,759,580.7,758z"/>
		
			<rect x="555.7" y="467.7" transform="matrix(0.9978 6.620876e-02 -6.620876e-02 0.9978 41.761 -35.9373)" class="st3" width="14.7" height="288.8"/>
	</g>
</g>
<g id="mug">
	<g>
		<path class="st3" d="M212.9,437.2L226,461c-25.1,15.9-33.7,49-18.7,75.3c15.2,26.7,49.5,36.2,76.3,21.2
			c27-15.1,36.7-49.2,21.7-76.3c-13.7-24.8-43.4-35.1-69.1-25.3l-13.4-24.2c-1.5-2.7-5-3.8-7.8-2.2l0,0
			C212.3,431,211.3,434.4,212.9,437.2z"/>
		<circle class="st3" cx="256.2" cy="508.4" r="44.6"/>
	</g>
	<g>
		<g>
			<path class="st2" d="M231.5,501.7c5.7-9.9,20.8-4.4,28.9-1.4c4.2,1.5,8.5,2.7,13,2.1c5.2-0.7,9.1-5.9,14.3-5.7
				c3.9,0.1,3.9-5.9,0-6c-6.4-0.2-10.2,5.7-16.4,5.9c-6.7,0.2-12.8-4-19.1-5.5c-8.9-2-20.8-1.2-25.8,7.5
				C224.3,502,229.5,505,231.5,501.7L231.5,501.7z"/>
		</g>
	</g>
	<g>
		<g>
			<path class="st2" d="M223.2,520.6c5.7-9.9,20.8-4.4,28.9-1.4c4.2,1.5,8.5,2.7,13,2.1c5.2-0.7,9.1-5.9,14.3-5.7
				c3.9,0.1,3.9-5.9,0-6c-6.4-0.2-10.2,5.7-16.4,5.9c-6.7,0.2-12.8-4-19.1-5.5c-8.9-2-20.8-1.2-25.8,7.5
				C216.1,520.9,221.3,524,223.2,520.6L223.2,520.6z"/>
		</g>
	</g>
</g>
<g id="megatron">
	<g>
		<g>
			<path class="st8" d="M1345.3,253l-3.9-0.1c-0.6,0-1,0.4-1.1,1l0,1.1l-0.7,0c-0.4,0-0.8,0.3-0.8,0.7l0,0.5c0,0.4,0.3,0.8,0.7,0.8
				l0.7,0l-0.1,2.4l-0.7,0c-0.4,0-0.8,0.3-0.8,0.7l0,0.5c0,0.4,0.3,0.8,0.7,0.8l0.7,0l0,1.1c0,0.6,0.4,1,1,1.1l3.9,0.1
				c0.6,0,1-0.4,1.1-1l0.3-8.7C1346.3,253.5,1345.8,253.1,1345.3,253z"/>
			<path class="st0" d="M1345.3,253l-3.9-0.1c-0.6,0-1,0.4-1.1,1l0,1.1l-0.7,0c-0.4,0-0.8,0.3-0.8,0.7l0,0.5c0,0.4,0.3,0.8,0.7,0.8
				l0.7,0l-0.1,2.4l-0.7,0c-0.4,0-0.8,0.3-0.8,0.7l0,0.5c0,0.4,0.3,0.8,0.7,0.8l0.7,0l0,1.1c0,0.6,0.4,1,1,1.1l3.9,0.1
				c0.6,0,1-0.4,1.1-1l0.3-8.7C1346.3,253.5,1345.8,253.1,1345.3,253z"/>
		</g>
		<g>
			<path class="st8" d="M1382.5,265l3.9,0.1c0.6,0,1-0.4,1.1-1l0-1.1l0.7,0c0.4,0,0.8-0.3,0.8-0.7l0-0.5c0-0.4-0.3-0.8-0.7-0.8
				l-0.7,0l0.1-2.4l0.7,0c0.4,0,0.8-0.3,0.8-0.7l0-0.5c0-0.4-0.3-0.8-0.7-0.8l-0.7,0l0-1.1c0-0.6-0.4-1-1-1.1l-3.9-0.1
				c-0.6,0-1,0.4-1.1,1l-0.3,8.7C1381.5,264.5,1381.9,264.9,1382.5,265z"/>
			<path class="st0" d="M1382.5,265l3.9,0.1c0.6,0,1-0.4,1.1-1l0-1.1l0.7,0c0.4,0,0.8-0.3,0.8-0.7l0-0.5c0-0.4-0.3-0.8-0.7-0.8
				l-0.7,0l0.1-2.4l0.7,0c0.4,0,0.8-0.3,0.8-0.7l0-0.5c0-0.4-0.3-0.8-0.7-0.8l-0.7,0l0-1.1c0-0.6-0.4-1-1-1.1l-3.9-0.1
				c-0.6,0-1,0.4-1.1,1l-0.3,8.7C1381.5,264.5,1381.9,264.9,1382.5,265z"/>
		</g>
		<g>
			<path class="st4" d="M1341.6,301.7l-0.6,0c-0.4,0-0.7-0.3-0.6-0.7l0.3-9.3c0-0.4,0.3-0.7,0.7-0.6l0.6,0c0.4,0,0.7,0.3,0.6,0.7
				l-0.3,9.3C1342.3,301.4,1342,301.7,1341.6,301.7z"/>
			<path class="st0" d="M1341.6,301.7l-0.6,0c-0.4,0-0.7-0.3-0.6-0.7l0.3-9.3c0-0.4,0.3-0.7,0.7-0.6l0.6,0c0.4,0,0.7,0.3,0.6,0.7
				l-0.3,9.3C1342.3,301.4,1342,301.7,1341.6,301.7z"/>
		</g>
		<g>
			<path class="st4" d="M1343.1,215.3l-0.6,0c-0.4,0-0.7-0.3-0.6-0.7l0.3-9.3c0-0.4,0.3-0.7,0.7-0.6l0.6,0c0.4,0,0.7,0.3,0.6,0.7
				l-0.3,9.3C1343.8,215,1343.5,215.3,1343.1,215.3z"/>
			<path class="st0" d="M1343.1,215.3l-0.6,0c-0.4,0-0.7-0.3-0.6-0.7l0.3-9.3c0-0.4,0.3-0.7,0.7-0.6l0.6,0c0.4,0,0.7,0.3,0.6,0.7
				l-0.3,9.3C1343.8,215,1343.5,215.3,1343.1,215.3z"/>
		</g>
		<g>
			<path class="st4" d="M1342.6,229.3l-0.6,0c-0.4,0-0.7-0.3-0.6-0.7l0.3-9.3c0-0.4,0.3-0.7,0.7-0.6l0.6,0c0.4,0,0.7,0.3,0.6,0.7
				l-0.3,9.3C1343.3,229,1343,229.3,1342.6,229.3z"/>
			<path class="st0" d="M1342.6,229.3l-0.6,0c-0.4,0-0.7-0.3-0.6-0.7l0.3-9.3c0-0.4,0.3-0.7,0.7-0.6l0.6,0c0.4,0,0.7,0.3,0.6,0.7
				l-0.3,9.3C1343.3,229,1343,229.3,1342.6,229.3z"/>
		</g>
		<g>
			<path class="st4" d="M1388.5,216.9l-0.6,0c-0.4,0-0.7-0.3-0.6-0.7l0.3-9.3c0-0.4,0.3-0.7,0.7-0.6l0.6,0c0.4,0,0.7,0.3,0.6,0.7
				l-0.3,9.3C1389.2,216.6,1388.9,216.9,1388.5,216.9z"/>
			<path class="st0" d="M1388.5,216.9l-0.6,0c-0.4,0-0.7-0.3-0.6-0.7l0.3-9.3c0-0.4,0.3-0.7,0.7-0.6l0.6,0c0.4,0,0.7,0.3,0.6,0.7
				l-0.3,9.3C1389.2,216.6,1388.9,216.9,1388.5,216.9z"/>
		</g>
		<g>
			<path class="st4" d="M1388,230.9l-0.6,0c-0.4,0-0.7-0.3-0.6-0.7l0.3-9.3c0-0.4,0.3-0.7,0.7-0.6l0.6,0c0.4,0,0.7,0.3,0.6,0.7
				l-0.3,9.3C1388.7,230.6,1388.4,230.9,1388,230.9z"/>
			<path class="st0" d="M1388,230.9l-0.6,0c-0.4,0-0.7-0.3-0.6-0.7l0.3-9.3c0-0.4,0.3-0.7,0.7-0.6l0.6,0c0.4,0,0.7,0.3,0.6,0.7
				l-0.3,9.3C1388.7,230.6,1388.4,230.9,1388,230.9z"/>
		</g>
		<g>
			<path class="st4" d="M1384.5,303.2l-0.6,0c-0.4,0-0.7-0.3-0.6-0.7l0.3-9.3c0-0.4,0.3-0.7,0.7-0.6l0.6,0c0.4,0,0.7,0.3,0.6,0.7
				l-0.3,9.3C1385.2,302.9,1384.9,303.2,1384.5,303.2z"/>
			<path class="st0" d="M1384.5,303.2l-0.6,0c-0.4,0-0.7-0.3-0.6-0.7l0.3-9.3c0-0.4,0.3-0.7,0.7-0.6l0.6,0c0.4,0,0.7,0.3,0.6,0.7
				l-0.3,9.3C1385.2,302.9,1384.9,303.2,1384.5,303.2z"/>
		</g>
		<g>
			<path class="st4" d="M1381.6,305.8l-37.9-1.3c-0.8,0-1.5-0.7-1.5-1.6l0.5-13.3c0-0.8,0.7-1.5,1.6-1.5l37.9,1.3
				c0.8,0,1.5,0.7,1.5,1.6l-0.5,13.3C1383.1,305.2,1382.4,305.8,1381.6,305.8z"/>
			<path class="st0" d="M1381.6,305.8l-37.9-1.3c-0.8,0-1.5-0.7-1.5-1.6l0.5-13.3c0-0.8,0.7-1.5,1.6-1.5l37.9,1.3
				c0.8,0,1.5,0.7,1.5,1.6l-0.5,13.3C1383.1,305.2,1382.4,305.8,1381.6,305.8z"/>
		</g>
		<g>
			<polygon class="st9" points="1343.3,199.4 1341.9,244.2 1344.3,253.4 1344.7,261.7 1343.5,269.4 1343.9,276.7 1344,278.5 
				1344.1,280.2 1344.2,282 1344.3,283.7 1344.4,285.4 1344.5,287 1344.7,288.6 1344.8,290.3 1345.1,291.1 1345.1,291.1 
				1349.7,308.3 1374.7,309.2 1380.8,291.5 1381.1,289.9 1381.3,288.2 1381.5,286.6 1381.7,284.9 1382,283.2 1382.2,281.5 
				1382.5,279.7 1382.7,277.9 1383.7,270.8 1383,263 1384.1,254.6 1387.2,245.7 1388.6,201 			"/>
			<polygon class="st0" points="1343.3,199.4 1341.9,244.2 1344.3,253.4 1344.7,261.7 1343.5,269.4 1343.9,276.7 1344,278.5 
				1344.1,280.2 1344.2,282 1344.3,283.7 1344.4,285.4 1344.5,287 1344.7,288.6 1344.8,290.3 1345.1,291.1 1345.1,291.1 
				1349.7,308.3 1374.7,309.2 1380.8,291.5 1381.1,289.9 1381.3,288.2 1381.5,286.6 1381.7,284.9 1382,283.2 1382.2,281.5 
				1382.5,279.7 1382.7,277.9 1383.7,270.8 1383,263 1384.1,254.6 1387.2,245.7 1388.6,201 			"/>
		</g>
		<g>
			<polygon class="st10" points="1344.8,197.2 1387.3,198.7 1388.6,201 1343.3,199.4 			"/>
			<polygon class="st0" points="1344.8,197.2 1387.3,198.7 1388.6,201 1343.3,199.4 			"/>
		</g>
		<g>
			<polygon class="st4" points="1352.5,313.8 1351.7,313.8 1351.4,311 1352.9,311 			"/>
			<polygon class="st0" points="1352.5,313.8 1351.7,313.8 1351.4,311 1352.9,311 			"/>
		</g>
		<g>
			<polygon class="st4" points="1354.4,314.5 1353.6,314.5 1353.4,310.8 1354.8,310.8 			"/>
			<polygon class="st0" points="1354.4,314.5 1353.6,314.5 1353.4,310.8 1354.8,310.8 			"/>
		</g>
		<g>
			<polygon class="st4" points="1370.7,314.5 1369.8,314.4 1369.6,311.6 1371.1,311.7 			"/>
			<polygon class="st0" points="1370.7,314.5 1369.8,314.4 1369.6,311.6 1371.1,311.7 			"/>
		</g>
		<g>
			<polygon class="st4" points="1372.6,315.2 1371.7,315.1 1371.6,311.4 1373,311.5 			"/>
			<polygon class="st0" points="1372.6,315.2 1371.7,315.1 1371.6,311.4 1373,311.5 			"/>
		</g>
		<g>
			<polygon class="st4" points="1343.9,275.8 1344,278.4 1363.1,283 1382.5,279.8 1382.7,277.5 1363.2,280.4 			"/>
			<polygon class="st0" points="1343.9,275.8 1344,278.4 1363.1,283 1382.5,279.8 1382.7,277.5 1363.2,280.4 			"/>
		</g>
		<g>
			<path class="st4" d="M1377.2,254.9l-12.8-0.4l-12.8-0.4c-1.3,0-2.4-0.6-3.2-1.5s-1.3-2-1.2-3.3l0.7-20.8l0.7-20.8
				c0-1.3,8.7-4.2,17.6-3.9c8.8,0.3,17.3,3.8,17.3,5.1l-0.7,20.8l-0.7,20.8c0,1.3-0.6,2.4-1.5,3.2
				C1379.7,254.5,1378.5,254.9,1377.2,254.9z"/>
			<path class="st0" d="M1377.2,254.9l-12.8-0.4l-12.8-0.4c-1.3,0-2.4-0.6-3.2-1.5s-1.3-2-1.2-3.3l0.7-20.8l0.7-20.8
				c0-1.3,8.7-4.2,17.6-3.9c8.8,0.3,17.3,3.8,17.3,5.1l-0.7,20.8l-0.7,20.8c0,1.3-0.6,2.4-1.5,3.2
				C1379.7,254.5,1378.5,254.9,1377.2,254.9z"/>
		</g>
		<g>
			<circle class="st11" cx="1346.3" cy="254.9" r="1.3"/>
			<circle class="st0" cx="1346.3" cy="254.9" r="1.3"/>
		</g>
		<g>
			<circle class="st11" cx="1381.8" cy="256.1" r="1.3"/>
			<circle class="st0" cx="1381.8" cy="256.1" r="1.3"/>
		</g>
		<g>
			<polygon class="st4" points="1373.9,311.5 1350.4,310.7 1349.7,308.3 1374.7,309.2 			"/>
			<polygon class="st0" points="1373.9,311.5 1350.4,310.7 1349.7,308.3 1374.7,309.2 			"/>
		</g>
		<line class="st5" x1="1348.4" y1="217.1" x2="1383.4" y2="218.4"/>
		<line class="st5" x1="1348" y1="228.4" x2="1383" y2="229.7"/>
		<line class="st5" x1="1347.6" y1="239.7" x2="1382.6" y2="241"/>
		<polyline class="st12" points="1381,291.8 1362.7,292.5 1344.8,290.3 		"/>
		<line class="st11" x1="1362.7" y1="292.5" x2="1362.2" y2="308.8"/>
	</g>
</g>
<g id="monitor-left">
	<path id="power_2_" class="st13" d="M824.2,234.3h-33.4c-1.8,0-3.3-1.5-3.3-3.3v-2c0-1.8,1.5-3.3,3.3-3.3h33.4
		c1.8,0,3.3,1.5,3.3,3.3v2C827.5,232.8,826,234.3,824.2,234.3z"/>
	<path id="base_2_" class="st1" d="M450,188.4c0-3.2,3.3-6,7.3-6h200.1c4,0,7.3,2.8,7.3,6l-19.7,91.9c0,3.2-3.3,5.9-7.3,5.9H477
		c-4,0-7.3-2.6-7.3-5.9L450,188.4z"/>
	<g id="monitor_2_">
		<path class="st1" d="M970.5,37.2H106.2c-8.3,0-15,6.6-15,14.9l92.1,177.8h710.2l92.1-177.8C985.5,43.8,978.8,37.2,970.5,37.2z"/>
		<path class="st1" d="M970.5,37.2H106.2c-8.3,0-15,6.6-15,14.9l92.1,177.8h710.2l92.1-177.8C985.5,43.8,978.8,37.2,970.5,37.2z"/>
		<path class="st1" d="M970.5,22.6H106.2c-8.3,0-15,6.6-15,14.9l0,0l0,14.6c0-8.3,6.7-14.9,15-14.9h864.3c8.3,0,15,6.6,15,14.9
			l0.4-14.7C985.9,29.1,978.8,22.6,970.5,22.6z"/>
		<polygon id="_x3C_Path_x3E__2_" class="st1" points="882.7,216.5 962.5,55.5 114.1,55.5 194,216.5 		"/>
	</g>
</g>
<g id="monitor-right">
	<path id="power_1_" class="st13" d="M1763.1,234.3h-33.4c-1.8,0-3.3-1.5-3.3-3.3v-2c0-1.8,1.5-3.3,3.3-3.3h33.4
		c1.8,0,3.3,1.5,3.3,3.3v2C1766.5,232.8,1765,234.3,1763.1,234.3z"/>
	<path id="base_1_" class="st1" d="M1388.9,188.4c0-3.2,3.3-6,7.3-6h200.1c4,0,7.3,2.8,7.3,6l-19.7,91.9c0,3.2-3.3,5.9-7.3,5.9
		h-160.8c-4,0-7.3-2.6-7.3-5.9L1388.9,188.4z"/>
	<g id="monitor_1_">
		<path class="st1" d="M1909.4,37.2h-864.3c-8.3,0-15,6.6-15,14.9l92.1,177.8h710.2l92.1-177.8C1924.5,43.8,1917.7,37.2,1909.4,37.2
			z"/>
		<path class="st1" d="M1909.4,37.2h-864.3c-8.3,0-15,6.6-15,14.9l92.1,177.8h710.2l92.1-177.8C1924.5,43.8,1917.7,37.2,1909.4,37.2
			z"/>
		<path class="st1" d="M1909.4,22.6h-864.3c-8.3,0-15,6.6-15,14.9l0,0l0,14.6c0-8.3,6.7-14.9,15-14.9h864.3c8.3,0,15,6.6,15,14.9
			l0.4-14.7C1924.9,29.1,1917.7,22.6,1909.4,22.6z"/>
		<polygon id="_x3C_Path_x3E__1_" class="st1" points="1821.6,216.5 1901.5,55.5 1053.1,55.5 1132.9,216.5 		"/>
	</g>
</g>
</svg>
