<?xml version="1.0" encoding="utf-8"?>
<!-- Generator: Adobe Illustrator 17.1.0, SVG Export Plug-In . SVG Version: 6.00 Build 0)  -->
<!DOCTYPE svg PUBLIC "-//W3C//DTD SVG 1.1//EN" "http://www.w3.org/Graphics/SVG/1.1/DTD/svg11.dtd">
<svg version="1.1" id="Layer_1" xmlns="http://www.w3.org/2000/svg" xmlns:xlink="http://www.w3.org/1999/xlink" x="0px" y="0px"
	 viewBox="0 0 75 75" enable-background="new 0 0 75 75" width="200" height="200" xml:space="preserve">
<g>
	<g>
		<g>
			<g>
				<path fill="#15B0BF" d="M30.5,70.6c-0.4,0-0.7,0.3-0.7,0.7c0,0.4,0.3,0.7,0.7,0.7h14c0.4,0,0.7-0.3,0.7-0.7
					c0-0.4-0.3-0.7-0.7-0.7H30.5L30.5,70.6z"/>
			</g>
		</g>
		<path fill="#D1ECFB" d="M20,36.3c0-9.7,7.8-17.5,17.5-17.5c9.7,0,17.5,7.8,17.5,17.5c0,0.6-0.4,8.7-7,17.1
			c-1.9,2.6-1.6,7.7-1.6,7.7c-2.7,0-4.9,0-7.7,0c-0.8,0-1.7,0-2.5,0c-2.7,0-5,0-7.7,0c0,0,0.4-5.1-1.6-7.7C20.4,45,20,36.9,20,36.3z
			"/>
		<path fill="#FFFFFF" d="M37.5,61.2c-2.7,0-6.2,0-8.9,0c0,0,0.4-5.1-1.6-7.7c-6.6-8.5-7-16.6-7-17.1c0-9.7,7.8-17.5,17.5-17.5"/>
		<g>
			<path fill="#FFFFFF" d="M51.3,36.3h-1.5c0-6.7-5.5-12.2-12.2-12.2v-1.5C45.1,22.5,51.3,28.7,51.3,36.3L51.3,36.3z"/>
		</g>
		<g>
			<g>
				<g>
					<polygon fill="#1695A4" points="41.3,62.5 39.8,62.3 42.8,44.2 44.3,44.4 41.3,62.5 					"/>
				</g>
				<g>
					<polygon fill="#1695A4" points="33.7,62.5 30.7,44.4 32.2,44.2 35.2,62.3 33.7,62.5 					"/>
				</g>
			</g>
			<g>
				<path fill="#1695A4" d="M43.5,46.7c-0.6,0-0.9-0.6-1.1-1.1c-0.1-0.2-0.3-0.6-0.4-0.6c-0.1,0-0.2,0.3-0.3,0.5
					c-0.2,0.5-0.4,1.1-1.2,1.1c-0.4,0-0.7-0.4-1-0.9c-0.1-0.2-0.3-0.5-0.4-0.6c-0.1,0.1-0.3,0.4-0.4,0.6c-0.3,0.5-0.6,1-1.1,1
					c-0.5,0-0.8-0.5-1.1-1c-0.1-0.2-0.3-0.5-0.4-0.6c-0.1,0.1-0.3,0.4-0.4,0.6c-0.3,0.5-0.6,1-1,1c-0.5,0-0.8-0.6-1.2-1.1
					c-0.1-0.2-0.3-0.4-0.4-0.5c-0.1,0-0.2,0.2-0.4,0.6c-0.2,0.4-0.4,1-1,1v-0.8c0.1,0,0.2-0.3,0.3-0.5c0.2-0.5,0.4-1.1,1.2-1.1
					c0.4,0,0.7,0.4,1,0.9c0.1,0.2,0.3,0.5,0.4,0.6c0.1-0.1,0.3-0.4,0.4-0.6c0.3-0.5,0.6-1,1.1-1c0.5,0,0.8,0.5,1.1,1
					c0.1,0.2,0.3,0.5,0.4,0.6c0.1-0.1,0.3-0.4,0.4-0.6c0.3-0.5,0.6-1,1-1c0.5,0,0.8,0.6,1.2,1.1c0.1,0.2,0.3,0.4,0.4,0.5
					c0.1,0,0.2-0.2,0.4-0.6c0.2-0.4,0.4-1,1-1c0.6,0,0.9,0.6,1.1,1.1c0.1,0.2,0.3,0.6,0.4,0.6V46.7L43.5,46.7z"/>
			</g>
		</g>
		<path fill="#1695A4" d="M46.4,61.2v9.1c0,0.6-0.5,1.1-1.1,1.1H29.7c-0.6,0-1.1-0.5-1.1-1.1v-9.1H46.4z"/>
		<g>
			<g>
				<line fill="#103754" x1="46.8" y1="62" x2="28.2" y2="62"/>
				<path fill="#15B0BF" d="M46.8,62.9H28.2c-0.5,0-0.9-0.4-0.9-0.9s0.4-0.9,0.9-0.9h18.5c0.5,0,0.9,0.4,0.9,0.9
					S47.3,62.9,46.8,62.9L46.8,62.9z"/>
			</g>
			<g>
				<line fill="#1695A4" x1="46.8" y1="65" x2="28.2" y2="65"/>
				<path fill="#15B0BF" d="M46.8,65.9H28.2c-0.5,0-0.9-0.4-0.9-0.9c0-0.5,0.4-0.9,0.9-0.9h18.5c0.5,0,0.9,0.4,0.9,0.9
					C47.7,65.5,47.3,65.9,46.8,65.9L46.8,65.9z"/>
			</g>
			<g>
				<line fill="#1695A4" x1="46.8" y1="68" x2="28.2" y2="68"/>
				<path fill="#15B0BF" d="M46.8,68.9H28.2c-0.5,0-0.9-0.4-0.9-0.9c0-0.5,0.4-0.9,0.9-0.9h18.5c0.5,0,0.9,0.4,0.9,0.9
					C47.7,68.5,47.3,68.9,46.8,68.9L46.8,68.9z"/>
			</g>
		</g>
	</g>
	<g>
		<g>
			<path fill="#FFFFFF" d="M37.5,13.1c-0.3,0-0.5-0.2-0.5-0.5V3.1c0-0.3,0.2-0.5,0.5-0.5c0.3,0,0.5,0.2,0.5,0.5v9.6
				C37.9,12.9,37.7,13.1,37.5,13.1L37.5,13.1z"/>
		</g>
		<g>
			<path fill="#FFFFFF" d="M25.2,16.4c-0.2,0-0.3-0.1-0.4-0.2L20,7.9c-0.1-0.2-0.1-0.5,0.2-0.6c0.2-0.1,0.5-0.1,0.6,0.2l4.8,8.3
				c0.1,0.2,0.1,0.5-0.2,0.6C25.4,16.4,25.3,16.4,25.2,16.4L25.2,16.4z"/>
		</g>
		<g>
			<path fill="#FFFFFF" d="M16.3,25.4c-0.1,0-0.2,0-0.2-0.1l-8.3-4.8c-0.2-0.1-0.3-0.4-0.2-0.6c0.1-0.2,0.4-0.3,0.6-0.2l8.3,4.8
				c0.2,0.1,0.3,0.4,0.2,0.6C16.6,25.3,16.4,25.4,16.3,25.4L16.3,25.4z"/>
		</g>
		<g>
			<path fill="#FFFFFF" d="M13,37.6H3.4c-0.3,0-0.5-0.2-0.5-0.5c0-0.3,0.2-0.5,0.5-0.5H13c0.3,0,0.5,0.2,0.5,0.5
				C13.5,37.4,13.3,37.6,13,37.6L13,37.6z"/>
		</g>
		<g>
			<path fill="#FFFFFF" d="M20.5,67.2c-0.1,0-0.2,0-0.2-0.1c-0.2-0.1-0.3-0.4-0.2-0.6l4.8-8.3c0.1-0.2,0.4-0.3,0.6-0.2
				c0.2,0.1,0.3,0.4,0.2,0.6l-4.8,8.3C20.8,67.1,20.6,67.2,20.5,67.2L20.5,67.2z"/>
		</g>
		<g>
			<path fill="#FFFFFF" d="M54.6,67.1c-0.2,0-0.3-0.1-0.4-0.2l-4.8-8.3c-0.1-0.2-0.1-0.5,0.2-0.6c0.2-0.1,0.5-0.1,0.6,0.2l4.8,8.3
				c0.1,0.2,0.1,0.5-0.2,0.6C54.7,67.1,54.6,67.1,54.6,67.1L54.6,67.1z"/>
		</g>
		<g>
			<path fill="#FFFFFF" d="M67,54.7c-0.1,0-0.2,0-0.2-0.1l-8.3-4.8c-0.2-0.1-0.3-0.4-0.2-0.6c0.1-0.2,0.4-0.3,0.6-0.2l8.3,4.8
				c0.2,0.1,0.3,0.4,0.2,0.6C67.3,54.6,67.2,54.7,67,54.7L67,54.7z"/>
		</g>
		<g>
			<path fill="#FFFFFF" d="M71.6,37.6H62c-0.3,0-0.5-0.2-0.5-0.5c0-0.3,0.2-0.5,0.5-0.5h9.6c0.3,0,0.5,0.2,0.5,0.5
				C72.1,37.4,71.9,37.6,71.6,37.6L71.6,37.6z"/>
		</g>
		<g>
			<path fill="#FFFFFF" d="M58.7,25.4c-0.2,0-0.3-0.1-0.4-0.2c-0.1-0.2-0.1-0.5,0.2-0.6l8.3-4.8c0.2-0.1,0.5-0.1,0.6,0.2
				c0.1,0.2,0.1,0.5-0.2,0.6l-8.3,4.8C58.9,25.3,58.8,25.4,58.7,25.4L58.7,25.4z"/>
		</g>
		<g>
			<path fill="#FFFFFF" d="M49.7,16.4c-0.1,0-0.2,0-0.2-0.1c-0.2-0.1-0.3-0.4-0.2-0.6l4.8-8.3c0.1-0.2,0.4-0.3,0.6-0.2
				c0.2,0.1,0.3,0.4,0.2,0.6l-4.8,8.3C50.1,16.3,49.9,16.4,49.7,16.4L49.7,16.4z"/>
		</g>
		<g>
			<path fill="#FFFFFF" d="M37.5,13.1c-0.3,0-0.5-0.2-0.5-0.5V3.1c0-0.3,0.2-0.5,0.5-0.5c0.3,0,0.5,0.2,0.5,0.5v9.6
				C37.9,12.9,37.7,13.1,37.5,13.1L37.5,13.1z"/>
		</g>
	</g>
	<g>
		<g>
			<path fill="#A6DAE9" d="M37.5,13.1c-0.3,0-0.5-0.2-0.5-0.5V3.1c0-0.3,0.2-0.5,0.5-0.5c0.3,0,0.5,0.2,0.5,0.5v9.6
				C38,12.9,37.8,13.1,37.5,13.1L37.5,13.1z"/>
		</g>
		<g>
			<path fill="#A6DAE9" d="M49.8,16.4c-0.1,0-0.2,0-0.2-0.1c-0.2-0.1-0.3-0.4-0.2-0.6l4.8-8.3c0.1-0.2,0.4-0.3,0.6-0.2
				C55,7.4,55.1,7.6,55,7.9l-4.8,8.3C50.1,16.3,49.9,16.4,49.8,16.4L49.8,16.4z"/>
		</g>
		<g>
			<path fill="#A6DAE9" d="M58.7,25.4c-0.2,0-0.3-0.1-0.4-0.2c-0.1-0.2-0.1-0.5,0.2-0.6l8.3-4.8c0.2-0.1,0.5-0.1,0.6,0.2
				c0.1,0.2,0.1,0.5-0.2,0.6l-8.3,4.8C58.9,25.4,58.8,25.4,58.7,25.4L58.7,25.4z"/>
		</g>
		<g>
			<path fill="#A6DAE9" d="M71.6,37.6H62c-0.3,0-0.5-0.2-0.5-0.5c0-0.3,0.2-0.5,0.5-0.5h9.6c0.3,0,0.5,0.2,0.5,0.5
				C72.1,37.4,71.9,37.6,71.6,37.6L71.6,37.6z"/>
		</g>
		<g>
			<path fill="#A6DAE9" d="M54.5,67.2c-0.2,0-0.3-0.1-0.4-0.2l-4.8-8.3c-0.1-0.2-0.1-0.5,0.2-0.6c0.2-0.1,0.5-0.1,0.6,0.2l4.8,8.3
				c0.1,0.2,0.1,0.5-0.2,0.6C54.7,67.1,54.6,67.2,54.5,67.2L54.5,67.2z"/>
		</g>
		<g>
			<path fill="#A6DAE9" d="M20.4,67.1c-0.1,0-0.2,0-0.2-0.1C20,67,19.9,66.7,20,66.5l4.8-8.3c0.1-0.2,0.4-0.3,0.6-0.2
				c0.2,0.1,0.3,0.4,0.2,0.6l-4.8,8.3C20.8,67.1,20.6,67.1,20.4,67.1L20.4,67.1z"/>
		</g>
		<g>
			<path fill="#A6DAE9" d="M8,54.7c-0.2,0-0.3-0.1-0.4-0.2c-0.1-0.2-0.1-0.5,0.2-0.6l8.3-4.8c0.2-0.1,0.5-0.1,0.6,0.2
				c0.1,0.2,0.1,0.5-0.2,0.6l-8.3,4.8C8.1,54.6,8,54.7,8,54.7L8,54.7z"/>
		</g>
		<g>
			<path fill="#A6DAE9" d="M13,37.6H3.4c-0.3,0-0.5-0.2-0.5-0.5c0-0.3,0.2-0.5,0.5-0.5H13c0.3,0,0.5,0.2,0.5,0.5
				C13.5,37.4,13.3,37.6,13,37.6L13,37.6z"/>
		</g>
		<g>
			<path fill="#A6DAE9" d="M16.3,25.4c-0.1,0-0.2,0-0.2-0.1l-8.3-4.8c-0.2-0.1-0.3-0.4-0.2-0.6c0.1-0.2,0.4-0.3,0.6-0.2l8.3,4.8
				c0.2,0.1,0.3,0.4,0.2,0.6C16.6,25.3,16.4,25.4,16.3,25.4L16.3,25.4z"/>
		</g>
		<g>
			<path fill="#A6DAE9" d="M25.3,16.4c-0.2,0-0.3-0.1-0.4-0.2l-4.8-8.3c-0.1-0.2-0.1-0.5,0.2-0.6c0.2-0.1,0.5-0.1,0.6,0.2l4.8,8.3
				c0.1,0.2,0.1,0.5-0.2,0.6C25.4,16.4,25.3,16.4,25.3,16.4L25.3,16.4z"/>
		</g>
		<g>
			<path fill="#A6DAE9" d="M37.5,13.1c-0.3,0-0.5-0.2-0.5-0.5V3.1c0-0.3,0.2-0.5,0.5-0.5c0.3,0,0.5,0.2,0.5,0.5v9.6
				C38,12.9,37.8,13.1,37.5,13.1L37.5,13.1z"/>
		</g>
	</g>
</g>
</svg>
