<?xml version="1.0" encoding="utf-8"?>
<!-- Generator: Adobe Illustrator 18.1.1, SVG Export Plug-In . SVG Version: 6.00 Build 0)  -->
<!DOCTYPE svg PUBLIC "-//W3C//DTD SVG 1.1//EN" "http://www.w3.org/Graphics/SVG/1.1/DTD/svg11.dtd">
<svg version="1.1" id="Layer_1" xmlns="http://www.w3.org/2000/svg" xmlns:xlink="http://www.w3.org/1999/xlink" x="0px" y="0px"
	 viewBox="0 0 225 64" style="enable-background:new 0 0 225 64;" xml:space="preserve">
<style type="text/css">
	.st0{fill:#02A0D9;}
	.st1{fill:#008CC2;}
	.st2{fill:#02A7E3;}
	.st3{fill:#FFFFFF;}
</style>
<g>
	<g>
		<g>
			<path class="st0" d="M109.1,19.7l-9,12.4l8.8,12.2h-5.2l-6.2-8.6l-6.2,8.6h-5.2l8.8-12.2l-9-12.4h5.2l6.4,8.8l6.4-8.8H109.1z"/>
			<path class="st0" d="M115.4,44.3h-4.7l12.9-24.7l12.9,24.7h-4.8l-2.5-4.9H118L115.4,44.3z M123.6,28.7l-3.4,6.5h6.8L123.6,28.7z"
				/>
			<path class="st0" d="M148.1,19.7h4.6l-11.1,24.9l-11.1-24.9h4.6l6.5,14.5L148.1,19.7z"/>
			<path class="st0" d="M156.2,44.3V19.7h4.2v24.6H156.2z"/>
			<path class="st0" d="M181.1,24h-12.3v5.5h10.1v4.2h-10.1V40h12.3v4.2h-16.5V19.8h16.5V24z"/>
			<path class="st0" d="M189.5,44.2h-4.2V19.7h4.2h6.6c3.9,0,7,3.2,7,7c0,3.3-2.4,6.1-5.5,6.8l5.5,10.7h-4.7L193,33.7h-3.5V44.2z
				 M189.5,23.9v5.6h6.6c0.7,0,1.5-0.3,2-0.8c0.5-0.6,0.8-1.3,0.8-2c0-0.7-0.3-1.4-0.8-2c-0.5-0.5-1.2-0.8-2-0.8H189.5z"/>
		</g>
		<g>
			<path class="st0" d="M91.5,47.8h1.3v7.8h-1.3v-3.3h-4v3.3h-1.3v-7.8h1.3v3.1h4V47.8z"/>
			<path class="st0" d="M106.8,55.6h-1.5l4.1-7.8l4.1,7.8h-1.5l-0.8-1.6h-3.6L106.8,55.6z M109.3,50.6l-1.1,2.1h2.2L109.3,50.6z"/>
			<path class="st0" d="M127.2,55.6h-1.3v-7.8h1.3h2.1c1.2,0,2.2,1,2.2,2.2c0,1.1-0.7,2-1.7,2.2l1.7,3.4H130l-1.7-3.3h-1.1V55.6z
				 M127.2,49.1v1.8h2.1c0.2,0,0.5-0.1,0.6-0.3c0.2-0.2,0.3-0.4,0.3-0.6c0-0.2-0.1-0.5-0.3-0.6c-0.2-0.2-0.4-0.3-0.6-0.3H127.2z"/>
			<path class="st0" d="M145.6,55.6h-1.3v-7.8h1.3h2.1c1.2,0,2.2,1,2.2,2.2c0,1.1-0.7,2-1.7,2.2l1.7,3.4h-1.5l-1.7-3.3h-1.1V55.6z
				 M145.6,49.1v1.8h2.1c0.2,0,0.5-0.1,0.6-0.3c0.2-0.2,0.3-0.4,0.3-0.6c0-0.2-0.1-0.5-0.3-0.6c-0.2-0.2-0.4-0.3-0.6-0.3H145.6z"/>
			<path class="st0" d="M167.9,49.1H164v1.8h3.2v1.3H164v2h3.9v1.3h-5.2v-7.8h5.2V49.1z"/>
			<path class="st0" d="M180.3,55.6v-7.8h1.3v6.4h3.9v1.3H180.3z"/>
			<path class="st0" d="M197.9,55.6v-7.8h1.3v6.4h3.9v1.3H197.9z"/>
		</g>
	</g>
	<g>
		<g>
			<path class="st1" d="M73,52.3c2.9-14.3,2.9-26.7,0-41c-7.7-2.1-15.6-2.9-23.6-2.5c2.9,6.9,4.5,15.5,4.2,24.9
				c-0.2,7.8-1.7,15-4.1,21.1C57.4,55.2,65.4,54.4,73,52.3z"/>
			<path class="st1" d="M79.3,5c-11-3.2-22.5-4.3-33.8-3.3c0.7,1,1.4,2.1,2.1,3.3c9.3-0.7,18.7,0.3,27.7,2.9C76,8,76.5,8.6,76.7,9.3
				c3.3,15.8,3.3,29.2,0,44.9c-0.2,0.7-0.7,1.3-1.4,1.5c-7.1,2.1-14.5,3.1-21.9,3.1c-1.8,0-3.7-0.1-5.5-0.2C47.2,59.8,46.6,61,46,62
				c11.2,0.9,22.5-0.2,33.4-3.4C83.3,39.8,83.3,23.8,79.3,5z"/>
			<path class="st2" d="M49.5,8.8c-5.3,0.3-10.6,1.1-15.8,2.5c-2.9,14.3-2.9,26.7,0,41c5.2,1.4,10.5,2.2,15.9,2.5
				c2.4-6.1,3.9-13.3,4.1-21.1C54,24.4,52.4,15.7,49.5,8.8z"/>
			<path class="st2" d="M31.4,55.8c-0.7-0.2-1.2-0.8-1.4-1.5c-3.3-15.8-3.3-29.2,0-44.9c0.2-0.7,0.7-1.3,1.4-1.5
				C36.7,6.3,42.1,5.4,47.6,5c-0.7-1.2-1.3-2.3-2.1-3.3C39.4,2.1,33.3,3.2,27.4,5c-4,18.9-4,34.8,0,53.7c6.1,1.8,12.3,2.9,18.6,3.4
				c0.7-1.1,1.3-2.2,1.9-3.3C42.3,58.3,36.8,57.3,31.4,55.8z"/>
		</g>
		<path class="st3" d="M69.5,49.2c-2.5,0-4.9,0-7.4,0c-2.2-3.9-5.4-8-8.8-12.1c-3.4,4.1-6.5,8.1-8.8,12.1c-2.5,0-4.9,0-7.4,0
			c2.4-5.6,7-11.4,11.8-17.3C44.1,26,39.4,20.1,37,14.4c2.5,0,4.9,0,7.4,0c2.3,4.1,5.5,8.2,9,12.4c3.5-4.2,6.7-8.4,9-12.4
			c2.5,0,4.9,0,7.4,0C67.3,20.1,62.6,26,57.7,32C62.5,37.8,67.2,43.6,69.5,49.2z"/>
	</g>
</g>
</svg>
