<?xml version="1.0" encoding="utf-8"?>
<!-- Generator: Adobe Illustrator 18.1.1, SVG Export Plug-In . SVG Version: 6.00 Build 0)  -->
<!DOCTYPE svg PUBLIC "-//W3C//DTD SVG 1.1//EN" "http://www.w3.org/Graphics/SVG/1.1/DTD/svg11.dtd">
<svg version="1.1" id="Layer_1" xmlns="http://www.w3.org/2000/svg" xmlns:xlink="http://www.w3.org/1999/xlink" x="0px" y="0px"
	 viewBox="0 0 75 75" style="enable-background:new 0 0 75 75;" xml:space="preserve">
<style type="text/css">
	.st0{fill:#008CC2;}
	.st1{fill:#02A7E3;}
	.st2{fill:#FFFFFF;}
</style>
<g>
	<g>
		<path class="st0" d="M61.3,62.7c3.5-17.5,3.5-32.7,0-50.2C51.9,10,42.2,9,32.5,9.5C36,18,38,28.6,37.6,40
			c-0.3,9.5-2.1,18.4-5,25.8C42.2,66.3,52,65.3,61.3,62.7z"/>
		<path class="st0" d="M69,4.8C55.5,0.9,41.5-0.4,27.6,0.7c0.9,1.3,1.7,2.6,2.5,4.1C41.6,4,53.1,5.2,64.1,8.3
			c0.9,0.2,1.5,0.9,1.7,1.8c4.1,19.3,4.1,35.7,0,55c-0.2,0.9-0.8,1.6-1.7,1.8c-8.7,2.5-17.7,3.8-26.8,3.8c-2.3,0-4.5-0.1-6.8-0.2
			c-0.7,1.4-1.5,2.8-2.3,4.1c13.7,1.1,27.5-0.3,40.9-4.1C73.9,47.4,73.9,27.9,69,4.8z"/>
		<path class="st1" d="M32.5,9.5c-6.5,0.3-13,1.3-19.3,3.1c-3.5,17.5-3.5,32.7,0,50.2c6.4,1.7,12.9,2.7,19.4,3.1
			c2.9-7.4,4.8-16.3,5-25.8C38,28.6,36,18,32.5,9.5z"/>
		<path class="st1" d="M10.4,67c-0.9-0.2-1.5-0.9-1.7-1.8c-4.1-19.3-4.1-35.7,0-55c0.2-0.9,0.8-1.6,1.7-1.8c6.5-1.9,13.1-3,19.8-3.5
			c-0.8-1.4-1.6-2.8-2.5-4.1c-7.5,0.6-14.9,2-22.2,4.1c-4.9,23.1-4.9,42.6,0,65.7c7.5,2.2,15.1,3.5,22.8,4.1
			c0.8-1.3,1.6-2.6,2.3-4.1C23.7,70.1,17,68.9,10.4,67z"/>
	</g>
	<path class="st2" d="M57,59c-3,0-6,0-9,0c-2.7-4.8-6.6-9.8-10.8-14.8c-4.1,5-8,10-10.7,14.8c-3,0-6,0-9,0C20.4,52.1,26,45,32,37.8
		c-6.1-7.3-11.9-14.5-14.8-21.5c3,0,6,0,9,0c2.8,5,6.8,10.1,11,15.2c4.2-5.1,8.2-10.2,11-15.2c3,0,6,0,9,0
		c-2.9,7-8.7,14.2-14.8,21.5C48.4,45,54.1,52.1,57,59z"/>
</g>
</svg>
