<?xml version="1.0" encoding="utf-8"?>
<!-- Generator: Adobe Illustrator 18.1.1, SVG Export Plug-In . SVG Version: 6.00 Build 0)  -->
<!DOCTYPE svg PUBLIC "-//W3C//DTD SVG 1.1//EN" "http://www.w3.org/Graphics/SVG/1.1/DTD/svg11.dtd">
<svg version="1.1" id="Layer_1" xmlns="http://www.w3.org/2000/svg" xmlns:xlink="http://www.w3.org/1999/xlink" x="0px" y="0px"
	 viewBox="0 0 230 75" style="enable-background:new 0 0 230 75;" xml:space="preserve">
<style type="text/css">
	.st0{fill:#02A0D9;}
	.st1{fill:#008CC2;}
	.st2{fill:#02A7E3;}
</style>
<g>
	<g>
		<g>
			<path class="st0" d="M109.4,23.2L98.8,37.8l10.4,14.4h-6.2l-7.4-10.2l-7.3,10.2h-6.2l10.4-14.4L82,23.2h6.2l7.5,10.4l7.5-10.4
				H109.4z"/>
			<path class="st0" d="M117,52.3h-5.6L126.6,23l15.3,29.3h-5.7l-3-5.8H120L117,52.3z M126.6,33.8l-4,7.7h8L126.6,33.8z"/>
			<path class="st0" d="M155.7,23.2h5.5L148,52.6l-13.2-29.5h5.5l7.7,17.2L155.7,23.2z"/>
			<path class="st0" d="M165.3,52.3V23.2h5v29.1H165.3z"/>
			<path class="st0" d="M194.8,28.2h-14.6v6.5h11.9v5h-11.9v7.5h14.6v5h-19.6v-29h19.6V28.2z"/>
			<path class="st0" d="M204.8,52.2h-5V23.2h5h7.9c4.6,0,8.3,3.7,8.3,8.3c0,4-2.8,7.3-6.5,8.1l6.5,12.7h-5.6L209,39.8h-4.2V52.2z
				 M204.8,28.1v6.7h7.9c0.9,0,1.7-0.3,2.4-1c0.6-0.7,1-1.5,1-2.4c0-0.9-0.3-1.7-1-2.4c-0.6-0.6-1.5-1-2.4-1H204.8z"/>
		</g>
		<g>
			<path class="st0" d="M88.6,56.4h1.6v9.3h-1.6v-4h-4.8v4h-1.6v-9.3h1.6v3.7h4.8V56.4z"/>
			<path class="st0" d="M106.7,65.7h-1.8l4.9-9.3l4.9,9.3h-1.8l-1-1.9h-4.2L106.7,65.7z M109.8,59.8l-1.3,2.4h2.6L109.8,59.8z"/>
			<path class="st0" d="M130.9,65.7h-1.6v-9.3h1.6h2.5c1.5,0,2.6,1.2,2.6,2.6c0,1.3-0.9,2.3-2.1,2.6l2.1,4h-1.8l-2-4h-1.3V65.7z
				 M130.9,58v2.1h2.5c0.3,0,0.6-0.1,0.8-0.3c0.2-0.2,0.3-0.5,0.3-0.8c0-0.3-0.1-0.5-0.3-0.8c-0.2-0.2-0.5-0.3-0.8-0.3H130.9z"/>
			<path class="st0" d="M152.7,65.7h-1.6v-9.3h1.6h2.5c1.5,0,2.6,1.2,2.6,2.6c0,1.3-0.9,2.3-2.1,2.6l2.1,4h-1.8l-2-4h-1.3V65.7z
				 M152.7,58v2.1h2.5c0.3,0,0.6-0.1,0.8-0.3c0.2-0.2,0.3-0.5,0.3-0.8c0-0.3-0.1-0.5-0.3-0.8c-0.2-0.2-0.5-0.3-0.8-0.3H152.7z"/>
			<path class="st0" d="M179.1,58.1h-4.6v2.1h3.8v1.6h-3.8v2.4h4.6v1.6h-6.2v-9.2h6.2V58.1z"/>
			<path class="st0" d="M193.8,65.7v-9.2h1.6v7.6h4.6v1.6H193.8z"/>
			<path class="st0" d="M214.7,65.7v-9.2h1.6v7.6h4.6v1.6H214.7z"/>
		</g>
	</g>
	<path class="st1" d="M74.2,5.7C61.1,1.9,47.5,0.6,34.1,1.7c0.9,1.2,1.7,2.5,2.5,3.9c11-0.8,22.2,0.3,32.8,3.4
		c0.8,0.2,1.5,0.9,1.6,1.8c4,18.7,4,34.6,0,53.3c-0.2,0.8-0.8,1.5-1.6,1.8c-8.4,2.4-17.2,3.7-26,3.7c-2.2,0-4.4-0.1-6.5-0.2
		c-0.7,1.4-1.4,2.7-2.2,4c13.3,1.1,26.7-0.3,39.6-4C78.9,47,78.9,28,74.2,5.7z"/>
	<path class="st2" d="M17.4,65.9c-0.8-0.2-1.5-0.9-1.6-1.8c-4-18.7-4-34.6,0-53.3c0.2-0.8,0.8-1.5,1.6-1.8
		c6.3-1.8,12.7-2.9,19.2-3.4c-0.8-1.4-1.6-2.7-2.5-3.9c-7.3,0.6-14.5,1.9-21.5,3.9C7.8,28,7.8,47,12.5,69.3c7.2,2.1,14.6,3.4,22,4
		c0.8-1.2,1.5-2.6,2.2-4C30.2,68.9,23.7,67.8,17.4,65.9z"/>
	<g>
		<path class="st1" d="M66.7,13.2c-9.1-2.5-18.5-3.4-27.9-3c2.5,6,4.2,13.3,4.8,21.1c4-4.9,7.8-9.8,10.5-14.5c2.9,0,5.8,0,8.7,0
			c-2.8,6.8-8.4,13.8-14.3,20.8c5.8,6.9,11.3,13.8,14.1,20.5c-2.9,0-5.8,0-8.7,0c-2.6-4.6-6.3-9.4-10.3-14.1
			c-0.6,7.6-2.2,14.7-4.6,20.8c9.3,0.5,18.8-0.5,27.8-3C70.1,44.8,70.1,30.2,66.7,13.2z"/>
		<path class="st2" d="M43.4,43.8c-4,4.8-7.7,9.6-10.4,14.3c-2.9,0-5.8,0-8.7,0c2.8-6.7,8.3-13.6,14-20.5
			c-5.9-7-11.5-14.1-14.3-20.8c2.9,0,5.8,0,8.7,0c2.7,4.8,6.6,9.8,10.7,14.7c0.1-0.1,0.1-0.2,0.2-0.3c-0.6-7.8-2.3-15-4.8-21.1
			c-6.3,0.3-12.6,1.3-18.7,3c-3.4,16.9-3.4,31.6,0,48.6c6.2,1.7,12.5,2.6,18.8,3c2.4-6.1,4-13.1,4.6-20.8
			C43.4,43.9,43.4,43.9,43.4,43.8z"/>
	</g>
</g>
</svg>
