<?xml version="1.0" encoding="utf-8"?>
<!-- Generator: Adobe Illustrator 18.1.1, SVG Export Plug-In . SVG Version: 6.00 Build 0)  -->
<!DOCTYPE svg PUBLIC "-//W3C//DTD SVG 1.1//EN" "http://www.w3.org/Graphics/SVG/1.1/DTD/svg11.dtd">
<svg version="1.1" id="dartboard" xmlns="http://www.w3.org/2000/svg" xmlns:xlink="http://www.w3.org/1999/xlink" x="0px" y="0px"
	 viewBox="0 0 200 200" style="enable-background:new 0 0 200 200;" xml:space="preserve">
<style type="text/css">
	.st0{fill:#FFFFFF;stroke:#0698CF;stroke-width:2;stroke-miterlimit:10;}
	.st1{fill:#0698CF;}
	.st2{fill:#FFFFFF;stroke:#0698CF;stroke-width:1.9696;stroke-miterlimit:10;}
	.st3{fill:#FFFFFF;}
	.st4{fill:none;stroke:#0698CF;stroke-width:2;stroke-miterlimit:10;}
	.st5{fill:#FFFFFF;stroke:#0698CF;stroke-miterlimit:10;}
	.st6{fill:none;stroke:#0698CF;stroke-miterlimit:10;}
	.st7{fill:#FFFFFF;stroke:#0698CF;stroke-width:2;stroke-linecap:round;stroke-linejoin:round;stroke-miterlimit:10;}
	.st8{fill:none;stroke:#0698CF;stroke-width:2;stroke-linecap:round;stroke-linejoin:round;stroke-miterlimit:10;}
</style>
<g>
	<circle class="st0" cx="100" cy="100" r="95.8"/>
	<circle class="st1" cx="100" cy="100" r="80.2"/>
	<circle class="st2" cx="100" cy="100" r="66"/>
	<circle class="st1" cx="100" cy="100" r="51.9"/>
	<circle class="st3" cx="100" cy="100" r="38.3"/>
	<circle class="st4" cx="100" cy="100" r="95.8"/>
	<circle class="st1" cx="100" cy="100" r="23.9"/>
	<circle class="st3" cx="100" cy="100" r="7.4"/>
</g>
<g>
	<polygon class="st5" points="151.1,76.6 149.3,73.4 147.5,70.2 153.6,66.9 159.6,63.5 158.4,68.4 163.2,69.9 157.1,73.3 	"/>
	<line class="st6" x1="158.4" y1="68.4" x2="100" y2="100.8"/>
	<polyline class="st6" points="159.4,72.1 154.3,70.6 155.8,65.6 	"/>
	<polyline class="st6" points="155.5,74.3 150.4,72.8 151.9,67.8 	"/>
	<path class="st7" d="M106,97.5c0.9-2.5,5.6-11.5,13.6-15.9c7.6-4.2,17.2-3.2,19.1-2.2c-0.2,2.1-5.1,11.3-12,15.1
		C117.6,99.4,108.6,98.1,106,97.5z"/>
	<line class="st8" x1="126.4" y1="79.1" x2="132.4" y2="89.8"/>
	<line class="st8" x1="118.8" y1="82" x2="125.9" y2="94.8"/>
	<line class="st8" x1="113.3" y1="86.4" x2="119.2" y2="97.1"/>
</g>
</svg>
