<?xml version="1.0" encoding="utf-8"?>
<!-- Generator: Adobe Illustrator 18.1.1, SVG Export Plug-In . SVG Version: 6.00 Build 0)  -->
<svg version="1.1" id="Layer_1" xmlns="http://www.w3.org/2000/svg" xmlns:xlink="http://www.w3.org/1999/xlink" x="0px" y="0px"
	 viewBox="0 0 30 30" style="enable-background:new 0 0 30 30;" xml:space="preserve">
<style type="text/css">
	.st0{fill:#1AB7EA;}
	.st1{fill:#FFFFFF;}
</style>
<rect class="st0" width="30" height="30"/>
<g>
	<path class="st1" d="M28.5,8.7c-0.1,2.6-2,6.2-5.5,10.8c-3.7,4.8-6.8,7.2-9.3,7.2c-1.6,0-2.9-1.5-4-4.4c-0.7-2.7-1.5-5.3-2.2-8
		C6.7,11.4,5.8,10,4.9,10c-0.2,0-0.9,0.4-2.1,1.3L1.5,9.6c1.3-1.2,2.6-2.3,3.9-3.5c1.8-1.5,3.1-2.3,4-2.4c2.1-0.2,3.4,1.2,3.9,4.3
		c0.5,3.3,0.9,5.4,1.1,6.2c0.6,2.8,1.3,4.1,2,4.1c0.6,0,1.4-0.9,2.5-2.7c1.1-1.8,1.7-3.1,1.8-4.1c0.2-1.5-0.4-2.3-1.8-2.3
		c-0.6,0-1.3,0.1-2,0.4c1.3-4.3,3.9-6.5,7.6-6.3C27.3,3.4,28.6,5.2,28.5,8.7z"/>
</g>
</svg>
