<?xml version="1.0" encoding="utf-8"?>
<!-- Generator: Adobe Illustrator 17.1.0, SVG Export Plug-In . SVG Version: 6.00 Build 0)  -->
<!DOCTYPE svg PUBLIC "-//W3C//DTD SVG 1.1//EN" "http://www.w3.org/Graphics/SVG/1.1/DTD/svg11.dtd">
<svg version="1.1" id="Layer_1" xmlns="http://www.w3.org/2000/svg" xmlns:xlink="http://www.w3.org/1999/xlink" x="0px" y="0px"
	 viewBox="0 0 200 200" enable-background="new 0 0 200 200" xml:space="preserve">
<g>
	<g>
		<circle fill="#1A5887" cx="101.9" cy="102.9" r="50.5"/>
		<path fill="#103754" d="M101.9,52.5c27.9,0,50.5,22.6,50.5,50.5c0,27.9-22.6,50.5-50.5,50.5"/>
		<path fill="#FFFFFF" d="M101.9,91.9c6.1,0,11,4.9,11,11c0,6.1-4.9,11-11,11"/>
		<circle fill="#FFFFFF" cx="101.9" cy="102.9" r="37.3"/>
		<circle fill="#1A5887" cx="101.9" cy="102.9" r="24.2"/>
		<path fill="#103754" d="M101.9,78.8v13.2c6.1,0,11,4.9,11,11c0,6.1-4.9,11-11,11v13.2c13.3,0,24.2-10.8,24.2-24.2
			C126.1,89.6,115.3,78.8,101.9,78.8z"/>
		<path fill="#D1ECFB" d="M101.9,65.6v13.2c13.3,0,24.2,10.8,24.2,24.2c0,13.3-10.8,24.2-24.2,24.2v13.2c20.6,0,37.3-16.7,37.3-37.3
			C139.2,82.3,122.5,65.6,101.9,65.6z"/>
		<circle fill="#FFFFFF" cx="101.9" cy="102.9" r="11"/>
		<path fill="#D1ECFB" d="M112.9,102.9c0-6.1-4.9-11-11-11v22C108,114,112.9,109,112.9,102.9z"/>
	</g>
	<g>
		<g>
			<polygon fill="#DE3F18" points="102.4,103 104.8,93.7 107.3,84.4 111.9,93.5 120.9,98 111.6,100.5 			"/>
			<polygon fill="#DE3F18" points="144.1,50 136.1,57.9 138.5,66.8 147.5,69.2 155.4,61.3 146.5,58.9 			"/>
			
				<rect x="126.3" y="53" transform="matrix(-0.7072 -0.707 0.707 -0.7072 163.3076 222.752)" fill="#DE3F18" width="3" height="49.1"/>
		</g>
		<polygon fill="#FD6120" points="146.5,58.9 144.1,50 136.1,57.9 138.1,65.1 111.1,92.1 107.3,84.4 104.8,93.7 102.4,103 		"/>
	</g>
	<g>
		<g>
			<g>
				<path fill="#FFFFFF" d="M166,108.8c-0.1,0-0.3,0-0.4-0.1l-5.3-5.3c-0.2-0.2-0.2-0.5,0-0.7l5.3-5.3c0.2-0.2,0.5-0.2,0.7,0
					c0.2,0.2,0.2,0.5,0,0.7l-5,5l5,5c0.2,0.2,0.2,0.5,0,0.7C166.2,108.7,166.1,108.8,166,108.8L166,108.8z"/>
			</g>
			<g>
				<path fill="#FFFFFF" d="M178,106.5c-0.1,0-0.3,0-0.4-0.1l-3.1-3.1c-0.2-0.2-0.2-0.5,0-0.7l3.1-3.1c0.2-0.2,0.5-0.2,0.7,0
					c0.2,0.2,0.2,0.5,0,0.7l-2.7,2.7l2.7,2.7c0.2,0.2,0.2,0.5,0,0.7C178.2,106.4,178.1,106.5,178,106.5L178,106.5z"/>
			</g>
			<g>
				<path fill="#FFFFFF" d="M180.2,106.5c-0.1,0-0.3,0-0.4-0.1l-3.1-3.1c-0.2-0.2-0.2-0.5,0-0.7l3.1-3.1c0.2-0.2,0.5-0.2,0.7,0
					c0.2,0.2,0.2,0.5,0,0.7l-2.7,2.7l2.7,2.7c0.2,0.2,0.2,0.5,0,0.7C180.4,106.4,180.3,106.5,180.2,106.5L180.2,106.5z"/>
			</g>
			<g>
				<path fill="#FFFFFF" d="M182.4,106.5c-0.1,0-0.3,0-0.4-0.1l-3.1-3.1c-0.2-0.2-0.2-0.5,0-0.7l3.1-3.1c0.2-0.2,0.5-0.2,0.7,0
					c0.2,0.2,0.2,0.5,0,0.7l-2.7,2.7l2.7,2.7c0.2,0.2,0.2,0.5,0,0.7C182.7,106.4,182.5,106.5,182.4,106.5L182.4,106.5z"/>
			</g>
			<g>
				<path fill="#FFFFFF" d="M161.2,103.4c-0.3,0-0.5-0.2-0.5-0.5c0-0.3,0.2-0.5,0.5-0.5l19.3,0c0.3,0,0.5,0.2,0.5,0.5
					c0,0.3-0.2,0.5-0.5,0.5L161.2,103.4L161.2,103.4z"/>
			</g>
		</g>
	</g>
	<g>
		<g>
			<g>
				<path fill="#FFFFFF" d="M173.9,77.7c0,0-0.1,0-0.1,0l-7.3-1.9c-0.3-0.1-0.4-0.3-0.4-0.6l1.9-7.3c0.1-0.3,0.3-0.4,0.6-0.4
					c0.3,0.1,0.4,0.3,0.4,0.6l-1.8,6.8l6.8,1.8c0.3,0.1,0.4,0.3,0.4,0.6C174.3,77.5,174.1,77.7,173.9,77.7L173.9,77.7z"/>
			</g>
			<g>
				<path fill="#FFFFFF" d="M189.2,66c0,0-0.1,0-0.1,0l-4.2-1.1c-0.3-0.1-0.4-0.3-0.4-0.6l1.1-4.2c0.1-0.3,0.3-0.4,0.6-0.4
					c0.3,0.1,0.4,0.3,0.4,0.6l-1,3.7l3.7,1c0.3,0.1,0.4,0.3,0.4,0.6C189.7,65.8,189.5,66,189.2,66L189.2,66z"/>
			</g>
			<g>
				<path fill="#FFFFFF" d="M191.2,64.8c0,0-0.1,0-0.1,0l-4.2-1.1c-0.3-0.1-0.4-0.3-0.4-0.6l1.1-4.2c0.1-0.3,0.3-0.4,0.6-0.4
					c0.3,0.1,0.4,0.3,0.4,0.6l-1,3.7l3.7,1c0.3,0.1,0.4,0.3,0.4,0.6C191.6,64.7,191.4,64.8,191.2,64.8L191.2,64.8z"/>
			</g>
			<g>
				<path fill="#FFFFFF" d="M193.1,63.7c0,0-0.1,0-0.1,0l-4.2-1.1c-0.3-0.1-0.4-0.3-0.4-0.6l1.1-4.2c0.1-0.3,0.3-0.4,0.6-0.4
					c0.3,0.1,0.4,0.3,0.4,0.6l-1,3.7l3.7,1c0.3,0.1,0.4,0.3,0.4,0.6C193.5,63.6,193.3,63.7,193.1,63.7L193.1,63.7z"/>
			</g>
			<g>
				<path fill="#FFFFFF" d="M167.1,75.5c-0.2,0-0.3-0.1-0.4-0.2c-0.1-0.2-0.1-0.5,0.2-0.7l22.8-13.5c0.2-0.1,0.5-0.1,0.7,0.2
					c0.1,0.2,0.1,0.5-0.2,0.7l-22.8,13.5C167.3,75.5,167.2,75.5,167.1,75.5L167.1,75.5z"/>
			</g>
		</g>
	</g>
	<g>
		<g>
			<g>
				<path fill="#FFFFFF" d="M144.8,156.5L144.8,156.5c-0.3,0-0.5-0.2-0.5-0.5l0-7.5c0-0.3,0.2-0.5,0.5-0.5l7.5,0l0,0
					c0.3,0,0.5,0.2,0.5,0.5c0,0.3-0.2,0.5-0.5,0.5l-7,0l0,7C145.3,156.3,145.1,156.5,144.8,156.5L144.8,156.5z"/>
			</g>
			<g>
				<path fill="#FFFFFF" d="M159.9,168.4c-0.3,0-0.5-0.2-0.5-0.5v-4.3c0-0.3,0.2-0.5,0.5-0.5l4.3,0c0.3,0,0.5,0.2,0.5,0.5
					c0,0.3-0.2,0.5-0.5,0.5l-3.8,0v3.8C160.4,168.2,160.2,168.4,159.9,168.4L159.9,168.4z"/>
			</g>
			<g>
				<path fill="#FFFFFF" d="M161.5,170L161.5,170c-0.3,0-0.5-0.2-0.5-0.5l0-4.3c0-0.3,0.2-0.5,0.5-0.5l4.3,0l0,0
					c0.3,0,0.5,0.2,0.5,0.5c0,0.3-0.2,0.5-0.5,0.5l-3.8,0v3.8C162,169.8,161.8,170,161.5,170L161.5,170z"/>
			</g>
			<g>
				<path fill="#FFFFFF" d="M163.1,171.6L163.1,171.6c-0.3,0-0.5-0.2-0.5-0.5l0-4.3c0-0.3,0.2-0.5,0.5-0.5l4.3,0
					c0.3,0,0.5,0.2,0.5,0.5c0,0.3-0.2,0.5-0.5,0.5l-3.8,0v3.8C163.6,171.3,163.3,171.6,163.1,171.6L163.1,171.6z"/>
			</g>
			<g>
				<path fill="#FFFFFF" d="M163.9,168.1c-0.1,0-0.3,0-0.4-0.1l-18.7-18.7c-0.2-0.2-0.2-0.5,0-0.7c0.2-0.2,0.5-0.2,0.7,0l18.7,18.7
					c0.2,0.2,0.2,0.5,0,0.7C164.2,168,164,168.1,163.9,168.1L163.9,168.1z"/>
			</g>
		</g>
	</g>
	<g>
		<g>
			<g>
				<path fill="#FFFFFF" d="M34.4,51.7c-0.3,0-0.5-0.2-0.5-0.5c0-0.3,0.2-0.5,0.5-0.5l7,0l0-7c0-0.3,0.2-0.5,0.5-0.5l0,0
					c0.3,0,0.5,0.2,0.5,0.5l0,7.5c0,0.3-0.2,0.5-0.5,0.5L34.4,51.7L34.4,51.7L34.4,51.7z"/>
			</g>
			<g>
				<path fill="#FFFFFF" d="M22.5,36.5c-0.3,0-0.5-0.2-0.5-0.5c0-0.3,0.2-0.5,0.5-0.5l3.8,0v-3.8c0-0.3,0.2-0.5,0.5-0.5
					s0.5,0.2,0.5,0.5V36c0,0.3-0.2,0.5-0.5,0.5L22.5,36.5L22.5,36.5L22.5,36.5z"/>
			</g>
			<g>
				<path fill="#FFFFFF" d="M21,35c-0.3,0-0.5-0.2-0.5-0.5c0-0.3,0.2-0.5,0.5-0.5l3.8,0v-3.8c0-0.3,0.2-0.5,0.5-0.5l0,0
					c0.3,0,0.5,0.2,0.5,0.5l0,4.3c0,0.3-0.2,0.5-0.5,0.5L21,35L21,35L21,35z"/>
			</g>
			<g>
				<path fill="#FFFFFF" d="M19.4,33.4c-0.3,0-0.5-0.2-0.5-0.5c0-0.3,0.2-0.5,0.5-0.5l3.8,0v-3.8c0-0.3,0.2-0.5,0.5-0.5
					s0.5,0.2,0.5,0.5v4.3c0,0.3-0.2,0.5-0.5,0.5L19.4,33.4L19.4,33.4L19.4,33.4z"/>
			</g>
			<g>
				<path fill="#FFFFFF" d="M41.6,51.3c-0.1,0-0.3,0-0.4-0.1L22.5,32.4c-0.2-0.2-0.2-0.5,0-0.7c0.2-0.2,0.5-0.2,0.7,0l18.7,18.7
					c0.2,0.2,0.2,0.5,0,0.7C41.8,51.2,41.7,51.3,41.6,51.3L41.6,51.3z"/>
			</g>
		</g>
	</g>
	<g>
		<g>
			<g>
				<path fill="#FFFFFF" d="M102,44.2c-0.1,0-0.3,0-0.4-0.1l-5.3-5.3c-0.2-0.2-0.2-0.5,0-0.7c0.2-0.2,0.5-0.2,0.7,0l5,5l5-5
					c0.2-0.2,0.5-0.2,0.7,0c0.2,0.2,0.2,0.5,0,0.7l-5.3,5.3C102.3,44.1,102.2,44.2,102,44.2L102,44.2z"/>
			</g>
			<g>
				<path fill="#FFFFFF" d="M102,22.8c-0.1,0-0.3,0-0.4-0.1l-3.1-3.1c-0.2-0.2-0.2-0.5,0-0.7c0.2-0.2,0.5-0.2,0.7,0l2.7,2.7l2.7-2.7
					c0.2-0.2,0.5-0.2,0.7,0c0.2,0.2,0.2,0.5,0,0.7l-3.1,3.1C102.3,22.7,102.2,22.8,102,22.8L102,22.8z"/>
			</g>
			<g>
				<path fill="#FFFFFF" d="M102,20.6c-0.1,0-0.3,0-0.4-0.1l-3.1-3.1c-0.2-0.2-0.2-0.5,0-0.7c0.2-0.2,0.5-0.2,0.7,0l2.7,2.7l2.7-2.7
					c0.2-0.2,0.5-0.2,0.7,0c0.2,0.2,0.2,0.5,0,0.7l-3.1,3.1C102.3,20.5,102.2,20.6,102,20.6L102,20.6z"/>
			</g>
			<g>
				<path fill="#FFFFFF" d="M102,18.4c-0.1,0-0.3,0-0.4-0.1l-3.1-3.1c-0.2-0.2-0.2-0.5,0-0.7c0.2-0.2,0.5-0.2,0.7,0l2.7,2.7l2.7-2.7
					c0.2-0.2,0.5-0.2,0.7,0c0.2,0.2,0.2,0.5,0,0.7l-3.1,3.1C102.3,18.3,102.2,18.4,102,18.4L102,18.4z"/>
			</g>
			<g>
				<path fill="#FFFFFF" d="M102,43.6c-0.3,0-0.5-0.2-0.5-0.5l0-26.5c0-0.3,0.2-0.5,0.5-0.5c0.3,0,0.5,0.2,0.5,0.5l0,26.5
					C102.5,43.4,102.3,43.6,102,43.6L102,43.6z"/>
			</g>
		</g>
	</g>
	<g>
		<g>
			<g>
				<path fill="#FFFFFF" d="M37.2,108.8c-0.1,0-0.3,0-0.4-0.1c-0.2-0.2-0.2-0.5,0-0.7l5-5l-5-5c-0.2-0.2-0.2-0.5,0-0.7
					c0.2-0.2,0.5-0.2,0.7,0l5.3,5.3c0.2,0.2,0.2,0.5,0,0.7l-5.3,5.3C37.5,108.7,37.3,108.8,37.2,108.8L37.2,108.8z"/>
			</g>
			<g>
				<path fill="#FFFFFF" d="M25.2,106.5c-0.1,0-0.3,0-0.4-0.1c-0.2-0.2-0.2-0.5,0-0.7l2.7-2.7l-2.7-2.7c-0.2-0.2-0.2-0.5,0-0.7
					c0.2-0.2,0.5-0.2,0.7,0l3.1,3.1c0.2,0.2,0.2,0.5,0,0.7l-3.1,3.1C25.5,106.4,25.4,106.5,25.2,106.5L25.2,106.5z"/>
			</g>
			<g>
				<path fill="#FFFFFF" d="M23,106.5c-0.1,0-0.3,0-0.4-0.1c-0.2-0.2-0.2-0.5,0-0.7l2.7-2.7l-2.7-2.7c-0.2-0.2-0.2-0.5,0-0.7
					c0.2-0.2,0.5-0.2,0.7,0l3.1,3.1c0.2,0.2,0.2,0.5,0,0.7l-3.1,3.1C23.3,106.4,23.1,106.5,23,106.5L23,106.5z"/>
			</g>
			<g>
				<path fill="#FFFFFF" d="M20.8,106.5c-0.1,0-0.3,0-0.4-0.1c-0.2-0.2-0.2-0.5,0-0.7l2.7-2.7l-2.7-2.7c-0.2-0.2-0.2-0.5,0-0.7
					c0.2-0.2,0.5-0.2,0.7,0l3.1,3.1c0.2,0.2,0.2,0.5,0,0.7l-3.1,3.1C21.1,106.4,20.9,106.5,20.8,106.5L20.8,106.5z"/>
			</g>
			<g>
				<path fill="#FFFFFF" d="M22.7,103.4c-0.3,0-0.5-0.2-0.5-0.5c0-0.3,0.2-0.5,0.5-0.5l19.3,0c0.3,0,0.5,0.2,0.5,0.5
					c0,0.3-0.2,0.5-0.5,0.5L22.7,103.4L22.7,103.4z"/>
			</g>
		</g>
	</g>
	<g>
		<g>
			<g>
				<path fill="#23888F" d="M47.6,149c-0.5,0-0.9-0.4-0.9-0.9l0-10.2l-10.2,0c-0.5,0-0.9-0.4-0.9-0.9c0-0.5,0.4-0.9,0.9-0.9
					c0,0,0,0,0,0l11.2,0c0.5,0,0.9,0.4,0.9,0.9l0,11.2C48.5,148.6,48.1,149,47.6,149C47.6,149,47.6,149,47.6,149L47.6,149z"/>
			</g>
			<g>
				<path fill="#23888F" d="M29.8,155.5c-0.2,0-0.5-0.1-0.7-0.3c-0.4-0.4-0.4-1,0-1.3l16.2-16.2c0.4-0.4,1-0.4,1.3,0
					c0.4,0.4,0.4,1,0,1.3l-16.2,16.2C30.3,155.4,30.1,155.5,29.8,155.5L29.8,155.5z"/>
			</g>
		</g>
	</g>
	<g>
		<g>
			<g>
				<path fill="#23888F" d="M137.1,35.1c-0.4,0-0.8-0.3-0.9-0.7l-1.5-10.1c-0.1-0.5,0.3-0.9,0.7-1c0.5-0.1,0.9,0.3,1,0.7l1.4,9.3
					l9.3-1.4c0.5-0.1,0.9,0.3,1,0.7c0.1,0.5-0.3,0.9-0.7,1l-10.1,1.5C137.2,35.1,137.1,35.1,137.1,35.1L137.1,35.1z"/>
			</g>
			<g>
				<path fill="#23888F" d="M138.3,33.5c-0.2,0-0.4-0.1-0.5-0.2c-0.4-0.3-0.5-0.8-0.2-1.2l12.5-16.8c0.3-0.4,0.8-0.5,1.2-0.2
					c0.4,0.3,0.5,0.8,0.2,1.2L139,33.2C138.8,33.4,138.5,33.5,138.3,33.5L138.3,33.5z"/>
			</g>
		</g>
	</g>
	<g>
		<g>
			<g>
				<path fill="#23888F" d="M180.3,144.6c-0.3,0-0.6-0.2-0.7-0.5l-2.4-7.9c-0.1-0.4,0.1-0.8,0.5-0.9l7.9-2.4
					c0.4-0.1,0.8,0.1,0.9,0.5c0.1,0.4-0.1,0.8-0.5,0.9l-7.2,2.2l2.2,7.2c0.1,0.4-0.1,0.8-0.5,0.9
					C180.4,144.6,180.3,144.6,180.3,144.6L180.3,144.6z"/>
			</g>
			<g>
				<path fill="#23888F" d="M194.1,145.3c-0.1,0-0.2,0-0.3-0.1l-14.9-7.8c-0.3-0.2-0.5-0.6-0.3-0.9c0.2-0.3,0.6-0.5,0.9-0.3
					l14.9,7.8c0.3,0.2,0.5,0.6,0.3,0.9C194.6,145.2,194.4,145.3,194.1,145.3L194.1,145.3z"/>
			</g>
		</g>
	</g>
	<g>
		<g>
			<g>
				<path fill="#23888F" d="M72.4,51.9c-0.1,0-0.1,0-0.2,0l-8-2.1c-0.4-0.1-0.6-0.5-0.5-0.8c0.1-0.4,0.5-0.6,0.8-0.5l7.3,1.9
					l1.9-7.3c0.1-0.4,0.5-0.6,0.8-0.5c0.4,0.1,0.6,0.5,0.5,0.8l-2.1,8C73,51.7,72.7,51.9,72.4,51.9L72.4,51.9z"/>
			</g>
			<g>
				<path fill="#23888F" d="M71.6,50.5c-0.2,0-0.5-0.1-0.6-0.3l-8.6-14.5c-0.2-0.3-0.1-0.8,0.2-1c0.3-0.2,0.8-0.1,1,0.2l8.6,14.5
					c0.2,0.3,0.1,0.8-0.2,1C71.8,50.5,71.7,50.5,71.6,50.5L71.6,50.5z"/>
			</g>
		</g>
	</g>
	<g>
		<defs>
			<circle id="SVGID_3_" cx="101.9" cy="102.9" r="50.5"/>
		</defs>
		<clipPath id="SVGID_1_">
			<use xlink:href="#SVGID_3_"  overflow="visible"/>
		</clipPath>
	</g>
</g>
<g>
	<g>
		<path fill="#FD6120" d="M41.6,171.3c-4.8,0-8.6-2.9-8.6-6.5v-50.5c0-3.6,3.9-6.5,8.6-6.5h18.1v-5.2H38.2c-5.8,0-10.5,3.6-10.5,7.9
			v61.2c0,4.4,4.7,7.9,10.5,7.9h21.5v-8.3H41.6z"/>
		<path fill="#DE3F18" d="M81.1,102.5H59.7v5.2H77c4.8,0,8.6,2.9,8.6,6.5v50.5c0,3.6-3.9,6.5-8.6,6.5H59.7v8.3h21.5
			c5.8,0,10.5-3.6,10.5-7.9v-61.2C91.6,106.1,86.9,102.5,81.1,102.5z"/>
		<path fill="#F0F0E7" d="M77,171.3c4.8,0,8.6-2.9,8.6-6.5v-50.5c0-3.6-3.9-6.5-8.6-6.5H59.7v63.6H77z"/>
		<path fill="#FFFFFF" d="M32.9,114.3v50.5c0,3.6,3.9,6.5,8.6,6.5h18.1v-63.6H41.6C36.8,107.7,32.9,110.6,32.9,114.3z"/>
	</g>
	<g>
		<g>
			<g>
				<g>
					<path fill="#7CA1AF" d="M75.2,111.4c0,1.3-1.4,2.3-3.1,2.3h-2.2c-1.7,0-3.1-1-3.1-2.3v-9.1c0-1.3,1.4-2.3,3.1-2.3h2.2
						c1.7,0,3.1,1,3.1,2.3V111.4z"/>
				</g>
			</g>
			<g>
				<g>
					<path fill="#7CA1AF" d="M63.1,111.4c0,1.3-1.4,2.3-3.1,2.3h-2.2c-1.7,0-3.1-1-3.1-2.3v-9.1c0-1.3,1.4-2.3,3.1-2.3H60
						c1.7,0,3.1,1,3.1,2.3V111.4z"/>
				</g>
			</g>
			<g>
				<g>
					<path fill="#7CA1AF" d="M51,111.4c0,1.3-1.4,2.3-3.1,2.3h-2.2c-1.7,0-3.1-1-3.1-2.3v-9.1c0-1.3,1.4-2.3,3.1-2.3h2.2
						c1.7,0,3.1,1,3.1,2.3V111.4z"/>
				</g>
			</g>
		</g>
	</g>
	<g>
		<path fill="#DD4019" d="M79.3,122c0,0.6-0.5,1.1-1.1,1.1H40.8c-0.6,0-1.1-0.5-1.1-1.1l0,0c0-0.6,0.5-1.1,1.1-1.1h37.4
			C78.8,120.9,79.3,121.4,79.3,122L79.3,122z"/>
	</g>
	<g>
		<path fill="none" stroke="#5D8496" d="M65.9,134.8c0,0.3-0.2,0.6-0.5,0.6H54.3c-0.3,0-0.5-0.3-0.5-0.6v-6.5c0-0.3,0.2-0.6,0.5-0.6
			h11.1c0.3,0,0.5,0.3,0.5,0.6V134.8z"/>
		<path fill="none" stroke="#5D8496" d="M57.5,147.3c0,0.3-0.2,0.6-0.5,0.6H45.8c-0.3,0-0.5-0.3-0.5-0.6v-6.5c0-0.3,0.2-0.6,0.5-0.6
			H57c0.3,0,0.5,0.3,0.5,0.6V147.3z"/>
		<path fill="none" stroke="#5D8496" d="M73.8,147.3c0,0.3-0.2,0.6-0.5,0.6H62.2c-0.3,0-0.5-0.3-0.5-0.6v-6.5c0-0.3,0.2-0.6,0.5-0.6
			h11.1c0.3,0,0.5,0.3,0.5,0.6V147.3z"/>
		<path fill="none" stroke="#5D8496" d="M49.3,160.7c0,0.3-0.2,0.6-0.5,0.6H37.7c-0.3,0-0.5-0.3-0.5-0.6v-6.5c0-0.3,0.2-0.6,0.5-0.6
			h11.1c0.3,0,0.5,0.3,0.5,0.6V160.7z"/>
		<path fill="none" stroke="#5D8496" d="M65.9,160.7c0,0.3-0.2,0.6-0.5,0.6H54.3c-0.3,0-0.5-0.3-0.5-0.6v-6.5c0-0.3,0.2-0.6,0.5-0.6
			h11.1c0.3,0,0.5,0.3,0.5,0.6V160.7z"/>
		<path fill="none" stroke="#5D8496" d="M82.1,160.7c0,0.3-0.2,0.6-0.5,0.6H70.5c-0.3,0-0.5-0.3-0.5-0.6v-6.5c0-0.3,0.2-0.6,0.5-0.6
			h11.1c0.3,0,0.5,0.3,0.5,0.6V160.7z"/>
		<g>
			<path fill="#7CA1AF" d="M49.5,140.2h-0.3V136c0-1.7,1.1-3.2,2.4-3.2h2.2v0.3h-2.2c-1.2,0-2.1,1.3-2.1,2.9V140.2L49.5,140.2z"/>
		</g>
		<g>
			<path fill="#7CA1AF" d="M70.1,139.8h-0.3V136c0-1.6-0.8-2.9-1.9-2.9h-2v-0.3h2c1.2,0,2.2,1.4,2.2,3.2V139.8L70.1,139.8z"/>
		</g>
		<g>
			<path fill="#7CA1AF" d="M41.6,153.6h-0.3v-6.5c0-1.7,0.9-3.2,2.1-3.2h1.9v0.3h-1.9c-1,0-1.8,1.3-1.8,2.9V153.6L41.6,153.6z"/>
		</g>
		<g>
			<path fill="#7CA1AF" d="M77.6,153.6h-0.3v-6.5c0-1.6-0.8-2.9-1.7-2.9h-1.8v-0.3h1.8c1.1,0,2,1.4,2,3.2V153.6L77.6,153.6z"/>
		</g>
		<g>
			<polygon fill="#7CA1AF" points="60,153.7 59.7,153.7 59.7,135.4 60,135.4 60,153.7 			"/>
		</g>
	</g>
</g>
</svg>
