<?xml version="1.0" encoding="utf-8"?>
<!-- Generator: Adobe Illustrator 17.1.0, SVG Export Plug-In . SVG Version: 6.00 Build 0)  -->
<!DOCTYPE svg PUBLIC "-//W3C//DTD SVG 1.1//EN" "http://www.w3.org/Graphics/SVG/1.1/DTD/svg11.dtd">
<svg version="1.1" id="Layer_1" xmlns="http://www.w3.org/2000/svg" xmlns:xlink="http://www.w3.org/1999/xlink" x="0px" y="0px"
	 viewBox="0 0 200 200" enable-background="new 0 0 200 200" xml:space="preserve">
<g>
	<path fill="#174F78" d="M165.2,64.4H32c-1.9,0-3.5,1.6-3.5,3.5V149c0,1.9,1.6,3.5,3.5,3.5h133.2c1.9,0,3.5-1.6,3.5-3.5V67.9
		C168.7,66,167.1,64.4,165.2,64.4z"/>
	<rect x="37.2" y="72.8" fill="#103754" width="122.8" height="71.1"/>
	<path fill="#FFFFFF" d="M181.6,150.5h-57.4c-0.1,1.2-1.1,2.1-2.3,2.1H75.3c-1.2,0-2.2-0.9-2.3-2.1H15.6c0,0.3-0.1,0.6-0.1,0.8v2.5
		c0,4.2,3.4,7.6,7.6,7.6h151c4.2,0,7.6-3.4,7.6-7.6v-2.5C181.7,151.1,181.6,150.8,181.6,150.5z"/>
	<path fill="#C1E2DE" d="M16.1,156.8c1.2,2.7,3.8,4.6,7,4.6h151c3.1,0,5.8-1.9,6.9-4.6H16.1z"/>
	<rect x="47.1" y="90" fill="#F3AC1D" width="38" height="2.1"/>
	<rect x="88.6" y="90" fill="#6BB8D6" width="8.6" height="2.1"/>
	<rect x="47.1" y="81.8" fill="#DE3F18" width="25.4" height="2.1"/>
	<rect x="69.7" y="98.2" fill="#C1E2DE" width="79.9" height="2.1"/>
	<rect x="47.1" y="98.2" fill="#F3AC1D" width="18.5" height="2.1"/>
	<rect x="55.3" y="106.5" fill="#C1E2DE" width="64.5" height="2.1"/>
	<rect x="123.3" y="106.5" fill="#DE3F18" width="11.1" height="2.1"/>
	<rect x="55.3" y="114.7" fill="#F3AC1D" width="12.4" height="2.1"/>
	<rect x="55.3" y="122.9" fill="#F3AC1D" width="12.4" height="2.1"/>
	<rect x="71.2" y="114.7" fill="#B1BE46" width="67.4" height="2.1"/>
	<rect x="71.2" y="122.9" fill="#B1BE46" width="35.3" height="2.1"/>
	<rect x="109.1" y="122.9" fill="#6BB8D6" width="35.3" height="2.1"/>
	<rect x="70.8" y="131.1" fill="#6BB8D6" width="46.8" height="2.1"/>
	<rect x="47.1" y="131.1" fill="#F3AC1D" width="20.8" height="2.1"/>
	<rect x="121.9" y="131.1" fill="#DE3F18" width="6.5" height="2.1"/>
</g>
<g>
	<polygon fill="#C1E2DE" points="52.2,114.9 60.6,108 69.1,101.1 58.5,98.3 48,95.5 52,102.4 44.3,104.1 45.3,108.6 52.9,107 	"/>
	<polygon fill="#FFFFFF" points="60.6,108 69.1,101.1 68.8,101 44.8,106.2 45.3,108.6 52.9,107 52.2,114.9 	"/>
</g>
</svg>
