<?xml version="1.0" encoding="utf-8"?>
<!-- Generator: Adobe Illustrator 18.1.1, SVG Export Plug-In . SVG Version: 6.00 Build 0)  -->
<svg version="1.1" id="twitter" xmlns="http://www.w3.org/2000/svg" xmlns:xlink="http://www.w3.org/1999/xlink" x="0px" y="0px"
	 viewBox="0 0 150 150" style="enable-background:new 0 0 150 150;" xml:space="preserve">
<style type="text/css">
	.st0{fill:#0698CF;}
	.st1{fill:#FFF568;}
</style>
<g id="twitter-icon">
	<rect class="st0" width="150" height="150"/>
	<path class="st1" d="M132,46c0,1.6,0,2.4,0,4c0,39-29.6,84-84,84c-17,0-32.4-5-45.6-13.6c2.4,0.4,4.4,0.4,7,0.4
		c13.6,0,26.4-4.4,36.4-12.4c-13,0-23.6-9-27.6-20.4c1.6,0.4,3.6,0.4,5.6,0.4c3,0,5.6-0.4,8-1C18.4,85,8.4,73,8.4,58.4
		c0-0.4,0-0.4,0-0.4c4,2,8.4,3.6,13.6,3.6c-8-5-13-14-13-24.4c0-5.6,1.6-10.4,4-15c14.4,18,36.4,29.6,61,30c-0.4-2-1-4-1-6.4
		C73,29,86,16,102.4,16c8.4,0,16,4,21.6,9.6c7-1,13.6-3.6,19-7c-2,7-7,13-13,16.4c6-0.4,11.6-2.4,17-4.4C143,36.4,138,41.6,132,46z"
		/>
</g>
</svg>
