<?xml version="1.0" encoding="utf-8"?>
<!-- Generator: Adobe Illustrator 18.1.1, SVG Export Plug-In . SVG Version: 6.00 Build 0)  -->
<svg version="1.1" id="vimeo" xmlns="http://www.w3.org/2000/svg" xmlns:xlink="http://www.w3.org/1999/xlink" x="0px" y="0px"
	 viewBox="0 0 150 150" style="enable-background:new 0 0 150 150;" xml:space="preserve">
<style type="text/css">
	.st0{fill:#0698CF;}
	.st1{fill:#FFF568;}
</style>
<g id="vimeo-icon">
	<rect class="st0" width="150" height="150"/>
	<path class="st1" d="M142.4,43.6c-0.4,13-10,31-27.6,54c-18.4,24-34,36-46.4,36c-8,0-14.4-7.6-20-22c-3.6-13.6-7.6-26.4-11-40
		C33.4,57.2,29,50,24.4,50c-1,0-4.4,2-10.4,6.4L7.6,48c6.4-6,13-11.6,19.6-17.6c9-7.6,15.6-11.6,20-12c10.4-1,17,6,19.6,21.6
		c2.4,16.4,4.4,27,5.6,31c3,14,6.4,20.4,10,20.4c3,0,7-4.4,12.4-13.6s8.4-15.6,9-20.4c1-7.6-2-11.6-9-11.6c-3,0-6.4,0.4-10,2
		c6.4-21.6,19.6-32.4,38-31.6C136.4,17,143,26,142.4,43.6z"/>
</g>
</svg>
